<svg width="17" height="15" viewBox="0 0 17 15" fill="none" xmlns="http://www.w3.org/2000/svg">
<path d="M4.90625 3.39844V2.00694C4.90625 1.45312 5.35938 1 5.91319 1H11.1493C11.7032 1 12.1562 1.45312 12.1562 2.00694V3.39844" stroke="#797979" stroke-width="1.5" stroke-miterlimit="22.9256" stroke-linecap="round" stroke-linejoin="round"/>
<path d="M15.4375 7.89844V13.2344C15.4375 13.7499 15.0155 14.1719 14.5 14.1719H2.5625C2.04697 14.1719 1.625 13.75 1.625 13.2344V7.92969" stroke="#797979" stroke-width="1.5" stroke-miterlimit="22.9256" stroke-linecap="round" stroke-linejoin="round"/>
<path d="M7.28125 9.47656C3.97534 9.28753 1 8.34219 1 6.64053V4.42188C1 3.90553 1.42112 3.48438 1.9375 3.48438H15.125C15.6413 3.48438 16.0625 3.90556 16.0625 4.42188V6.64053C16.0625 8.35284 13.0496 9.29934 9.71875 9.48003" stroke="#797979" stroke-width="1.5" stroke-miterlimit="22.9256" stroke-linecap="round" stroke-linejoin="round"/>
<path fill-rule="evenodd" clip-rule="evenodd" d="M7.375 8.54688H9.6875V9.625C9.6875 10.218 9.20234 10.7031 8.60938 10.7031H8.45312C7.86016 10.7031 7.375 10.218 7.375 9.625V8.54688Z" stroke="#797979" stroke-width="1.5" stroke-miterlimit="22.9256" stroke-linecap="round" stroke-linejoin="round"/>
</svg>
