<?xml version="1.0" standalone="no"?>
<!DOCTYPE svg PUBLIC "-//W3C//DTD SVG 20010904//EN"
 "http://www.w3.org/TR/2001/REC-SVG-20010904/DTD/svg10.dtd">
<svg version="1.0" xmlns="http://www.w3.org/2000/svg"
 width="122.000000pt" height="107.000000pt" viewBox="0 0 122.000000 107.000000"
 preserveAspectRatio="xMidYMid meet">

<g transform="translate(0.000000,107.000000) scale(0.100000,-0.100000)"
fill="#000000" stroke="none">
<path d="M101 1046 c-8 -9 -11 -43 -9 -92 3 -70 5 -80 25 -90 l23 -11 -25 -13
c-44 -23 -58 -71 -53 -184 2 -75 8 -107 21 -126 14 -21 17 -49 17 -195 0 -188
8 -234 47 -265 24 -18 39 -20 209 -20 l183 0 4 -27 4 -28 2 28 1 27 255 0 255
0 32 29 33 29 3 197 c3 173 5 200 23 228 15 26 19 51 19 135 0 163 -26 192
-173 192 l-84 0 -5 45 c-7 60 -31 92 -83 115 -23 10 -46 23 -49 29 -5 8 -111
11 -335 11 -270 0 -331 -3 -340 -14z m274 -67 l12 -34 12 38 c7 21 19 37 28
37 10 0 13 -5 8 -17 -15 -37 -17 -48 -5 -30 14 21 59 23 66 2 6 -14 8 -14 19
1 8 12 21 15 39 12 18 -4 29 -1 33 8 6 17 33 18 34 2 6 -69 3 -88 -13 -88 -13
0 -18 8 -18 28 0 23 -4 27 -30 28 -23 1 -30 -3 -30 -17 0 -21 16 -34 25 -19 9
15 25 12 25 -4 0 -30 -62 -31 -74 -1 -3 8 -17 15 -31 15 -15 0 -24 -4 -21 -9
3 -5 15 -7 26 -4 25 7 27 -14 1 -22 -26 -8 -49 3 -57 28 l-7 22 -8 -23 c-5
-12 -15 -22 -23 -22 -14 0 -46 67 -46 96 0 27 23 9 35 -27z m-95 -14 c0 -23
-24 -45 -49 -45 -19 0 -12 18 9 25 35 11 21 25 -25 25 -46 0 -62 -17 -25 -27
23 -6 27 -23 6 -23 -32 0 -46 13 -46 41 l0 29 65 0 c62 0 65 -1 65 -25z m428
-12 c2 -24 -2 -34 -17 -43 -28 -15 -61 3 -61 33 0 31 20 48 50 45 20 -2 26 -9
28 -35z m52 28 c0 -6 -4 -13 -10 -16 -5 -3 -10 -17 -10 -31 0 -13 -4 -24 -10
-24 -5 0 -10 18 -10 40 0 33 3 40 20 40 11 0 20 -4 20 -9z m50 -86 c0 -29 -4
-35 -22 -35 -17 0 -19 3 -10 12 7 7 12 22 12 35 0 13 5 23 10 23 6 0 10 -16
10 -35z m268 -217 c2 -52 -2 -97 -8 -109 -16 -30 -123 -77 -214 -94 -97 -19
-116 -19 -116 -1 0 35 -29 46 -122 46 -93 0 -128 -13 -128 -47 0 -17 -24 -17
-118 3 -88 18 -157 46 -189 76 -21 20 -23 31 -23 120 l0 98 458 -2 457 -3 3
-87z m-768 -283 c30 -8 84 -18 120 -21 60 -6 67 -9 88 -41 18 -28 22 -48 22
-114 l0 -79 -170 0 -170 0 0 135 0 135 28 0 c15 0 52 -7 82 -15z m725 -120 l0
-130 -242 -3 -243 -2 0 73 0 73 61 -1 c59 0 62 1 98 41 32 37 42 42 96 48 33
4 83 13 110 21 28 7 66 13 85 12 l35 -2 0 -130z m-397 109 c-9 -9 -24 -14 -32
-11 -27 11 -17 27 16 27 30 0 31 -1 16 -16z"/>
<path d="M458 963 c7 -3 16 -2 19 1 4 3 -2 6 -13 5 -11 0 -14 -3 -6 -6z"/>
<path d="M660 951 c0 -11 4 -22 9 -25 11 -7 23 22 15 35 -9 16 -24 10 -24 -10z"/>
</g>
</svg>
