<svg width="24" height="24" viewBox="0 0 24 24" fill="none" xmlns="http://www.w3.org/2000/svg">
<g id="bell alert">
<path id="Vector" d="M13.7295 21C13.5537 21.3031 13.3014 21.5547 12.9978 21.7295C12.6941 21.9044 12.3499 21.9965 11.9995 21.9965C11.6492 21.9965 11.3049 21.9044 11.0013 21.7295C10.6977 21.5547 10.4453 21.3031 10.2695 21" stroke="black" stroke-width="2" stroke-linecap="round" stroke-linejoin="round"/>
<path id="Subtract" fill-rule="evenodd" clip-rule="evenodd" d="M12.0001 1C10.1436 1 8.36309 1.7375 7.05033 3.05025C5.73758 4.36301 5.00008 6.14348 5.00008 8C5.00008 11.3527 4.28301 13.4346 3.62218 14.6461C3.29039 15.2544 2.9673 15.6535 2.74288 15.8904C2.6304 16.0091 2.54202 16.0878 2.4888 16.1322C2.46218 16.1544 2.44432 16.168 2.43663 16.1737L2.43377 16.1758C2.07528 16.4221 1.91664 16.8725 2.04299 17.2898C2.17068 17.7115 2.55941 18 3.00008 18H21.0001C21.4407 18 21.8295 17.7115 21.9572 17.2898C22.0835 16.8725 21.9249 16.4221 21.5664 16.1758L21.5635 16.1737C21.5558 16.168 21.538 16.1544 21.5114 16.1322C21.4581 16.0878 21.3698 16.0091 21.2573 15.8904C21.0329 15.6535 20.7098 15.2544 20.378 14.6461C20.1801 14.2834 19.9772 13.8427 19.7901 13.3132C19.2064 13.6203 18.5659 13.8341 17.8885 13.9347C18.1139 14.5801 18.3654 15.1331 18.6222 15.6039C18.6983 15.7434 18.7747 15.8753 18.8508 16H5.1494C5.22549 15.8753 5.30188 15.7434 5.37797 15.6039C6.21715 14.0654 7.00008 11.6473 7.00008 8C7.00008 6.67392 7.52686 5.40215 8.46454 4.46447C9.40223 3.52678 10.674 3 12.0001 3C12.478 3 12.9489 3.06843 13.3996 3.19985C14.097 2.6759 14.9124 2.30041 15.7987 2.12029C14.6754 1.3946 13.3581 1 12.0001 1Z" fill="black"/>
<circle id="Ellipse 215" cx="17" cy="8" r="5" fill="#FF000D"/>
</g>
</svg>
