<svg width="30" height="30" viewBox="0 0 30 30" fill="none" xmlns="http://www.w3.org/2000/svg">
<g id="coin 1" clip-path="url(#clip0_420_747)">
<g id="Group">
<g id="Group_2">
<path id="Vector" fill-rule="evenodd" clip-rule="evenodd" d="M6.16309 21.2122C6.16309 18.9523 11.2999 17.1218 17.6383 17.1218C23.9766 17.1218 29.1151 18.9522 29.1151 21.2122V24.9702C29.1151 27.2301 23.9766 29.0606 17.6383 29.0606C11.2999 29.0606 6.16309 27.2302 6.16309 24.9702C6.16309 23.7175 6.16309 22.4649 6.16309 21.2122Z" fill="#FE9923"/>
</g>
<g id="Group_3">
<path id="Vector_2" fill-rule="evenodd" clip-rule="evenodd" d="M17.6383 17.1218C23.9766 17.1218 29.1151 18.9522 29.1151 21.2122C29.1151 23.4704 23.9766 25.3026 17.6383 25.3026C11.2999 25.3026 6.16309 23.4705 6.16309 21.2122C6.16309 18.9523 11.2999 17.1218 17.6383 17.1218Z" fill="#FECD3D"/>
</g>
<g id="Group_4">
<path id="Vector_3" fill-rule="evenodd" clip-rule="evenodd" d="M17.6382 17.1218C19.5675 17.1218 21.386 17.2906 22.9812 17.5905V17.8615C22.9812 20.1214 17.8428 21.9519 11.5061 21.9519C9.58701 21.9519 7.77875 21.7849 6.18863 21.4883C6.17158 21.3963 6.16309 21.3042 6.16309 21.2122C6.16303 18.9523 11.2998 17.1218 17.6382 17.1218Z" fill="#CEA732"/>
</g>
<g id="Group_5">
<path id="Vector_4" fill-rule="evenodd" clip-rule="evenodd" d="M17.6378 19.0325C22.6809 19.0325 26.7679 20.0091 26.7679 21.2123C26.7679 22.4156 22.6809 23.3904 17.6378 23.3904C12.5965 23.3904 8.50781 22.4155 8.50781 21.2123C8.50781 20.0091 12.5964 19.0325 17.6378 19.0325Z" fill="#FEA832"/>
</g>
<g id="Group_6">
<path id="Vector_5" fill-rule="evenodd" clip-rule="evenodd" d="M17.6378 19.0325C19.308 19.0325 20.8743 19.1399 22.2224 19.3273C20.5676 20.8629 16.3937 21.952 11.5057 21.952C10.6092 21.952 9.73834 21.9162 8.9015 21.8463C8.64586 21.6452 8.50781 21.4322 8.50781 21.2123C8.50781 20.0091 12.5964 19.0325 17.6378 19.0325Z" fill="#CE8829"/>
</g>
<g id="Group_7">
<path id="Vector_6" d="M26.0115 25.7661V27.767C26.3643 27.6323 26.6932 27.4909 26.9932 27.3392V25.7644L26.0115 25.7661ZM23.4465 28.4982C23.1295 28.5646 22.8023 28.626 22.4665 28.6823V26.7751L23.4465 26.7768V28.4982ZM19.9015 28.9804C19.5794 29.0043 19.2522 29.0213 18.9215 29.035V27.2148L19.9015 27.2182V28.9804ZM16.3565 29.035C16.0242 29.0213 15.697 29.0043 15.3749 28.9804V27.2165H16.3565V29.035ZM12.8099 28.6822C12.4741 28.6259 12.1469 28.5646 11.8299 28.4981V26.775L12.8099 26.7767V28.6822ZM9.26488 27.767C8.91209 27.6324 8.58314 27.4909 8.2832 27.3392V25.7662L9.26488 25.7645V27.767Z" fill="#C85929"/>
</g>
<g id="Group_8">
<path id="Vector_7" fill-rule="evenodd" clip-rule="evenodd" d="M0.0292969 13.1219C0.0292969 10.862 5.16779 9.02979 11.5062 9.02979C17.8428 9.02979 22.9813 10.862 22.9813 13.1219V16.8799C22.9813 19.1381 17.8429 20.9703 11.5062 20.9703C5.16779 20.9703 0.0292969 19.1381 0.0292969 16.8799C0.0292969 15.6272 0.0292969 14.3745 0.0292969 13.1219Z" fill="#FE9923"/>
</g>
<g id="Group_9">
<path id="Vector_8" fill-rule="evenodd" clip-rule="evenodd" d="M11.5062 9.02979C17.8428 9.02979 22.9813 10.862 22.9813 13.1219C22.9813 15.3801 17.8429 17.2122 11.5062 17.2122C5.16779 17.2122 0.0292969 15.3801 0.0292969 13.1219C0.0292969 10.862 5.16779 9.02979 11.5062 9.02979Z" fill="#FECD3D"/>
</g>
<g id="Group_10">
<path id="Vector_9" fill-rule="evenodd" clip-rule="evenodd" d="M11.5057 9.02979C17.8423 9.02979 22.9809 10.862 22.9809 13.1219C22.9809 13.3434 22.9314 13.5615 22.8344 13.7746C21.6226 13.9126 20.3307 13.9859 18.9894 13.9859C11.9932 13.9859 6.32129 11.9646 6.32129 9.47123C7.87725 9.18998 9.63945 9.02979 11.5057 9.02979Z" fill="#CEA732"/>
</g>
<g id="Group_11">
<path id="Vector_10" fill-rule="evenodd" clip-rule="evenodd" d="M11.506 10.9421C16.5473 10.9421 20.636 11.9187 20.636 13.1219C20.636 14.3252 16.5473 15.3 11.506 15.3C6.46295 15.3 2.37598 14.3252 2.37598 13.1219C2.37598 11.9187 6.46289 10.9421 11.506 10.9421Z" fill="#FEA832"/>
</g>
<g id="Group_12">
<path id="Vector_11" fill-rule="evenodd" clip-rule="evenodd" d="M11.506 10.9421C16.5473 10.9421 20.636 11.9187 20.636 13.1219C20.636 13.4236 20.377 13.7133 19.9083 13.9741C19.6049 13.9826 19.2981 13.986 18.9896 13.986C13.7011 13.986 9.17107 12.8322 7.27246 11.1909C8.53873 11.0324 9.97721 10.9421 11.506 10.9421Z" fill="#CE8829"/>
</g>
<g id="Group_13">
<path id="Vector_12" d="M19.8794 17.6758V19.6766C20.2322 19.542 20.5612 19.3988 20.8611 19.2488V17.6741L19.8794 17.6758ZM17.3144 20.4078C16.9974 20.4742 16.6702 20.5356 16.3344 20.5918V18.6847L17.3144 18.6864V20.4078ZM13.7677 20.8901C13.4456 20.914 13.1201 20.931 12.7878 20.9447V19.1244L13.7677 19.1261V20.8901ZM10.2228 20.9446C9.89211 20.9309 9.56486 20.9139 9.24107 20.89V19.1261L10.2228 19.1244V20.9446ZM6.67607 20.5918C6.34033 20.5356 6.01478 20.4742 5.69609 20.4078V18.6847L6.67607 18.6864V20.5918ZM3.13279 19.6766C2.7783 19.542 2.45105 19.3988 2.14941 19.2488V17.6758L3.13279 17.6741V19.6766Z" fill="#C85929"/>
</g>
<g id="Group_14">
<path id="Vector_13" d="M29.0915 13.7644V14.6455H29.9709V15.4875H29.0915V16.3669H28.2496V15.4875H27.3701V14.6455H28.2496V13.7644H29.0915Z" fill="#FEA832"/>
</g>
<g id="Group_15">
<path id="Vector_14" d="M2.69963 22.7019V23.5813H3.57906V24.4233H2.69963V25.3027H1.8577V24.4233H0.976562V23.5813H1.8577V22.7019H2.69963Z" fill="#FEA832"/>
</g>
<g id="Group_16">
<path id="Vector_15" d="M2.69963 4.30371V5.18314H3.57906V6.02508H2.69963V6.90621H1.8577V6.02508H0.976562V5.18314H1.8577V4.30371H2.69963Z" fill="#FEA832"/>
</g>
<g id="Group_17">
<path id="Vector_16" fill-rule="evenodd" clip-rule="evenodd" d="M6.16309 5.02982C6.16309 2.77162 11.2999 0.939453 17.6383 0.939453C23.9766 0.939453 29.1151 2.77156 29.1151 5.02982V8.78955C29.1151 11.0478 23.9766 12.8799 17.6383 12.8799C11.2999 12.8799 6.16309 11.0478 6.16309 8.78955C6.16309 7.53688 6.16309 6.2825 6.16309 5.02982Z" fill="#FE9923"/>
</g>
<g id="Group_18">
<path id="Vector_17" fill-rule="evenodd" clip-rule="evenodd" d="M17.6383 0.939453C23.9766 0.939453 29.1151 2.77156 29.1151 5.02982C29.1151 7.28973 23.9766 9.12189 17.6383 9.12189C11.2999 9.12189 6.16309 7.28973 6.16309 5.02982C6.16309 2.77162 11.2999 0.939453 17.6383 0.939453Z" fill="#FECD3D"/>
</g>
<g id="Group_19">
<path id="Vector_18" fill-rule="evenodd" clip-rule="evenodd" d="M17.6378 2.85156C22.6809 2.85156 26.7679 3.82645 26.7679 5.02967C26.7679 6.23465 22.6809 7.20947 17.6378 7.20947C12.5965 7.20947 8.50781 6.23459 8.50781 5.02967C8.50781 3.82645 12.5964 2.85156 17.6378 2.85156Z" fill="#FEA832"/>
</g>
<g id="Group_20">
<path id="Vector_19" d="M26.0115 9.58544V11.5863C26.3643 11.4517 26.6932 11.3085 26.9932 11.1585V9.58374L26.0115 9.58544ZM23.4465 12.3174C23.1295 12.3839 22.8023 12.4453 22.4665 12.4998V10.5944L23.4465 10.5961V12.3174ZM19.9015 12.7998C19.5794 12.8219 19.2522 12.8407 18.9215 12.8543V11.0341L19.9015 11.0358V12.7998ZM16.3565 12.8543C16.0242 12.8407 15.697 12.8219 15.3749 12.7998V11.0358L16.3565 11.0341V12.8543ZM12.8099 12.4998C12.4741 12.4452 12.1469 12.3839 11.8299 12.3174V10.5944L12.8099 10.5961V12.4998ZM9.26488 11.5863C8.91209 11.4517 8.58314 11.3085 8.2832 11.1585V9.58544L9.26488 9.58374V11.5863Z" fill="#C85929"/>
</g>
</g>
</g>
<defs>
<clipPath id="clip0_420_747">
<rect width="30" height="30" fill="white"/>
</clipPath>
</defs>
</svg>
