<svg width="615" height="352" viewBox="0 0 615 352" fill="none" xmlns="http://www.w3.org/2000/svg">
<path d="M371.211 58.5006C370.841 61.5563 370.693 64.5998 370.791 67.5807C371.164 78.8917 376.396 92.3903 387.014 97.8807C400.246 104.722 416.871 97.6187 430.765 102.145C452.286 109.156 470.177 137.624 494.626 121.971C512.654 110.429 519.191 82.7779 515.371 62.8797C508.659 27.9248 476.988 1.37159 441.56 0.0579941C418.834 -0.784535 396.433 7.53086 383.348 26.455C377.046 35.5683 372.588 47.1182 371.211 58.5006Z" fill="#F4F7FD"/>
<path d="M32.2162 350.569H574.808H575.683C592.269 312.765 598.861 270.63 593.455 229.703C590.668 208.606 584.416 187.016 569.813 171.535C560.558 161.723 548.47 154.96 535.883 150.11C505.005 138.213 470.009 137.337 438.575 147.676C417.912 154.473 397.106 166.11 375.781 161.821C366.49 159.953 358.058 155.143 350.231 149.8C308.391 121.241 276.362 74.4967 226.859 63.7376C194.845 56.7797 160.727 67.0719 134.078 86.1291C107.43 105.186 87.49 132.274 71.4562 160.844C39.0756 218.541 22.6144 285.107 32.2162 350.569Z" fill="#F4F7FD"/>
<mask id="mask0_1068_7251" style="mask-type:luminance" maskUnits="userSpaceOnUse" x="29" y="61" width="567" height="290">
<path d="M32.2162 350.569H574.808H575.683C592.269 312.765 598.861 270.63 593.455 229.703C590.668 208.606 584.416 187.017 569.813 171.536C560.558 161.723 548.47 154.961 535.883 150.111C505.005 138.213 470.009 137.337 438.575 147.677C417.912 154.473 397.106 166.111 375.781 161.822C366.49 159.953 358.058 155.143 350.231 149.801C308.391 121.241 276.362 74.4969 226.859 63.7379C194.845 56.7799 160.727 67.0722 134.078 86.1293C107.43 105.186 87.49 132.274 71.4562 160.844C39.0756 218.541 22.6144 285.107 32.2162 350.569Z" fill="white"/>
</mask>
<g mask="url(#mask0_1068_7251)">
<path opacity="0.1" d="M489.084 198.784C461.656 215.753 439.045 239.306 416.28 262.154C402.228 276.258 387.366 290.594 368.607 297.261C354.687 302.209 339.566 302.558 324.814 301.775C299.259 300.419 273.879 295.814 249.477 288.105C219.702 278.7 191.462 264.728 161.367 256.399C116.995 244.118 69.1621 244.623 25.059 257.837C23.69 292.506 22.119 327.256 20.75 361.925C59.3466 364.896 98.0838 360.831 136.725 358.508C274.138 350.246 411.667 363.984 549.135 359.213C567.059 358.591 585.426 358.477 603.236 356.262C603.87 353.294 603.567 349.836 603.65 346.79C603.744 343.354 603.813 339.917 603.857 336.48C603.945 329.606 603.935 322.73 603.826 315.857C603.609 302.109 602.998 288.367 601.994 274.654C600.328 251.891 597.581 229.207 593.759 206.705C592.712 200.544 591.534 194.344 589.317 188.48C587.902 184.736 586.093 179.771 581.894 178.416C578.157 177.21 573.406 177.583 569.519 177.202C563.496 176.611 557.422 176.591 551.391 177.072C529.239 178.838 507.876 187.158 489.084 198.784Z" fill="#3C94F8"/>
</g>
<path d="M390.087 205.599H139.227C136.508 205.599 134.305 203.396 134.305 200.677V34.5626C134.305 31.844 136.508 29.6404 139.227 29.6404H390.087C392.806 29.6404 395.009 31.844 395.009 34.5626V200.677C395.009 203.396 392.806 205.599 390.087 205.599Z" fill="#CCE6FF"/>
<mask id="mask1_1068_7251" style="mask-type:luminance" maskUnits="userSpaceOnUse" x="134" y="29" width="262" height="177">
<path d="M390.087 205.599H139.227C136.508 205.599 134.305 203.396 134.305 200.677V34.5626C134.305 31.844 136.508 29.6404 139.227 29.6404H390.087C392.806 29.6404 395.009 31.844 395.009 34.5626V200.677C395.009 203.396 392.806 205.599 390.087 205.599Z" fill="white"/>
</mask>
<g mask="url(#mask1_1068_7251)">
<path d="M406.825 19.6377H121.477V48.8478H406.825V19.6377Z" fill="#102A54"/>
</g>
<path d="M148.105 43.6257C150.075 43.6257 151.671 42.0292 151.671 40.0597C151.671 38.0902 150.075 36.4937 148.105 36.4937C146.136 36.4937 144.539 38.0902 144.539 40.0597C144.539 42.0292 146.136 43.6257 148.105 43.6257Z" fill="#3C94F8"/>
<path d="M161.058 43.6257C163.028 43.6257 164.624 42.0292 164.624 40.0597C164.624 38.0902 163.028 36.4937 161.058 36.4937C159.089 36.4937 157.492 38.0902 157.492 40.0597C157.492 42.0292 159.089 43.6257 161.058 43.6257Z" fill="white"/>
<path d="M174.011 43.6257C175.981 43.6257 177.577 42.0292 177.577 40.0597C177.577 38.0902 175.981 36.4937 174.011 36.4937C172.042 36.4937 170.445 38.0902 170.445 40.0597C170.445 42.0292 172.042 43.6257 174.011 43.6257Z" fill="white"/>
<path d="M386.714 203.916H138.436C134.84 203.916 131.914 200.99 131.914 197.394V33.8624C131.914 30.2659 134.84 27.3401 138.436 27.3401H386.714C390.31 27.3401 393.236 30.2659 393.236 33.8624V197.394C393.236 200.99 390.31 203.916 386.714 203.916ZM138.436 27.9575C135.18 27.9575 132.531 30.6065 132.531 33.8624V197.394C132.531 200.65 135.18 203.299 138.436 203.299H386.714C389.97 203.299 392.619 200.65 392.619 197.394V33.8624C392.619 30.6065 389.97 27.9575 386.714 27.9575H138.436Z" fill="#102A54"/>
<path d="M213.543 188.567H148.427C147.026 188.567 145.891 187.431 145.891 186.031V67.129C145.891 65.7284 147.026 64.593 148.427 64.593H213.543C214.944 64.593 216.079 65.7284 216.079 67.129V186.031C216.079 187.431 214.944 188.567 213.543 188.567Z" fill="#F4F7FD"/>
<path d="M176.257 105.104H151.297C150.654 105.104 150.133 104.583 150.133 103.94V71.4648C150.133 70.8219 150.654 70.3008 151.297 70.3008H176.257C176.899 70.3008 177.421 70.8219 177.421 71.4648V103.941C177.421 104.583 176.899 105.104 176.257 105.104Z" fill="#CCE6FF"/>
<path d="M184.391 74.66C185.594 74.66 186.57 73.6841 186.57 72.4804C186.57 71.2766 185.594 70.3008 184.391 70.3008C183.187 70.3008 182.211 71.2766 182.211 72.4804C182.211 73.6841 183.187 74.66 184.391 74.66Z" fill="#CCE6FF"/>
<path d="M211.89 71.698H190.97C190.712 71.698 190.504 71.4896 190.504 71.2323C190.504 70.9751 190.712 70.7666 190.97 70.7666H211.89C212.147 70.7666 212.356 70.9751 212.356 71.2323C212.356 71.4896 212.147 71.698 211.89 71.698Z" fill="#CCE6FF"/>
<path d="M211.89 74.1941H190.97C190.712 74.1941 190.504 73.9857 190.504 73.7284C190.504 73.4712 190.712 73.2627 190.97 73.2627H211.89C212.147 73.2627 212.356 73.4712 212.356 73.7284C212.356 73.9857 212.147 74.1941 211.89 74.1941Z" fill="#CCE6FF"/>
<path d="M211.89 76.6907H190.97C190.712 76.6907 190.504 76.4822 190.504 76.225C190.504 75.9677 190.712 75.7593 190.97 75.7593H211.89C212.147 75.7593 212.356 75.9677 212.356 76.225C212.356 76.4822 212.147 76.6907 211.89 76.6907Z" fill="#CCE6FF"/>
<path d="M186.536 81.9599C186.759 80.7771 185.981 79.6371 184.798 79.4137C183.616 79.1903 182.476 79.968 182.252 81.1508C182.029 82.3336 182.807 83.4736 183.989 83.697C185.172 83.9204 186.312 83.1427 186.536 81.9599Z" fill="#CCE6FF"/>
<path d="M211.894 80.7647H190.974C190.716 80.7647 190.508 80.5562 190.508 80.299C190.508 80.0417 190.716 79.8333 190.974 79.8333H211.894C212.151 79.8333 212.36 80.0417 212.36 80.299C212.359 80.556 212.151 80.7647 211.894 80.7647Z" fill="#CCE6FF"/>
<path d="M211.894 83.261H190.974C190.716 83.261 190.508 83.0526 190.508 82.7953C190.508 82.5381 190.716 82.3296 190.974 82.3296H211.894C212.151 82.3296 212.36 82.5381 212.36 82.7953C212.359 83.0526 212.151 83.261 211.894 83.261Z" fill="#CCE6FF"/>
<path d="M211.894 85.7574H190.974C190.716 85.7574 190.508 85.5489 190.508 85.2916C190.508 85.0344 190.716 84.8259 190.974 84.8259H211.894C212.151 84.8259 212.36 85.0344 212.36 85.2916C212.359 85.5487 212.151 85.7574 211.894 85.7574Z" fill="#CCE6FF"/>
<path d="M186.536 91.0268C186.759 89.844 185.981 88.704 184.798 88.4806C183.616 88.2572 182.476 89.0349 182.252 90.2177C182.029 91.4005 182.807 92.5405 183.989 92.7639C185.172 92.9873 186.312 92.2096 186.536 91.0268Z" fill="#CCE6FF"/>
<path d="M211.894 89.8313H190.974C190.716 89.8313 190.508 89.6229 190.508 89.3656C190.508 89.1084 190.716 88.8999 190.974 88.8999H211.894C212.151 88.8999 212.36 89.1084 212.36 89.3656C212.359 89.6229 212.151 89.8313 211.894 89.8313Z" fill="#CCE6FF"/>
<path d="M211.894 92.3277H190.974C190.716 92.3277 190.508 92.1192 190.508 91.862C190.508 91.6047 190.716 91.3962 190.974 91.3962H211.894C212.151 91.3962 212.36 91.6047 212.36 91.862C212.359 92.1192 212.151 92.3277 211.894 92.3277Z" fill="#CCE6FF"/>
<path d="M211.894 94.824H190.974C190.716 94.824 190.508 94.6155 190.508 94.3583C190.508 94.101 190.716 93.8926 190.974 93.8926H211.894C212.151 93.8926 212.36 94.101 212.36 94.3583C212.359 94.6155 212.151 94.824 211.894 94.824Z" fill="#CCE6FF"/>
<path d="M185.51 101.56C186.547 100.949 186.892 99.6123 186.28 98.5754C185.669 97.5385 184.332 97.1936 183.295 97.8051C182.259 98.4166 181.914 99.7529 182.525 100.79C183.137 101.827 184.473 102.172 185.51 101.56Z" fill="#CCE6FF"/>
<path d="M211.894 98.898H190.974C190.716 98.898 190.508 98.6895 190.508 98.4323C190.508 98.175 190.716 97.9666 190.974 97.9666H211.894C212.151 97.9666 212.36 98.175 212.36 98.4323C212.359 98.6895 212.151 98.898 211.894 98.898Z" fill="#CCE6FF"/>
<path d="M211.894 101.394H190.974C190.716 101.394 190.508 101.186 190.508 100.929C190.508 100.671 190.716 100.463 190.974 100.463H211.894C212.151 100.463 212.36 100.671 212.36 100.929C212.359 101.186 212.151 101.394 211.894 101.394Z" fill="#CCE6FF"/>
<path d="M211.894 103.891H190.974C190.716 103.891 190.508 103.682 190.508 103.425C190.508 103.168 190.716 102.959 190.974 102.959H211.894C212.151 102.959 212.36 103.168 212.36 103.425C212.359 103.682 212.151 103.891 211.894 103.891Z" fill="#CCE6FF"/>
<path d="M175.995 143.563H151.035C150.392 143.563 149.871 143.042 149.871 142.399V109.923C149.871 109.28 150.392 108.759 151.035 108.759H175.995C176.638 108.759 177.159 109.28 177.159 109.923V142.399C177.159 143.042 176.638 143.563 175.995 143.563Z" fill="#CCE6FF"/>
<path d="M184.133 113.118C185.336 113.118 186.312 112.143 186.312 110.939C186.312 109.735 185.336 108.759 184.133 108.759C182.929 108.759 181.953 109.735 181.953 110.939C181.953 112.143 182.929 113.118 184.133 113.118Z" fill="#CCE6FF"/>
<path d="M211.632 110.156H190.712C190.455 110.156 190.246 109.948 190.246 109.691C190.246 109.433 190.455 109.225 190.712 109.225H211.632C211.889 109.225 212.098 109.433 212.098 109.691C212.098 109.948 211.889 110.156 211.632 110.156Z" fill="#CCE6FF"/>
<path d="M211.632 112.653H190.712C190.455 112.653 190.246 112.444 190.246 112.187C190.246 111.93 190.455 111.721 190.712 111.721H211.632C211.889 111.721 212.098 111.93 212.098 112.187C212.098 112.444 211.889 112.653 211.632 112.653Z" fill="#CCE6FF"/>
<path d="M211.632 115.149H190.712C190.455 115.149 190.246 114.94 190.246 114.683C190.246 114.426 190.455 114.218 190.712 114.218H211.632C211.889 114.218 212.098 114.426 212.098 114.683C212.098 114.94 211.889 115.149 211.632 115.149Z" fill="#CCE6FF"/>
<path d="M186.25 120.5C186.525 119.328 185.798 118.155 184.627 117.88C183.455 117.605 182.282 118.331 182.006 119.503C181.731 120.675 182.458 121.848 183.63 122.123C184.801 122.399 185.975 121.672 186.25 120.5Z" fill="#CCE6FF"/>
<path d="M211.632 119.223H190.712C190.455 119.223 190.246 119.014 190.246 118.757C190.246 118.5 190.455 118.292 190.712 118.292H211.632C211.889 118.292 212.098 118.5 212.098 118.757C212.098 119.014 211.889 119.223 211.632 119.223Z" fill="#CCE6FF"/>
<path d="M211.632 121.719H190.712C190.455 121.719 190.246 121.511 190.246 121.254C190.246 120.996 190.455 120.788 190.712 120.788H211.632C211.889 120.788 212.098 120.996 212.098 121.254C212.098 121.511 211.889 121.719 211.632 121.719Z" fill="#CCE6FF"/>
<path d="M211.632 124.216H190.712C190.455 124.216 190.246 124.007 190.246 123.75C190.246 123.493 190.455 123.284 190.712 123.284H211.632C211.889 123.284 212.098 123.493 212.098 123.75C212.098 124.007 211.889 124.216 211.632 124.216Z" fill="#CCE6FF"/>
<path d="M186.25 129.567C186.525 128.395 185.798 127.222 184.627 126.946C183.455 126.671 182.282 127.398 182.006 128.57C181.731 129.742 182.458 130.915 183.63 131.19C184.801 131.465 185.975 130.739 186.25 129.567Z" fill="#CCE6FF"/>
<path d="M211.632 128.29H190.712C190.455 128.29 190.246 128.081 190.246 127.824C190.246 127.567 190.455 127.358 190.712 127.358H211.632C211.889 127.358 212.098 127.567 212.098 127.824C212.098 128.081 211.889 128.29 211.632 128.29Z" fill="#CCE6FF"/>
<path d="M211.632 130.786H190.712C190.455 130.786 190.246 130.577 190.246 130.32C190.246 130.063 190.455 129.854 190.712 129.854H211.632C211.889 129.854 212.098 130.063 212.098 130.32C212.098 130.577 211.889 130.786 211.632 130.786Z" fill="#CCE6FF"/>
<path d="M211.632 133.283H190.712C190.455 133.283 190.246 133.074 190.246 132.817C190.246 132.56 190.455 132.351 190.712 132.351H211.632C211.889 132.351 212.098 132.56 212.098 132.817C212.098 133.074 211.889 133.283 211.632 133.283Z" fill="#CCE6FF"/>
<path d="M185.67 139.681C186.522 138.829 186.522 137.449 185.67 136.598C184.819 135.747 183.439 135.747 182.588 136.598C181.737 137.449 181.737 138.829 182.588 139.681C183.439 140.532 184.819 140.532 185.67 139.681Z" fill="#CCE6FF"/>
<path d="M211.632 137.356H190.712C190.455 137.356 190.246 137.148 190.246 136.891C190.246 136.634 190.455 136.425 190.712 136.425H211.632C211.889 136.425 212.098 136.634 212.098 136.891C212.098 137.148 211.889 137.356 211.632 137.356Z" fill="#CCE6FF"/>
<path d="M211.632 139.853H190.712C190.455 139.853 190.246 139.644 190.246 139.387C190.246 139.13 190.455 138.921 190.712 138.921H211.632C211.889 138.921 212.098 139.13 212.098 139.387C212.098 139.644 211.889 139.853 211.632 139.853Z" fill="#CCE6FF"/>
<path d="M211.632 142.349H190.712C190.455 142.349 190.246 142.141 190.246 141.883C190.246 141.626 190.455 141.418 190.712 141.418H211.632C211.889 141.418 212.098 141.626 212.098 141.883C212.098 142.141 211.889 142.349 211.632 142.349Z" fill="#CCE6FF"/>
<path d="M175.737 182.021H150.777C150.134 182.021 149.613 181.5 149.613 180.857V148.382C149.613 147.739 150.134 147.218 150.777 147.218H175.737C176.38 147.218 176.901 147.739 176.901 148.382V180.857C176.901 181.5 176.38 182.021 175.737 182.021Z" fill="#CCE6FF"/>
<path d="M183.875 151.577C185.079 151.577 186.054 150.601 186.054 149.397C186.054 148.193 185.079 147.218 183.875 147.218C182.671 147.218 181.695 148.193 181.695 149.397C181.695 150.601 182.671 151.577 183.875 151.577Z" fill="#CCE6FF"/>
<path d="M211.374 148.615H190.454C190.197 148.615 189.988 148.406 189.988 148.149C189.988 147.892 190.197 147.683 190.454 147.683H211.374C211.632 147.683 211.84 147.892 211.84 148.149C211.84 148.406 211.632 148.615 211.374 148.615Z" fill="#CCE6FF"/>
<path d="M211.374 151.111H190.454C190.197 151.111 189.988 150.902 189.988 150.645C189.988 150.388 190.197 150.179 190.454 150.179H211.374C211.632 150.179 211.84 150.388 211.84 150.645C211.84 150.902 211.632 151.111 211.374 151.111Z" fill="#CCE6FF"/>
<path d="M211.374 153.607H190.454C190.197 153.607 189.988 153.399 189.988 153.142C189.988 152.884 190.197 152.676 190.454 152.676H211.374C211.632 152.676 211.84 152.884 211.84 153.142C211.84 153.399 211.632 153.607 211.374 153.607Z" fill="#CCE6FF"/>
<path d="M185.992 158.958C186.267 157.786 185.541 156.613 184.369 156.338C183.197 156.062 182.024 156.789 181.748 157.961C181.473 159.133 182.2 160.306 183.372 160.581C184.544 160.857 185.717 160.13 185.992 158.958Z" fill="#CCE6FF"/>
<path d="M211.374 157.681H190.454C190.197 157.681 189.988 157.473 189.988 157.215C189.988 156.958 190.197 156.75 190.454 156.75H211.374C211.632 156.75 211.84 156.958 211.84 157.215C211.84 157.473 211.632 157.681 211.374 157.681Z" fill="#CCE6FF"/>
<path d="M211.374 160.178H190.454C190.197 160.178 189.988 159.969 189.988 159.712C189.988 159.455 190.197 159.246 190.454 159.246H211.374C211.632 159.246 211.84 159.455 211.84 159.712C211.84 159.969 211.632 160.178 211.374 160.178Z" fill="#CCE6FF"/>
<path d="M211.374 162.674H190.454C190.197 162.674 189.988 162.465 189.988 162.208C189.988 161.951 190.197 161.742 190.454 161.742H211.374C211.632 161.742 211.84 161.951 211.84 162.208C211.84 162.465 211.632 162.674 211.374 162.674Z" fill="#CCE6FF"/>
<path d="M185.996 168.025C186.271 166.853 185.545 165.68 184.373 165.404C183.201 165.129 182.028 165.856 181.752 167.028C181.477 168.199 182.204 169.373 183.376 169.648C184.548 169.923 185.721 169.196 185.996 168.025Z" fill="#CCE6FF"/>
<path d="M211.378 166.748H190.458C190.201 166.748 189.992 166.54 189.992 166.282C189.992 166.025 190.201 165.817 190.458 165.817H211.378C211.636 165.817 211.844 166.025 211.844 166.282C211.844 166.54 211.636 166.748 211.378 166.748Z" fill="#CCE6FF"/>
<path d="M211.378 169.245H190.458C190.201 169.245 189.992 169.036 189.992 168.779C189.992 168.522 190.201 168.313 190.458 168.313H211.378C211.636 168.313 211.844 168.522 211.844 168.779C211.844 169.036 211.636 169.245 211.378 169.245Z" fill="#CCE6FF"/>
<path d="M211.378 171.741H190.458C190.201 171.741 189.992 171.533 189.992 171.275C189.992 171.018 190.201 170.81 190.458 170.81H211.378C211.636 170.81 211.844 171.018 211.844 171.275C211.844 171.533 211.636 171.741 211.378 171.741Z" fill="#CCE6FF"/>
<path d="M185.413 178.139C186.264 177.287 186.264 175.907 185.413 175.056C184.561 174.205 183.181 174.205 182.33 175.056C181.479 175.907 181.479 177.287 182.33 178.139C183.181 178.99 184.561 178.99 185.413 178.139Z" fill="#CCE6FF"/>
<path d="M211.374 175.815H190.454C190.197 175.815 189.988 175.606 189.988 175.349C189.988 175.092 190.197 174.883 190.454 174.883H211.374C211.632 174.883 211.84 175.092 211.84 175.349C211.84 175.606 211.632 175.815 211.374 175.815Z" fill="#CCE6FF"/>
<path d="M211.374 178.311H190.454C190.197 178.311 189.988 178.103 189.988 177.846C189.988 177.588 190.197 177.38 190.454 177.38H211.374C211.632 177.38 211.84 177.588 211.84 177.846C211.84 178.103 211.632 178.311 211.374 178.311Z" fill="#CCE6FF"/>
<path d="M211.374 180.808H190.454C190.197 180.808 189.988 180.599 189.988 180.342C189.988 180.085 190.197 179.876 190.454 179.876H211.374C211.632 179.876 211.84 180.085 211.84 180.342C211.84 180.599 211.632 180.808 211.374 180.808Z" fill="#CCE6FF"/>
<path d="M172.005 88.35H155.132C154.595 88.35 154.16 87.9151 154.16 87.3786V74.1498C154.16 73.6133 154.595 73.1785 155.132 73.1785H172.005C172.542 73.1785 172.977 73.6133 172.977 74.1498V87.3788C172.977 87.9151 172.542 88.35 172.005 88.35Z" fill="#F4F7FD"/>
<path d="M172.398 91.8619H154.739C154.419 91.8619 154.16 91.6028 154.16 91.2832V91.1922C154.16 90.8726 154.419 90.6135 154.739 90.6135H172.398C172.718 90.6135 172.977 90.8726 172.977 91.1922V91.2832C172.977 91.6028 172.718 91.8619 172.398 91.8619Z" fill="#F4F7FD"/>
<path d="M172.398 94.5167H154.739C154.419 94.5167 154.16 94.2576 154.16 93.938V93.847C154.16 93.5274 154.419 93.2683 154.739 93.2683H172.398C172.718 93.2683 172.977 93.5274 172.977 93.847V93.938C172.977 94.2576 172.718 94.5167 172.398 94.5167Z" fill="#F4F7FD"/>
<path d="M172.398 97.1715H154.739C154.419 97.1715 154.16 96.9124 154.16 96.5927V96.5018C154.16 96.1822 154.419 95.9231 154.739 95.9231H172.398C172.718 95.9231 172.977 96.1822 172.977 96.5018V96.5927C172.977 96.9126 172.718 97.1715 172.398 97.1715Z" fill="#F4F7FD"/>
<path d="M172.398 99.8265H154.739C154.419 99.8265 154.16 99.5674 154.16 99.2478V99.1568C154.16 98.8372 154.419 98.5781 154.739 98.5781H172.398C172.718 98.5781 172.977 98.8372 172.977 99.1568V99.2478C172.977 99.5674 172.718 99.8265 172.398 99.8265Z" fill="#F4F7FD"/>
<path d="M172.398 102.481H154.739C154.419 102.481 154.16 102.222 154.16 101.903V101.812C154.16 101.492 154.419 101.233 154.739 101.233H172.398C172.718 101.233 172.977 101.492 172.977 101.812V101.903C172.977 102.222 172.718 102.481 172.398 102.481Z" fill="#F4F7FD"/>
<path d="M172.005 126.681H155.132C154.595 126.681 154.16 126.246 154.16 125.71V112.481C154.16 111.945 154.595 111.51 155.132 111.51H172.005C172.542 111.51 172.977 111.945 172.977 112.481V125.71C172.977 126.246 172.542 126.681 172.005 126.681Z" fill="#F4F7FD"/>
<path d="M172.398 130.193H154.739C154.419 130.193 154.16 129.934 154.16 129.614V129.524C154.16 129.204 154.419 128.945 154.739 128.945H172.398C172.718 128.945 172.977 129.204 172.977 129.524V129.614C172.977 129.934 172.718 130.193 172.398 130.193Z" fill="#F4F7FD"/>
<path d="M172.398 132.848H154.739C154.419 132.848 154.16 132.589 154.16 132.269V132.178C154.16 131.859 154.419 131.6 154.739 131.6H172.398C172.718 131.6 172.977 131.859 172.977 132.178V132.269C172.977 132.589 172.718 132.848 172.398 132.848Z" fill="#F4F7FD"/>
<path d="M172.398 135.503H154.739C154.419 135.503 154.16 135.244 154.16 134.924V134.833C154.16 134.514 154.419 134.255 154.739 134.255H172.398C172.718 134.255 172.977 134.514 172.977 134.833V134.924C172.977 135.244 172.718 135.503 172.398 135.503Z" fill="#F4F7FD"/>
<path d="M172.398 138.158H154.739C154.419 138.158 154.16 137.899 154.16 137.579V137.488C154.16 137.169 154.419 136.909 154.739 136.909H172.398C172.718 136.909 172.977 137.169 172.977 137.488V137.579C172.977 137.899 172.718 138.158 172.398 138.158Z" fill="#F4F7FD"/>
<path d="M172.398 140.813H154.739C154.419 140.813 154.16 140.553 154.16 140.234V140.143C154.16 139.823 154.419 139.564 154.739 139.564H172.398C172.718 139.564 172.977 139.823 172.977 140.143V140.234C172.977 140.553 172.718 140.813 172.398 140.813Z" fill="#F4F7FD"/>
<path d="M172.005 165.012H155.132C154.595 165.012 154.16 164.577 154.16 164.041V150.812C154.16 150.275 154.595 149.841 155.132 149.841H172.005C172.542 149.841 172.977 150.275 172.977 150.812V164.041C172.977 164.577 172.542 165.012 172.005 165.012Z" fill="#F4F7FD"/>
<path d="M172.398 168.524H154.739C154.419 168.524 154.16 168.265 154.16 167.945V167.854C154.16 167.535 154.419 167.276 154.739 167.276H172.398C172.718 167.276 172.977 167.535 172.977 167.854V167.945C172.977 168.265 172.718 168.524 172.398 168.524Z" fill="#F4F7FD"/>
<path d="M172.398 171.179H154.739C154.419 171.179 154.16 170.92 154.16 170.6V170.509C154.16 170.19 154.419 169.93 154.739 169.93H172.398C172.718 169.93 172.977 170.19 172.977 170.509V170.6C172.977 170.92 172.718 171.179 172.398 171.179Z" fill="#F4F7FD"/>
<path d="M172.398 173.834H154.739C154.419 173.834 154.16 173.574 154.16 173.255V173.164C154.16 172.844 154.419 172.585 154.739 172.585H172.398C172.718 172.585 172.977 172.844 172.977 173.164V173.255C172.977 173.575 172.718 173.834 172.398 173.834Z" fill="#F4F7FD"/>
<path d="M172.398 176.489H154.739C154.419 176.489 154.16 176.23 154.16 175.91V175.819C154.16 175.499 154.419 175.24 154.739 175.24H172.398C172.718 175.24 172.977 175.499 172.977 175.819V175.91C172.977 176.23 172.718 176.489 172.398 176.489Z" fill="#F4F7FD"/>
<path d="M172.398 179.143H154.739C154.419 179.143 154.16 178.884 154.16 178.565V178.474C154.16 178.154 154.419 177.895 154.739 177.895H172.398C172.718 177.895 172.977 178.154 172.977 178.474V178.565C172.977 178.884 172.718 179.143 172.398 179.143Z" fill="#F4F7FD"/>
<path d="M376.719 188.567H311.602C310.202 188.567 309.066 187.431 309.066 186.031V67.129C309.066 65.7284 310.202 64.593 311.602 64.593H376.719C378.119 64.593 379.255 65.7284 379.255 67.129V186.031C379.255 187.431 378.119 188.567 376.719 188.567Z" fill="#F4F7FD"/>
<path d="M373.053 70.3055H352.681C352.309 70.3055 352.008 70.0043 352.008 69.6324C352.008 69.2607 352.309 68.9592 352.681 68.9592H373.053C373.424 68.9592 373.726 69.2605 373.726 69.6324C373.725 70.0041 373.424 70.3055 373.053 70.3055Z" fill="#CCE6FF"/>
<path d="M373.053 73.3839H352.681C352.309 73.3839 352.008 73.0826 352.008 72.7108C352.008 72.3391 352.309 72.0376 352.681 72.0376H373.053C373.424 72.0376 373.726 72.3389 373.726 72.7108C373.725 73.0826 373.424 73.3839 373.053 73.3839Z" fill="#CCE6FF"/>
<path d="M373.053 76.4625H352.681C352.309 76.4625 352.008 76.1612 352.008 75.7894C352.008 75.4177 352.309 75.1162 352.681 75.1162H373.053C373.424 75.1162 373.726 75.4175 373.726 75.7894C373.725 76.1612 373.424 76.4625 373.053 76.4625Z" fill="#CCE6FF"/>
<path d="M373.053 79.5411H352.681C352.309 79.5411 352.008 79.2399 352.008 78.868C352.008 78.4963 352.309 78.1948 352.681 78.1948H373.053C373.424 78.1948 373.726 78.4961 373.726 78.868C373.725 79.2399 373.424 79.5411 373.053 79.5411Z" fill="#CCE6FF"/>
<path d="M373.053 82.6198H352.681C352.309 82.6198 352.008 82.3185 352.008 81.9466C352.008 81.5749 352.309 81.2734 352.681 81.2734H373.053C373.424 81.2734 373.726 81.5747 373.726 81.9466C373.725 82.3185 373.424 82.6198 373.053 82.6198Z" fill="#CCE6FF"/>
<path d="M373.053 85.6984H352.681C352.309 85.6984 352.008 85.3971 352.008 85.0252C352.008 84.6535 352.309 84.3521 352.681 84.3521H373.053C373.424 84.3521 373.726 84.6533 373.726 85.0252C373.725 85.3969 373.424 85.6984 373.053 85.6984Z" fill="#CCE6FF"/>
<path d="M373.053 88.777H352.681C352.309 88.777 352.008 88.4757 352.008 88.1038C352.008 87.7322 352.309 87.4307 352.681 87.4307H373.053C373.424 87.4307 373.726 87.7319 373.726 88.1038C373.725 88.4757 373.424 88.777 373.053 88.777Z" fill="#CCE6FF"/>
<path d="M373.053 147.311H352.681C352.309 147.311 352.008 147.01 352.008 146.638C352.008 146.267 352.309 145.965 352.681 145.965H373.053C373.424 145.965 373.726 146.266 373.726 146.638C373.725 147.01 373.424 147.311 373.053 147.311Z" fill="#CCE6FF"/>
<path d="M373.053 150.39H352.681C352.309 150.39 352.008 150.089 352.008 149.717C352.008 149.345 352.309 149.044 352.681 149.044H373.053C373.424 149.044 373.726 149.345 373.726 149.717C373.725 150.089 373.424 150.39 373.053 150.39Z" fill="#CCE6FF"/>
<path d="M373.053 153.469H352.681C352.309 153.469 352.008 153.167 352.008 152.795C352.008 152.424 352.309 152.122 352.681 152.122H373.053C373.424 152.122 373.726 152.424 373.726 152.795C373.725 153.167 373.424 153.469 373.053 153.469Z" fill="#CCE6FF"/>
<path d="M373.053 156.547H352.681C352.309 156.547 352.008 156.246 352.008 155.874C352.008 155.502 352.309 155.201 352.681 155.201H373.053C373.424 155.201 373.726 155.502 373.726 155.874C373.725 156.246 373.424 156.547 373.053 156.547Z" fill="#CCE6FF"/>
<path d="M373.053 159.626H352.681C352.309 159.626 352.008 159.324 352.008 158.952C352.008 158.581 352.309 158.279 352.681 158.279H373.053C373.424 158.279 373.726 158.581 373.726 158.952C373.725 159.324 373.424 159.626 373.053 159.626Z" fill="#CCE6FF"/>
<path d="M373.053 162.704H352.681C352.309 162.704 352.008 162.403 352.008 162.031C352.008 161.66 352.309 161.358 352.681 161.358H373.053C373.424 161.358 373.726 161.659 373.726 162.031C373.725 162.403 373.424 162.704 373.053 162.704Z" fill="#CCE6FF"/>
<path d="M373.053 165.783H352.681C352.309 165.783 352.008 165.482 352.008 165.11C352.008 164.738 352.309 164.437 352.681 164.437H373.053C373.424 164.437 373.726 164.738 373.726 165.11C373.725 165.482 373.424 165.783 373.053 165.783Z" fill="#CCE6FF"/>
<path d="M373.053 169.239H352.681C352.309 169.239 352.008 168.938 352.008 168.566C352.008 168.194 352.309 167.893 352.681 167.893H373.053C373.424 167.893 373.726 168.194 373.726 168.566C373.725 168.938 373.424 169.239 373.053 169.239Z" fill="#CCE6FF"/>
<path d="M373.053 172.318H352.681C352.309 172.318 352.008 172.016 352.008 171.644C352.008 171.273 352.309 170.971 352.681 170.971H373.053C373.424 170.971 373.726 171.272 373.726 171.644C373.725 172.016 373.424 172.318 373.053 172.318Z" fill="#CCE6FF"/>
<path d="M373.053 175.396H352.681C352.309 175.396 352.008 175.095 352.008 174.723C352.008 174.351 352.309 174.05 352.681 174.05H373.053C373.424 174.05 373.726 174.351 373.726 174.723C373.725 175.095 373.424 175.396 373.053 175.396Z" fill="#CCE6FF"/>
<path d="M373.053 178.475H352.681C352.309 178.475 352.008 178.173 352.008 177.802C352.008 177.43 352.309 177.128 352.681 177.128H373.053C373.424 177.128 373.726 177.43 373.726 177.802C373.725 178.173 373.424 178.475 373.053 178.475Z" fill="#CCE6FF"/>
<path d="M373.053 181.553H352.681C352.309 181.553 352.008 181.252 352.008 180.88C352.008 180.509 352.309 180.207 352.681 180.207H373.053C373.424 180.207 373.726 180.508 373.726 180.88C373.725 181.252 373.424 181.553 373.053 181.553Z" fill="#CCE6FF"/>
<path d="M373.053 184.632H352.681C352.309 184.632 352.008 184.331 352.008 183.959C352.008 183.587 352.309 183.286 352.681 183.286H373.053C373.424 183.286 373.726 183.587 373.726 183.959C373.725 184.33 373.424 184.632 373.053 184.632Z" fill="#CCE6FF"/>
<path d="M373.053 91.8556H352.681C352.309 91.8556 352.008 91.5543 352.008 91.1824C352.008 90.8108 352.309 90.5093 352.681 90.5093H373.053C373.424 90.5093 373.726 90.8106 373.726 91.1824C373.725 91.5541 373.424 91.8556 373.053 91.8556Z" fill="#CCE6FF"/>
<path d="M373.053 94.9342H352.681C352.309 94.9342 352.008 94.6329 352.008 94.261C352.008 93.8894 352.309 93.5879 352.681 93.5879H373.053C373.424 93.5879 373.726 93.8892 373.726 94.261C373.725 94.6329 373.424 94.9342 373.053 94.9342Z" fill="#CCE6FF"/>
<path d="M373.053 98.0128H352.681C352.309 98.0128 352.008 97.7115 352.008 97.3397C352.008 96.968 352.309 96.6665 352.681 96.6665H373.053C373.424 96.6665 373.726 96.9678 373.726 97.3397C373.725 97.7113 373.424 98.0128 373.053 98.0128Z" fill="#CCE6FF"/>
<path d="M373.053 101.091H352.681C352.309 101.091 352.008 100.79 352.008 100.418C352.008 100.047 352.309 99.7451 352.681 99.7451H373.053C373.424 99.7451 373.726 100.046 373.726 100.418C373.725 100.79 373.424 101.091 373.053 101.091Z" fill="#CCE6FF"/>
<path d="M373.053 104.17H352.681C352.309 104.17 352.008 103.869 352.008 103.497C352.008 103.125 352.309 102.823 352.681 102.823H373.053C373.424 102.823 373.726 103.125 373.726 103.497C373.725 103.869 373.424 104.17 373.053 104.17Z" fill="#CCE6FF"/>
<path d="M373.053 107.249H352.681C352.309 107.249 352.008 106.947 352.008 106.576C352.008 106.204 352.309 105.902 352.681 105.902H373.053C373.424 105.902 373.726 106.204 373.726 106.576C373.725 106.947 373.424 107.249 373.053 107.249Z" fill="#CCE6FF"/>
<path d="M373.053 110.327H352.681C352.309 110.327 352.008 110.026 352.008 109.654C352.008 109.282 352.309 108.981 352.681 108.981H373.053C373.424 108.981 373.726 109.282 373.726 109.654C373.725 110.026 373.424 110.327 373.053 110.327Z" fill="#CCE6FF"/>
<path d="M373.053 113.406H352.681C352.309 113.406 352.008 113.105 352.008 112.733C352.008 112.361 352.309 112.06 352.681 112.06H373.053C373.424 112.06 373.726 112.361 373.726 112.733C373.725 113.105 373.424 113.406 373.053 113.406Z" fill="#CCE6FF"/>
<path d="M373.053 116.484H352.681C352.309 116.484 352.008 116.183 352.008 115.811C352.008 115.439 352.309 115.138 352.681 115.138H373.053C373.424 115.138 373.726 115.439 373.726 115.811C373.725 116.183 373.424 116.484 373.053 116.484Z" fill="#CCE6FF"/>
<path d="M345.518 123.457H315.267C314.895 123.457 314.594 123.156 314.594 122.784C314.594 122.412 314.895 122.111 315.267 122.111H345.518C345.889 122.111 346.191 122.412 346.191 122.784C346.191 123.156 345.89 123.457 345.518 123.457Z" fill="#CCE6FF"/>
<path d="M345.518 126.536H315.267C314.895 126.536 314.594 126.235 314.594 125.863C314.594 125.491 314.895 125.19 315.267 125.19H345.518C345.889 125.19 346.191 125.491 346.191 125.863C346.191 126.235 345.89 126.536 345.518 126.536Z" fill="#CCE6FF"/>
<path d="M345.518 129.614H315.267C314.895 129.614 314.594 129.313 314.594 128.941C314.594 128.57 314.895 128.268 315.267 128.268H345.518C345.889 128.268 346.191 128.569 346.191 128.941C346.191 129.313 345.89 129.614 345.518 129.614Z" fill="#CCE6FF"/>
<path d="M345.518 132.693H315.267C314.895 132.693 314.594 132.392 314.594 132.02C314.594 131.648 314.895 131.347 315.267 131.347H345.518C345.889 131.347 346.191 131.648 346.191 132.02C346.191 132.392 345.89 132.693 345.518 132.693Z" fill="#CCE6FF"/>
<path d="M345.518 135.772H315.267C314.895 135.772 314.594 135.47 314.594 135.098C314.594 134.727 314.895 134.425 315.267 134.425H345.518C345.889 134.425 346.191 134.727 346.191 135.098C346.191 135.47 345.89 135.772 345.518 135.772Z" fill="#CCE6FF"/>
<path d="M345.518 138.85H315.267C314.895 138.85 314.594 138.549 314.594 138.177C314.594 137.806 314.895 137.504 315.267 137.504H345.518C345.889 137.504 346.191 137.805 346.191 138.177C346.191 138.549 345.89 138.85 345.518 138.85Z" fill="#CCE6FF"/>
<path d="M345.518 141.929H315.267C314.895 141.929 314.594 141.628 314.594 141.256C314.594 140.884 314.895 140.583 315.267 140.583H345.518C345.889 140.583 346.191 140.884 346.191 141.256C346.191 141.628 345.89 141.929 345.518 141.929Z" fill="#CCE6FF"/>
<path d="M345.518 145.008H315.267C314.895 145.008 314.594 144.706 314.594 144.335C314.594 143.963 314.895 143.661 315.267 143.661H345.518C345.889 143.661 346.191 143.963 346.191 144.335C346.191 144.706 345.89 145.008 345.518 145.008Z" fill="#CCE6FF"/>
<path d="M345.518 148.086H315.267C314.895 148.086 314.594 147.785 314.594 147.413C314.594 147.041 314.895 146.74 315.267 146.74H345.518C345.889 146.74 346.191 147.041 346.191 147.413C346.191 147.785 345.89 148.086 345.518 148.086Z" fill="#CCE6FF"/>
<path d="M345.518 151.165H315.267C314.895 151.165 314.594 150.864 314.594 150.492C314.594 150.12 314.895 149.819 315.267 149.819H345.518C345.889 149.819 346.191 150.12 346.191 150.492C346.191 150.863 345.89 151.165 345.518 151.165Z" fill="#CCE6FF"/>
<path d="M345.518 154.243H315.267C314.895 154.243 314.594 153.942 314.594 153.57C314.594 153.198 314.895 152.897 315.267 152.897H345.518C345.889 152.897 346.191 153.198 346.191 153.57C346.191 153.942 345.89 154.243 345.518 154.243Z" fill="#CCE6FF"/>
<path d="M345.518 157.322H315.267C314.895 157.322 314.594 157.021 314.594 156.649C314.594 156.277 314.895 155.976 315.267 155.976H345.518C345.889 155.976 346.191 156.277 346.191 156.649C346.191 157.021 345.89 157.322 345.518 157.322Z" fill="#CCE6FF"/>
<path d="M345.518 160.401H315.267C314.895 160.401 314.594 160.099 314.594 159.727C314.594 159.356 314.895 159.054 315.267 159.054H345.518C345.889 159.054 346.191 159.355 346.191 159.727C346.191 160.099 345.89 160.401 345.518 160.401Z" fill="#CCE6FF"/>
<path d="M345.518 163.479H315.267C314.895 163.479 314.594 163.178 314.594 162.806C314.594 162.434 314.895 162.133 315.267 162.133H345.518C345.889 162.133 346.191 162.434 346.191 162.806C346.191 163.178 345.89 163.479 345.518 163.479Z" fill="#CCE6FF"/>
<path d="M345.518 166.558H315.267C314.895 166.558 314.594 166.256 314.594 165.885C314.594 165.513 314.895 165.211 315.267 165.211H345.518C345.889 165.211 346.191 165.513 346.191 165.885C346.191 166.256 345.89 166.558 345.518 166.558Z" fill="#CCE6FF"/>
<path d="M345.518 169.636H315.267C314.895 169.636 314.594 169.335 314.594 168.963C314.594 168.592 314.895 168.29 315.267 168.29H345.518C345.889 168.29 346.191 168.591 346.191 168.963C346.191 169.335 345.89 169.636 345.518 169.636Z" fill="#CCE6FF"/>
<path d="M345.518 172.512H315.267C314.895 172.512 314.594 172.21 314.594 171.838C314.594 171.467 314.895 171.165 315.267 171.165H345.518C345.889 171.165 346.191 171.467 346.191 171.838C346.191 172.21 345.89 172.512 345.518 172.512Z" fill="#CCE6FF"/>
<path d="M345.518 175.59H315.267C314.895 175.59 314.594 175.289 314.594 174.917C314.594 174.545 314.895 174.244 315.267 174.244H345.518C345.889 174.244 346.191 174.545 346.191 174.917C346.191 175.289 345.89 175.59 345.518 175.59Z" fill="#CCE6FF"/>
<path d="M345.518 178.669H315.267C314.895 178.669 314.594 178.368 314.594 177.996C314.594 177.624 314.895 177.323 315.267 177.323H345.518C345.889 177.323 346.191 177.624 346.191 177.996C346.191 178.368 345.89 178.669 345.518 178.669Z" fill="#CCE6FF"/>
<path d="M345.518 181.747H315.267C314.895 181.747 314.594 181.446 314.594 181.074C314.594 180.703 314.895 180.401 315.267 180.401H345.518C345.889 180.401 346.191 180.702 346.191 181.074C346.191 181.446 345.89 181.747 345.518 181.747Z" fill="#CCE6FF"/>
<path d="M345.518 184.826H315.267C314.895 184.826 314.594 184.525 314.594 184.153C314.594 183.781 314.895 183.48 315.267 183.48H345.518C345.889 183.48 346.191 183.781 346.191 184.153C346.191 184.525 345.89 184.826 345.518 184.826Z" fill="#CCE6FF"/>
<path d="M373.148 142.096H352.585C352.266 142.096 352.008 141.837 352.008 141.519V122.52C352.008 122.201 352.266 121.943 352.585 121.943H373.148C373.467 121.943 373.725 122.201 373.725 122.52V141.519C373.725 141.837 373.467 142.096 373.148 142.096Z" fill="#CCE6FF"/>
<path d="M345.412 116.484H315.372C314.942 116.484 314.594 116.136 314.594 115.706V69.738C314.594 69.3078 314.942 68.9592 315.372 68.9592H345.412C345.842 68.9592 346.191 69.3078 346.191 69.738V115.706C346.191 116.136 345.842 116.484 345.412 116.484Z" fill="#CCE6FF"/>
<path d="M342.747 85.6984H318.033C317.773 85.6984 317.562 85.4879 317.562 85.2284V72.3914C317.562 72.1319 317.773 71.9214 318.033 71.9214H342.747C343.007 71.9214 343.217 72.1319 343.217 72.3914V85.2284C343.217 85.4879 343.007 85.6984 342.747 85.6984Z" fill="#F4F7FD"/>
<path d="M342.747 101.15H318.033C317.773 101.15 317.562 100.939 317.562 100.68V87.8426C317.562 87.5831 317.773 87.3726 318.033 87.3726H342.747C343.007 87.3726 343.217 87.5831 343.217 87.8426V100.68C343.217 100.939 343.007 101.15 342.747 101.15Z" fill="#F4F7FD"/>
<path d="M329.231 114.261H317.97C317.745 114.261 317.562 114.079 317.562 113.853V103.232C317.562 103.007 317.745 102.824 317.97 102.824H329.231C329.456 102.824 329.638 103.007 329.638 103.232V113.853C329.638 114.079 329.456 114.261 329.231 114.261Z" fill="#F4F7FD"/>
<path d="M342.805 114.261H331.26C331.032 114.261 330.848 114.076 330.848 113.848V103.237C330.848 103.009 331.032 102.824 331.26 102.824H342.805C343.033 102.824 343.217 103.009 343.217 103.237V113.848C343.217 114.076 343.033 114.261 342.805 114.261Z" fill="#F4F7FD"/>
<path d="M295.133 188.567H230.016C228.616 188.567 227.48 187.431 227.48 186.031V67.129C227.48 65.7284 228.616 64.593 230.016 64.593H295.133C296.534 64.593 297.669 65.7284 297.669 67.129V186.031C297.669 187.431 296.534 188.567 295.133 188.567Z" fill="#F4F7FD"/>
<path d="M259.536 97.9664H234.211C233.566 97.9664 233.043 97.4433 233.043 96.7979V71.4737C233.043 70.8283 233.566 70.3052 234.211 70.3052H259.536C260.181 70.3052 260.704 70.8283 260.704 71.4737V96.7979C260.704 97.4433 260.181 97.9664 259.536 97.9664Z" fill="#CCE6FF"/>
<path d="M292.24 71.986H272.61C272.273 71.986 272 71.7127 272 71.3756V70.9158C272 70.5787 272.273 70.3054 272.61 70.3054H292.24C292.577 70.3054 292.85 70.5787 292.85 70.9158V71.3756C292.85 71.7127 292.577 71.986 292.24 71.986Z" fill="#CCE6FF"/>
<path d="M292.24 74.9174H272.61C272.273 74.9174 272 74.6441 272 74.307V73.8472C272 73.5101 272.273 73.2368 272.61 73.2368H292.24C292.577 73.2368 292.85 73.5101 292.85 73.8472V74.307C292.85 74.6441 292.577 74.9174 292.24 74.9174Z" fill="#CCE6FF"/>
<path d="M292.24 77.8487H272.61C272.273 77.8487 272 77.5754 272 77.2384V76.7786C272 76.4415 272.273 76.1682 272.61 76.1682H292.24C292.577 76.1682 292.85 76.4415 292.85 76.7786V77.2384C292.85 77.5754 292.577 77.8487 292.24 77.8487Z" fill="#CCE6FF"/>
<path d="M292.24 80.7801H272.61C272.273 80.7801 272 80.5068 272 80.1698V79.71C272 79.3729 272.273 79.0996 272.61 79.0996H292.24C292.577 79.0996 292.85 79.3729 292.85 79.71V80.1698C292.85 80.5068 292.577 80.7801 292.24 80.7801Z" fill="#CCE6FF"/>
<path d="M292.24 83.7115H272.61C272.273 83.7115 272 83.4382 272 83.1011V82.6414C272 82.3043 272.273 82.031 272.61 82.031H292.24C292.577 82.031 292.85 82.3043 292.85 82.6414V83.1011C292.85 83.4384 292.577 83.7115 292.24 83.7115Z" fill="#CCE6FF"/>
<path d="M292.24 86.6429H272.61C272.273 86.6429 272 86.3696 272 86.0325V85.5728C272 85.2357 272.273 84.9624 272.61 84.9624H292.24C292.577 84.9624 292.85 85.2357 292.85 85.5728V86.0325C292.85 86.3698 292.577 86.6429 292.24 86.6429Z" fill="#CCE6FF"/>
<path d="M292.24 89.5743H272.61C272.273 89.5743 272 89.301 272 88.9639V88.5042C272 88.1671 272.273 87.8938 272.61 87.8938H292.24C292.577 87.8938 292.85 88.1671 292.85 88.5042V88.9639C292.85 89.301 292.577 89.5743 292.24 89.5743Z" fill="#CCE6FF"/>
<path d="M292.24 92.5057H272.61C272.273 92.5057 272 92.2324 272 91.8953V91.4356C272 91.0985 272.273 90.8252 272.61 90.8252H292.24C292.577 90.8252 292.85 91.0985 292.85 91.4356V91.8953C292.85 92.2324 292.577 92.5057 292.24 92.5057Z" fill="#CCE6FF"/>
<path d="M292.24 95.4371H272.61C272.273 95.4371 272 95.1638 272 94.8267V94.367C272 94.0299 272.273 93.7566 272.61 93.7566H292.24C292.577 93.7566 292.85 94.0299 292.85 94.367V94.8267C292.85 95.1638 292.577 95.4371 292.24 95.4371Z" fill="#CCE6FF"/>
<path d="M292.24 98.3685H272.61C272.273 98.3685 272 98.0952 272 97.7581V97.2984C272 96.9613 272.273 96.688 272.61 96.688H292.24C292.577 96.688 292.85 96.9613 292.85 97.2984V97.7581C292.85 98.0952 292.577 98.3685 292.24 98.3685Z" fill="#CCE6FF"/>
<path d="M265.985 74.479C266.795 74.479 267.451 73.8228 267.451 73.0133C267.451 72.2038 266.795 71.5476 265.985 71.5476C265.176 71.5476 264.52 72.2038 264.52 73.0133C264.52 73.8228 265.176 74.479 265.985 74.479Z" fill="#CCE6FF"/>
<path d="M265.985 86.0036C266.795 86.0036 267.451 85.3474 267.451 84.5379C267.451 83.7285 266.795 83.0723 265.985 83.0723C265.176 83.0723 264.52 83.7285 264.52 84.5379C264.52 85.3474 265.176 86.0036 265.985 86.0036Z" fill="#CCE6FF"/>
<path d="M267.451 96.0624C267.451 96.8718 266.795 97.528 265.985 97.528C265.176 97.528 264.52 96.8718 264.52 96.0624C264.52 95.2528 265.176 94.5967 265.985 94.5967C266.795 94.5967 267.451 95.253 267.451 96.0624Z" fill="#CCE6FF"/>
<path d="M292.85 102.481H233.043V105.902H292.85V102.481Z" fill="#CCE6FF"/>
<path d="M292.85 108.414H233.043V111.835H292.85V108.414Z" fill="#CCE6FF"/>
<path d="M264.52 114.346H233.043V117.767H264.52V114.346Z" fill="#CCE6FF"/>
<path d="M292.395 124.216H233.498C233.247 124.216 233.043 124.012 233.043 123.761V122.64C233.043 122.389 233.247 122.185 233.498 122.185H292.395C292.646 122.185 292.85 122.389 292.85 122.64V123.761C292.85 124.012 292.646 124.216 292.395 124.216Z" fill="#CCE6FF"/>
<path d="M292.395 128.374H233.498C233.247 128.374 233.043 128.17 233.043 127.919V126.798C233.043 126.547 233.247 126.343 233.498 126.343H292.395C292.646 126.343 292.85 126.547 292.85 126.798V127.919C292.85 128.17 292.646 128.374 292.395 128.374Z" fill="#CCE6FF"/>
<path d="M292.395 132.532H233.498C233.247 132.532 233.043 132.328 233.043 132.077V130.956C233.043 130.705 233.247 130.501 233.498 130.501H292.395C292.646 130.501 292.85 130.705 292.85 130.956V132.077C292.85 132.328 292.646 132.532 292.395 132.532Z" fill="#CCE6FF"/>
<path d="M292.395 136.689H233.498C233.247 136.689 233.043 136.486 233.043 136.234V135.114C233.043 134.862 233.247 134.659 233.498 134.659H292.395C292.646 134.659 292.85 134.862 292.85 135.114V136.234C292.85 136.486 292.646 136.689 292.395 136.689Z" fill="#CCE6FF"/>
<path d="M292.395 140.847H233.498C233.247 140.847 233.043 140.644 233.043 140.392V139.272C233.043 139.02 233.247 138.817 233.498 138.817H292.395C292.646 138.817 292.85 139.02 292.85 139.272V140.392C292.85 140.644 292.646 140.847 292.395 140.847Z" fill="#CCE6FF"/>
<path d="M292.395 145.005H233.498C233.247 145.005 233.043 144.801 233.043 144.55V143.43C233.043 143.178 233.247 142.975 233.498 142.975H292.395C292.646 142.975 292.85 143.178 292.85 143.43V144.55C292.85 144.801 292.646 145.005 292.395 145.005Z" fill="#CCE6FF"/>
<path d="M262.98 149.163H233.367C233.188 149.163 233.043 149.018 233.043 148.839V147.456C233.043 147.277 233.188 147.132 233.367 147.132H262.98C263.159 147.132 263.303 147.277 263.303 147.456V148.839C263.303 149.018 263.159 149.163 262.98 149.163Z" fill="#CCE6FF"/>
<path d="M249.113 173.834H234.674C233.773 173.834 233.043 173.103 233.043 172.203V156.832C233.043 155.931 233.773 155.201 234.674 155.201H249.113C250.014 155.201 250.744 155.931 250.744 156.832V172.203C250.744 173.103 250.014 173.834 249.113 173.834Z" fill="#CCE6FF"/>
<path d="M270.164 173.753H255.725C254.824 173.753 254.094 173.023 254.094 172.122V156.752C254.094 155.851 254.824 155.12 255.725 155.12H270.164C271.065 155.12 271.795 155.851 271.795 156.752V172.122C271.795 173.023 271.065 173.753 270.164 173.753Z" fill="#CCE6FF"/>
<path d="M291.219 173.673H276.78C275.879 173.673 275.148 172.942 275.148 172.041V156.671C275.148 155.77 275.879 155.04 276.78 155.04H291.219C292.119 155.04 292.85 155.77 292.85 156.671V172.041C292.85 172.942 292.119 173.673 291.219 173.673Z" fill="#CCE6FF"/>
<path d="M292.586 179.143H233.315C233.167 179.143 233.047 179.023 233.047 178.875V177.648C233.047 177.5 233.167 177.38 233.315 177.38H292.586C292.734 177.38 292.854 177.5 292.854 177.648V178.875C292.854 179.023 292.734 179.143 292.586 179.143Z" fill="#CCE6FF"/>
<path d="M292.586 182.435H233.315C233.167 182.435 233.047 182.315 233.047 182.167V180.94C233.047 180.792 233.167 180.672 233.315 180.672H292.586C292.734 180.672 292.854 180.792 292.854 180.94V182.167C292.854 182.315 292.734 182.435 292.586 182.435Z" fill="#CCE6FF"/>
<path d="M268.612 185.727H233.254C233.14 185.727 233.047 185.634 233.047 185.519V184.171C233.047 184.056 233.14 183.963 233.254 183.963H268.612C268.726 183.963 268.819 184.056 268.819 184.171V185.519C268.819 185.634 268.726 185.727 268.612 185.727Z" fill="#CCE6FF"/>
<path d="M157.593 116.038H111.008C109.713 116.038 108.664 114.989 108.664 113.694V83.1702C108.664 81.8758 109.713 80.8264 111.008 80.8264H157.592C158.887 80.8264 159.936 81.8758 159.936 83.1702V113.694C159.936 114.989 158.887 116.038 157.593 116.038Z" fill="#3C94F8"/>
<path d="M121.869 101.512C121.869 102.746 121.686 103.704 121.321 104.387C120.644 105.634 119.356 106.257 117.458 106.257C116.362 106.257 115.426 105.96 114.65 105.366C113.873 104.773 113.484 103.717 113.484 102.199V101.154H115.344V102.199C115.344 102.994 115.522 103.593 115.878 103.994C116.233 104.395 116.787 104.596 117.537 104.596C118.594 104.596 119.285 104.234 119.611 103.512C119.81 103.067 119.91 102.229 119.91 100.995V91.2581H121.869L121.869 101.512Z" fill="#102A54"/>
<path d="M136.908 93.3467C137.876 94.6398 138.36 96.2942 138.36 98.3099C138.36 100.492 137.806 102.305 136.699 103.75C135.399 105.448 133.546 106.296 131.139 106.296C128.891 106.296 127.124 105.554 125.838 104.069C124.691 102.636 124.117 100.826 124.117 98.638C124.117 96.6621 124.608 94.9713 125.589 93.5655C126.849 91.7619 128.712 90.8601 131.179 90.8601C133.758 90.8603 135.668 91.6893 136.908 93.3467ZM135.162 102.66C135.941 101.409 136.331 99.9703 136.331 98.3445C136.331 96.6257 135.882 95.2421 134.983 94.1936C134.085 93.1451 132.856 92.6207 131.298 92.6207C129.786 92.6207 128.553 93.1401 127.598 94.1786C126.644 95.2172 126.166 96.7484 126.166 98.7724C126.166 100.392 126.575 101.757 127.394 102.869C128.213 103.98 129.541 104.536 131.378 104.536C133.122 104.536 134.383 103.911 135.162 102.66Z" fill="#102A54"/>
<path d="M140.668 91.2581H146.986C148.708 91.2581 149.933 91.7686 150.66 92.7898C151.087 93.3932 151.301 94.0894 151.301 94.8784C151.301 95.8002 151.039 96.5561 150.515 97.1461C150.243 97.4579 149.852 97.7429 149.341 98.0014C150.091 98.2866 150.651 98.6081 151.022 98.9662C151.679 99.6027 152.007 100.481 152.007 101.602C152.007 102.543 151.71 103.395 151.116 104.158C150.229 105.298 148.818 105.869 146.883 105.869H140.668V91.2581H140.668ZM146.246 97.4346C147.09 97.4346 147.747 97.3187 148.216 97.0864C148.953 96.7217 149.321 96.0655 149.321 95.1171C149.321 94.1623 148.929 93.5193 148.146 93.1876C147.704 93.002 147.047 92.9092 146.176 92.9092H142.608V97.4346H146.246ZM146.915 104.178C148.14 104.178 149.013 103.827 149.536 103.124C149.864 102.68 150.028 102.142 150.028 101.512C150.028 100.451 149.549 99.7286 148.592 99.344C148.083 99.1386 147.41 99.0357 146.574 99.0357H142.608V104.178H146.915Z" fill="#102A54"/>
<path d="M153.496 124.742C153.204 124.742 152.925 124.608 152.737 124.362L145.633 115.086H109.653C108.19 115.086 107 113.896 107 112.434V81.9096C107 80.447 108.19 79.2571 109.653 79.2571H156.237C157.7 79.2571 158.889 80.447 158.889 81.9096V112.434C158.889 113.896 157.7 115.086 156.237 115.086H154.467V123.776C154.467 124.196 154.21 124.554 153.813 124.689C153.708 124.724 153.601 124.742 153.496 124.742ZM109.653 79.8747C108.53 79.8747 107.617 80.7876 107.617 81.9098V112.434C107.617 113.556 108.53 114.469 109.653 114.469H145.937L153.228 123.987C153.368 124.17 153.559 124.123 153.614 124.104C153.67 124.086 153.85 124.006 153.85 123.776V114.469H156.237C157.359 114.469 158.272 113.556 158.272 112.434V81.9096C158.272 80.7874 157.359 79.8745 156.237 79.8745L109.653 79.8747Z" fill="#102A54"/>
<path d="M265.862 54.0987H219.277C217.983 54.0987 216.934 53.0493 216.934 51.7549V21.2308C216.934 19.9363 217.983 18.887 219.277 18.887H265.862C267.156 18.887 268.206 19.9363 268.206 21.2308V51.7549C268.205 53.0493 267.156 54.0987 265.862 54.0987Z" fill="#3C94F8"/>
<path d="M230.138 39.5732C230.138 40.8066 229.956 41.7647 229.591 42.4476C228.914 43.6943 227.626 44.3174 225.727 44.3174C224.632 44.3174 223.696 44.0207 222.919 43.4272C222.142 42.8339 221.754 41.7779 221.754 40.2593V39.2149H223.614V40.2593C223.614 41.0549 223.791 41.6536 224.147 42.0547C224.503 42.456 225.056 42.6565 225.807 42.6565C226.863 42.6565 227.554 42.2951 227.88 41.5723C228.079 41.1282 228.179 40.2892 228.179 39.0558V29.3186H230.139V39.5732H230.138Z" fill="#102A54"/>
<path d="M245.177 31.4075C246.145 32.7005 246.629 34.3549 246.629 36.3707C246.629 38.5524 246.076 40.3658 244.968 41.8111C243.669 43.5088 241.815 44.3573 239.409 44.3573C237.161 44.3573 235.394 43.6147 234.107 42.1293C232.96 40.697 232.387 38.8868 232.387 36.6988C232.387 34.7229 232.877 33.0321 233.859 31.6263C235.118 29.8227 236.982 28.9209 239.448 28.9209C242.028 28.9209 243.937 29.7498 245.177 31.4075ZM243.432 40.7204C244.211 39.4696 244.601 38.0311 244.601 36.4053C244.601 34.6865 244.151 33.3029 243.253 32.2544C242.354 31.2059 241.126 30.6815 239.568 30.6815C238.056 30.6815 236.823 31.2009 235.868 32.2394C234.913 33.278 234.436 34.8091 234.436 36.8331C234.436 38.4525 234.845 39.8178 235.664 40.9293C236.483 42.041 237.811 42.5967 239.647 42.5967C241.391 42.5969 242.652 41.9715 243.432 40.7204Z" fill="#102A54"/>
<path d="M248.938 29.3188H255.255C256.977 29.3188 258.202 29.8296 258.93 30.8506C259.357 31.454 259.57 32.1502 259.57 32.9392C259.57 33.861 259.308 34.6169 258.784 35.2069C258.512 35.5187 258.121 35.8037 257.611 36.0622C258.36 36.3474 258.92 36.6689 259.292 37.0269C259.948 37.6635 260.276 38.5422 260.276 39.6626C260.276 40.6043 259.979 41.4563 259.386 42.2188C258.498 43.3593 257.087 43.9295 255.152 43.9295H248.938V29.3188H248.938ZM254.516 35.4954C255.36 35.4954 256.017 35.3795 256.486 35.1474C257.223 34.7827 257.591 34.1264 257.591 33.1781C257.591 32.2232 257.199 31.5803 256.416 31.2486C255.973 31.063 255.316 30.9702 254.445 30.9702H250.878V35.4956H254.516V35.4954ZM255.185 42.2389C256.41 42.2389 257.283 41.8876 257.805 41.1846C258.133 40.7405 258.297 40.2034 258.297 39.5735C258.297 38.5126 257.818 37.7898 256.861 37.4052C256.353 37.1998 255.68 37.0969 254.843 37.0969H250.877V42.2391H255.185V42.2389Z" fill="#102A54"/>
<path d="M261.766 62.8023C261.473 62.8023 261.195 62.6681 261.007 62.4226L253.902 53.147H217.922C216.459 53.147 215.27 51.9571 215.27 50.4945V19.9704C215.27 18.5078 216.459 17.3179 217.922 17.3179H264.506C265.969 17.3179 267.159 18.5078 267.159 19.9704V50.4945C267.159 51.9571 265.969 53.147 264.506 53.147H262.737V61.8363C262.737 62.2563 262.48 62.6148 262.082 62.7496C261.977 62.785 261.87 62.8023 261.766 62.8023ZM217.922 17.9355C216.8 17.9355 215.887 18.8484 215.887 19.9706V50.4945C215.887 51.6167 216.8 52.5296 217.922 52.5296H254.207L261.497 62.0472C261.637 62.2306 261.829 62.1835 261.884 62.165C261.939 62.1462 262.12 62.067 262.12 61.8363V52.5296H264.506C265.629 52.5296 266.542 51.6167 266.542 50.4945V19.9704C266.542 18.8482 265.629 17.9353 264.506 17.9353L217.922 17.9355Z" fill="#102A54"/>
<path d="M366.758 73.5686H413.342C414.637 73.5686 415.686 72.5193 415.686 71.2248V40.7007C415.686 39.4063 414.637 38.3569 413.342 38.3569H366.758C365.463 38.3569 364.414 39.4063 364.414 40.7007V71.2248C364.414 72.5193 365.464 73.5686 366.758 73.5686Z" fill="#3C94F8"/>
<path d="M380.728 59.043C380.728 60.2763 380.546 61.2345 380.181 61.9173C379.503 63.1641 378.216 63.7872 376.317 63.7872C375.222 63.7872 374.286 63.4904 373.509 62.8969C372.732 62.3036 372.344 61.2477 372.344 59.7291V58.6847H374.204V59.7291C374.204 60.5247 374.381 61.1234 374.737 61.5245C375.093 61.9258 375.646 62.1262 376.397 62.1262C377.453 62.1262 378.144 61.7648 378.47 61.0421C378.669 60.598 378.769 59.7592 378.769 58.5258V48.7886H380.728L380.728 59.043Z" fill="#102A54"/>
<path d="M395.767 50.8775C396.735 52.1705 397.219 53.8249 397.219 55.8407C397.219 58.0223 396.666 59.8358 395.558 61.2811C394.259 62.9787 392.405 63.8272 389.999 63.8272C387.751 63.8272 385.984 63.0847 384.697 61.5993C383.55 60.1669 382.977 58.3568 382.977 56.1687C382.977 54.1929 383.467 52.5021 384.449 51.0963C385.708 49.2927 387.572 48.3909 390.038 48.3909C392.617 48.3909 394.527 49.2198 395.767 50.8775ZM394.022 60.1904C394.801 58.9396 395.19 57.5011 395.19 55.8753C395.19 54.1565 394.741 52.7729 393.843 51.7244C392.944 50.6758 391.716 50.1515 390.158 50.1515C388.646 50.1515 387.413 50.6709 386.458 51.7093C385.503 52.748 385.025 54.2791 385.025 56.3031C385.025 57.9225 385.435 59.288 386.254 60.3993C387.073 61.511 388.401 62.0666 390.237 62.0666C391.981 62.0668 393.242 61.4414 394.022 60.1904Z" fill="#102A54"/>
<path d="M399.528 48.7886H405.845C407.567 48.7886 408.792 49.2992 409.519 50.3203C409.946 50.9237 410.16 51.6199 410.16 52.4089C410.16 53.3307 409.898 54.0866 409.374 54.6766C409.102 54.9884 408.711 55.2734 408.2 55.5319C408.95 55.8171 409.51 56.1386 409.881 56.4967C410.538 57.1332 410.866 58.0119 410.866 59.1323C410.866 60.074 410.569 60.926 409.975 61.6885C409.088 62.829 407.677 63.3993 405.742 63.3993H399.527L399.528 48.7886ZM405.105 54.9651C405.95 54.9651 406.606 54.8493 407.075 54.6169C407.812 54.2523 408.181 53.596 408.181 52.6477C408.181 51.6928 407.789 51.0499 407.005 50.7181C406.563 50.5325 405.906 50.4397 405.035 50.4397H401.467V54.9651H405.105ZM405.774 61.7087C406.999 61.7087 407.873 61.3574 408.395 60.6544C408.723 60.2103 408.887 59.6731 408.887 59.0432C408.887 57.9823 408.408 57.2596 407.451 56.8749C406.942 56.6695 406.27 56.5666 405.433 56.5666H401.467V61.7089H405.774V61.7087Z" fill="#102A54"/>
<path d="M370.854 82.2723C370.749 82.2723 370.643 82.255 370.538 82.2194C370.14 82.0846 369.883 81.7261 369.883 81.3061V72.6167H368.113C366.651 72.6167 365.461 71.4268 365.461 69.9642V39.4403C365.461 37.9778 366.651 36.7878 368.113 36.7878H414.698C416.16 36.7878 417.35 37.9778 417.35 39.4403V69.9644C417.35 71.427 416.16 72.6169 414.698 72.6169H378.718L371.613 81.8928C371.425 82.1381 371.147 82.2723 370.854 82.2723ZM368.114 37.4052C366.992 37.4052 366.079 38.3181 366.079 39.4403V69.9644C366.079 71.0866 366.992 71.9996 368.114 71.9996H370.501V81.3063C370.501 81.537 370.681 81.6162 370.736 81.6349C370.791 81.6539 370.983 81.7008 371.123 81.5174L378.414 71.9998H414.698C415.821 71.9998 416.733 71.0869 416.733 69.9646V39.4403C416.733 38.3181 415.821 37.4052 414.698 37.4052H368.114Z" fill="#102A54"/>
<path d="M284.839 219.949C292.366 206.94 294.377 191.779 290.501 177.258C286.624 162.738 277.326 150.596 264.317 143.069C251.308 135.542 236.147 133.531 221.627 137.408C207.106 141.284 194.964 150.583 187.437 163.591C179.91 176.6 177.9 191.761 181.776 206.282C184.955 218.192 191.785 228.499 201.315 235.975C200.363 236.028 199.456 236.544 198.943 237.43L158.363 307.565C157.553 308.964 158.031 310.755 159.431 311.565L170.509 317.975C171.908 318.785 173.699 318.307 174.509 316.907L215.089 246.773C215.602 245.886 215.597 244.843 215.169 243.991C226.399 248.528 238.739 249.312 250.649 246.133C265.17 242.256 277.313 232.957 284.839 219.949ZM211.773 233.88C200.525 227.372 192.484 216.873 189.133 204.318C185.781 191.762 187.52 178.653 194.028 167.404C200.536 156.156 211.035 148.116 223.591 144.764C236.146 141.413 249.255 143.151 260.504 149.659C271.752 156.168 279.792 166.666 283.144 179.222C286.495 191.778 284.757 204.887 278.249 216.135C271.74 227.383 261.242 235.424 248.686 238.775C236.13 242.127 223.021 240.388 211.773 233.88Z" fill="#102A54"/>
<path d="M269.018 227.045C287.662 208.401 287.662 178.172 269.018 159.528C250.373 140.884 220.145 140.884 201.501 159.528C182.856 178.172 182.856 208.401 201.501 227.045C220.145 245.689 250.373 245.689 269.018 227.045Z" fill="white"/>
<path opacity="0.61" d="M269.018 227.045C287.662 208.401 287.662 178.172 269.018 159.528C250.373 140.884 220.145 140.884 201.501 159.528C182.856 178.172 182.856 208.401 201.501 227.045C220.145 245.689 250.373 245.689 269.018 227.045Z" fill="#CCE6FF"/>
<mask id="mask2_1068_7251" style="mask-type:luminance" maskUnits="userSpaceOnUse" x="187" y="145" width="96" height="97">
<path d="M269.014 227.045C287.658 208.401 287.658 178.172 269.014 159.528C250.37 140.884 220.141 140.884 201.497 159.528C182.852 178.172 182.852 208.401 201.497 227.045C220.141 245.689 250.37 245.689 269.014 227.045Z" fill="white"/>
</mask>
<g mask="url(#mask2_1068_7251)">
<path opacity="0.26" d="M258.256 145.941L178.254 179.461L179.528 202.563L278.751 163.663L258.256 145.941Z" fill="#3C94F8"/>
</g>
<mask id="mask3_1068_7251" style="mask-type:luminance" maskUnits="userSpaceOnUse" x="187" y="145" width="96" height="97">
<path d="M269.014 227.045C287.658 208.401 287.658 178.172 269.014 159.528C250.37 140.884 220.141 140.884 201.497 159.528C182.852 178.172 182.852 208.401 201.497 227.045C220.141 245.689 250.37 245.689 269.014 227.045Z" fill="white"/>
</mask>
<g mask="url(#mask3_1068_7251)">
<path opacity="0.18" d="M292.117 166.743L184.844 209.697L194.483 229.136L299.555 187.943L292.117 166.743Z" fill="#3C94F8"/>
</g>
<mask id="mask4_1068_7251" style="mask-type:luminance" maskUnits="userSpaceOnUse" x="187" y="145" width="96" height="97">
<path d="M269.014 227.045C287.658 208.401 287.658 178.172 269.014 159.528C250.37 140.884 220.141 140.884 201.497 159.528C182.852 178.172 182.852 208.401 201.497 227.045C220.141 245.689 250.37 245.689 269.014 227.045Z" fill="white"/>
</mask>
<g mask="url(#mask4_1068_7251)">
<path opacity="0.1" d="M300.714 194.23L193.441 237.183L202.311 247.387L305.214 207.054L300.714 194.23Z" fill="#3C94F8"/>
</g>
<path opacity="0.14" d="M289.398 224.886C296.925 211.878 298.935 196.717 295.059 182.196C291.183 167.675 281.884 155.533 268.876 148.007C255.867 140.48 240.706 138.469 226.185 142.346C211.665 146.222 199.523 155.521 191.996 168.529C184.469 181.538 182.459 196.699 186.334 211.219C189.514 223.13 196.343 233.437 205.873 240.913C204.922 240.966 204.015 241.482 203.502 242.368L162.921 312.503C162.112 313.902 162.59 315.693 163.989 316.503L175.067 322.913C176.467 323.723 178.258 323.245 179.067 321.845L219.648 251.71C220.161 250.824 220.155 249.781 219.728 248.929C230.958 253.466 243.298 254.25 255.208 251.07C269.729 247.194 281.871 237.895 289.398 224.886ZM216.332 238.818C205.083 232.31 197.043 221.811 193.691 209.255C190.34 196.7 192.078 183.59 198.587 172.342C205.095 161.094 215.594 153.054 228.149 149.702C240.705 146.351 253.814 148.089 265.062 154.597C276.31 161.105 284.351 171.604 287.702 184.16C291.054 196.715 289.315 209.825 282.807 221.073C276.299 232.321 265.8 240.361 253.245 243.713C240.689 247.065 227.58 245.326 216.332 238.818Z" fill="#3C94F8"/>
<path d="M478.318 150.194H318.944C307.808 150.194 298.781 141.166 298.781 130.031C298.781 118.895 307.809 109.868 318.944 109.868H478.318C489.453 109.868 498.481 118.895 498.481 130.031C498.481 141.166 489.453 150.194 478.318 150.194Z" fill="#F4F7FD"/>
<path d="M475.502 149.888H316.128C304.67 149.888 295.348 140.566 295.348 129.108C295.348 117.649 304.67 108.327 316.128 108.327H475.502C486.96 108.327 496.282 117.649 496.282 129.108C496.282 140.566 486.96 149.888 475.502 149.888ZM316.128 109.562C305.351 109.562 296.582 118.33 296.582 129.108C296.582 139.885 305.351 148.654 316.128 148.654H475.502C486.279 148.654 495.047 139.885 495.047 129.108C495.047 118.33 486.279 109.562 475.502 109.562H316.128Z" fill="#102A54"/>
<path d="M319.487 130.331H317.559C316.953 130.331 316.461 129.839 316.461 129.233V127.305C316.461 126.698 316.953 126.207 317.559 126.207H319.487C320.093 126.207 320.585 126.698 320.585 127.305V129.233C320.585 129.839 320.093 130.331 319.487 130.331Z" fill="#102A54"/>
<path d="M326.717 130.331H324.79C324.183 130.331 323.691 129.839 323.691 129.233V127.305C323.691 126.698 324.183 126.207 324.79 126.207H326.717C327.324 126.207 327.815 126.698 327.815 127.305V129.233C327.815 129.839 327.324 130.331 326.717 130.331Z" fill="#102A54"/>
<path d="M333.948 130.331H332.02C331.414 130.331 330.922 129.839 330.922 129.233V127.305C330.922 126.698 331.414 126.207 332.02 126.207H333.948C334.554 126.207 335.046 126.698 335.046 127.305V129.233C335.046 129.839 334.554 130.331 333.948 130.331Z" fill="#102A54"/>
<path d="M341.178 130.331H339.25C338.644 130.331 338.152 129.839 338.152 129.233V127.305C338.152 126.698 338.644 126.207 339.25 126.207H341.178C341.785 126.207 342.276 126.698 342.276 127.305V129.233C342.276 129.839 341.785 130.331 341.178 130.331Z" fill="#102A54"/>
<path d="M348.409 130.331H346.481C345.874 130.331 345.383 129.839 345.383 129.233V127.305C345.383 126.698 345.874 126.207 346.481 126.207H348.409C349.015 126.207 349.507 126.698 349.507 127.305V129.233C349.507 129.839 349.015 130.331 348.409 130.331Z" fill="#102A54"/>
<path d="M355.639 130.331H353.711C353.105 130.331 352.613 129.839 352.613 129.233V127.305C352.613 126.698 353.105 126.207 353.711 126.207H355.639C356.246 126.207 356.737 126.698 356.737 127.305V129.233C356.737 129.839 356.246 130.331 355.639 130.331Z" fill="#102A54"/>
<path d="M362.87 130.331H360.942C360.335 130.331 359.844 129.839 359.844 129.233V127.305C359.844 126.698 360.335 126.207 360.942 126.207H362.87C363.476 126.207 363.968 126.698 363.968 127.305V129.233C363.968 129.839 363.476 130.331 362.87 130.331Z" fill="#102A54"/>
<path d="M370.1 130.331H368.172C367.566 130.331 367.074 129.839 367.074 129.233V127.305C367.074 126.698 367.566 126.207 368.172 126.207H370.1C370.707 126.207 371.198 126.698 371.198 127.305V129.233C371.198 129.839 370.707 130.331 370.1 130.331Z" fill="#102A54"/>
<path d="M377.33 130.331H375.403C374.796 130.331 374.305 129.839 374.305 129.233V127.305C374.305 126.698 374.796 126.207 375.403 126.207H377.33C377.937 126.207 378.429 126.698 378.429 127.305V129.233C378.429 129.839 377.937 130.331 377.33 130.331Z" fill="#102A54"/>
<path d="M384.561 130.331H382.633C382.027 130.331 381.535 129.839 381.535 129.233V127.305C381.535 126.698 382.027 126.207 382.633 126.207H384.561C385.167 126.207 385.659 126.698 385.659 127.305V129.233C385.659 129.839 385.167 130.331 384.561 130.331Z" fill="#102A54"/>
<path d="M391.791 130.331H389.864C389.257 130.331 388.766 129.839 388.766 129.233V127.305C388.766 126.698 389.257 126.207 389.864 126.207H391.791C392.398 126.207 392.89 126.698 392.89 127.305V129.233C392.89 129.839 392.398 130.331 391.791 130.331Z" fill="#102A54"/>
<path d="M399.022 130.331H397.094C396.488 130.331 395.996 129.839 395.996 129.233V127.305C395.996 126.698 396.488 126.207 397.094 126.207H399.022C399.628 126.207 400.12 126.698 400.12 127.305V129.233C400.12 129.839 399.628 130.331 399.022 130.331Z" fill="#102A54"/>
<path d="M406.252 130.331H404.325C403.718 130.331 403.227 129.839 403.227 129.233V127.305C403.227 126.698 403.718 126.207 404.325 126.207H406.252C406.859 126.207 407.351 126.698 407.351 127.305V129.233C407.351 129.839 406.859 130.331 406.252 130.331Z" fill="#102A54"/>
<path d="M413.487 130.331H411.559C410.953 130.331 410.461 129.839 410.461 129.233V127.305C410.461 126.698 410.953 126.207 411.559 126.207H413.487C414.093 126.207 414.585 126.698 414.585 127.305V129.233C414.585 129.839 414.093 130.331 413.487 130.331Z" fill="#102A54"/>
<path d="M420.713 130.331H418.786C418.179 130.331 417.688 129.839 417.688 129.233V127.305C417.688 126.698 418.179 126.207 418.786 126.207H420.713C421.32 126.207 421.811 126.698 421.811 127.305V129.233C421.811 129.839 421.32 130.331 420.713 130.331Z" fill="#102A54"/>
<path d="M427.948 130.331H426.02C425.414 130.331 424.922 129.839 424.922 129.233V127.305C424.922 126.698 425.414 126.207 426.02 126.207H427.948C428.554 126.207 429.046 126.698 429.046 127.305V129.233C429.046 129.839 428.554 130.331 427.948 130.331Z" fill="#102A54"/>
<path d="M435.178 130.331H433.25C432.644 130.331 432.152 129.839 432.152 129.233V127.305C432.152 126.698 432.644 126.207 433.25 126.207H435.178C435.785 126.207 436.276 126.698 436.276 127.305V129.233C436.276 129.839 435.785 130.331 435.178 130.331Z" fill="#102A54"/>
<path d="M442.409 130.331H440.481C439.874 130.331 439.383 129.839 439.383 129.233V127.305C439.383 126.698 439.874 126.207 440.481 126.207H442.409C443.015 126.207 443.507 126.698 443.507 127.305V129.233C443.507 129.839 443.015 130.331 442.409 130.331Z" fill="#102A54"/>
<path d="M449.639 130.331H447.711C447.105 130.331 446.613 129.839 446.613 129.233V127.305C446.613 126.698 447.105 126.207 447.711 126.207H449.639C450.246 126.207 450.737 126.698 450.737 127.305V129.233C450.737 129.839 450.246 130.331 449.639 130.331Z" fill="#102A54"/>
<path d="M456.87 130.331H454.942C454.335 130.331 453.844 129.839 453.844 129.233V127.305C453.844 126.698 454.335 126.207 454.942 126.207H456.87C457.476 126.207 457.968 126.698 457.968 127.305V129.233C457.968 129.839 457.476 130.331 456.87 130.331Z" fill="#102A54"/>
<path d="M464.1 130.331H462.172C461.566 130.331 461.074 129.839 461.074 129.233V127.305C461.074 126.698 461.566 126.207 462.172 126.207H464.1C464.706 126.207 465.198 126.698 465.198 127.305V129.233C465.198 129.839 464.706 130.331 464.1 130.331Z" fill="#102A54"/>
<path d="M471.33 130.331H469.403C468.796 130.331 468.305 129.839 468.305 129.233V127.305C468.305 126.698 468.796 126.207 469.403 126.207H471.33C471.937 126.207 472.429 126.698 472.429 127.305V129.233C472.429 129.839 471.937 130.331 471.33 130.331Z" fill="#102A54"/>
<path d="M478.561 130.331H476.633C476.027 130.331 475.535 129.839 475.535 129.233V127.305C475.535 126.698 476.027 126.207 476.633 126.207H478.561C479.167 126.207 479.659 126.698 479.659 127.305V129.233C479.659 129.839 479.167 130.331 478.561 130.331Z" fill="#102A54"/>
<path d="M103.468 324.31H99.0172H87.5144C86.8015 324.31 86.2901 324.997 86.4947 325.68L93.4741 348.989C93.6091 349.44 94.0235 349.748 94.4938 349.748H99.0172H103.468H107.992C108.462 349.748 108.877 349.44 109.011 348.989L115.991 325.68C116.195 324.997 115.684 324.31 114.971 324.31H103.468Z" fill="#102A54"/>
<path d="M112.489 312.951C112.929 311.792 113.497 310.634 114.446 309.837C115.395 309.039 116.807 308.686 117.904 309.263C118.71 309.688 119.545 310.586 120.341 310.143C120.836 309.867 120.946 309.212 120.98 308.646C121.09 306.801 121.067 304.721 122.382 303.422C123.678 302.143 125.775 302.169 127.54 302.619C128.372 302.831 129.293 303.11 130.051 302.706C130.457 302.49 130.746 302.107 130.986 301.715C131.831 300.333 132.368 298.563 133.847 297.903C136.228 296.842 139.004 299.527 141.452 298.633C142.41 298.283 143.229 297.402 144.244 297.498C144.746 297.546 145.197 297.839 145.545 298.203C146.726 299.44 146.738 301.612 145.562 302.854C144 304.504 141.133 304.274 139.552 305.907C138.034 307.477 138.16 310.324 136.307 311.48C134.747 312.454 132.642 311.655 130.908 312.27C129.517 312.762 128.609 314.063 127.708 315.232C126.807 316.4 125.662 317.591 124.189 317.683C123.416 317.73 122.646 317.461 121.874 317.531C119.654 317.734 118.417 320.54 116.213 320.872C114.734 321.095 113.467 320.11 112.443 319.171C112.037 318.798 111.657 318.376 111.51 317.831C111.334 317.176 111.481 316.466 111.626 315.821C111.846 314.846 112.135 313.886 112.489 312.951Z" fill="#6CB597"/>
<path d="M96.5672 308.351C95.3582 307.452 94.6251 305.718 95.3401 304.392C95.6883 303.746 96.3094 303.3 96.7998 302.755C97.2904 302.209 97.6654 301.428 97.375 300.754C97.2311 300.42 96.9469 300.171 96.6722 299.933C95.6813 299.074 94.677 298.183 94.0532 297.029C93.4297 295.877 93.2535 294.393 93.9433 293.278C94.464 292.437 95.3745 291.936 96.1647 291.341C96.955 290.746 97.7049 289.896 97.639 288.909C97.5571 287.678 96.23 286.559 96.723 285.428C97.234 284.257 99.2747 284.321 99.6085 283.088C99.7744 282.475 99.4048 281.861 99.2525 281.245C98.9135 279.871 99.8433 278.312 101.213 277.958C102.583 277.603 104.152 278.515 104.522 279.881C104.779 280.826 104.519 281.877 104.893 282.782C105.379 283.956 106.77 284.518 107.379 285.634C108.5 287.686 106.463 290.116 106.634 292.448C106.815 294.914 109.449 297.012 108.771 299.389C108.505 300.32 107.757 301.057 107.497 301.99C107.189 303.103 107.622 304.267 107.933 305.379C108.244 306.491 108.392 307.809 107.646 308.691C107.094 309.343 106.196 309.573 105.351 309.704C103.009 310.069 100.683 309.962 98.4172 309.253C97.7594 309.047 97.1223 308.763 96.5672 308.351Z" fill="#6CB597"/>
<path d="M101.193 330.172C101.139 330.172 101.084 330.158 101.035 330.127C100.895 330.04 100.853 329.856 100.94 329.716C103.09 326.262 105.758 323.182 108.871 320.56C112.3 317.672 116.222 315.391 120.015 313.186L145.775 298.208C145.917 298.124 146.1 298.173 146.183 298.316C146.266 298.458 146.217 298.641 146.075 298.724L120.315 313.702C116.544 315.894 112.644 318.162 109.255 321.017C106.191 323.598 103.564 326.631 101.446 330.031C101.39 330.122 101.293 330.172 101.193 330.172Z" fill="#102A54"/>
<path d="M102.018 328.901C101.857 328.901 101.725 328.773 101.72 328.611C101.279 313.631 101.608 293.066 101.962 278.452C101.966 278.288 102.1 278.158 102.267 278.161C102.432 278.165 102.563 278.302 102.559 278.467C102.205 293.073 101.876 313.626 102.316 328.593C102.321 328.758 102.192 328.896 102.027 328.901C102.024 328.901 102.021 328.901 102.018 328.901Z" fill="#102A54"/>
<path d="M87.1646 320.822C85.4252 320.634 83.6603 319.481 83.3477 317.76C83.0983 316.387 83.6605 314.619 82.5206 313.813C82.1205 313.53 81.6077 313.471 81.1183 313.447C79.3491 313.363 77.4092 313.595 75.9639 312.571C73.8607 311.082 74.071 307.993 73.8998 305.421C73.856 304.761 73.7454 304.048 73.268 303.59C72.7582 303.101 71.9888 303.047 71.2998 302.891C68.7888 302.324 66.8278 299.896 66.8011 297.322C66.7928 296.535 66.9667 295.708 67.4905 295.121C67.8467 294.722 68.339 294.463 68.8506 294.306C70.4819 293.805 72.3851 294.35 73.504 295.639C74.2029 296.443 74.6053 297.491 75.393 298.209C77.6193 300.24 81.2776 298.572 84.141 299.509C85.7427 300.033 87.023 301.441 87.392 303.086C87.7122 304.512 87.4019 306.098 88.0995 307.383C89.2981 309.59 92.4412 309.465 94.7572 310.436C95.3143 310.669 95.8603 310.999 96.1758 311.514C96.4199 311.913 96.505 312.388 96.5435 312.854C96.6993 314.736 96.1037 316.648 94.9883 318.163C94.4885 318.841 93.8208 319.628 93.0306 319.973C92.4307 320.236 91.725 320.14 91.0936 320.293C89.7848 320.608 88.529 320.97 87.1646 320.822Z" fill="#6CB597"/>
<path d="M100.442 330.601C100.336 330.601 100.233 330.543 100.179 330.443C96.058 322.735 87.1373 312.556 82.8504 307.664C81.5654 306.198 80.2366 304.681 78.6888 303.458C77.4161 302.453 75.949 301.606 74.53 300.788C71.9267 299.286 69.2345 297.733 67.6342 295.134C67.5478 294.993 67.5914 294.81 67.732 294.723C67.8723 294.637 68.0561 294.681 68.1425 294.821C69.6638 297.292 72.1724 298.739 74.8282 300.271C76.2657 301.1 77.7522 301.957 79.059 302.99C80.6496 304.247 81.9967 305.784 83.2994 307.27C87.601 312.179 96.5521 322.393 100.705 330.161C100.783 330.306 100.728 330.487 100.583 330.565C100.538 330.589 100.49 330.601 100.442 330.601Z" fill="#102A54"/>
<path d="M463.235 183.819C463.235 183.819 449.677 209.235 447.501 211.284C445.325 213.334 414.602 221.79 414.602 221.79L415.815 226.242C415.815 226.242 453.872 227.125 455.81 226.242C457.748 225.359 468.92 215.442 468.92 215.442L463.235 183.819Z" fill="#3C94F8"/>
<path d="M444.512 336.278L445.441 341.862H452.507L452.099 335.467L444.512 336.278Z" fill="#FFC0B1"/>
<path d="M419.102 335.151L419.489 342.756L425.795 342.269L426.732 335.208L419.102 335.151Z" fill="#FFC0B1"/>
<path d="M473.734 243.229C473.734 243.229 428.862 258.25 422.173 264.939C415.484 271.628 418.142 335.416 418.142 335.416H427.739L441.25 282.926C441.25 282.926 495.638 281.717 501.517 271.39C509.272 257.767 503.35 240.03 503.35 240.03L473.734 243.229Z" fill="#0C203F"/>
<path d="M476.487 246.765C476.487 246.765 439.171 268.499 434.433 275.715C429.694 282.93 443.825 336.351 443.825 336.351L452.567 335.417L454.812 288.254C454.812 288.254 503.189 277.102 506.529 266.785C510.936 253.174 502.36 238.421 502.36 238.421L476.487 246.765Z" fill="#102A54"/>
<path d="M426.85 340.792C426.85 340.792 421.137 342.379 418.492 340.792L407.049 346.769C405.499 347.579 404.527 349.182 404.527 350.931V351.054H427.044C427.723 351.054 428.244 350.452 428.147 349.78L426.85 340.792Z" fill="#0C203F"/>
<path d="M452.818 340.792C452.818 340.792 447.105 342.379 444.461 340.792L433.017 346.769C431.468 347.579 430.496 349.182 430.496 350.931V351.054H453.013C453.692 351.054 454.213 350.452 454.116 349.78L452.818 340.792Z" fill="#102A54"/>
<path d="M474.238 177.024L469.93 159.47L469.929 159.471C469.923 156.161 469.276 152.205 467.629 147.567C466.538 144.495 463.034 143.03 460.069 144.387L451.716 148.213C449.442 149.255 448.223 151.764 448.818 154.194C449.522 157.074 450.361 160.825 450.629 163.335C450.864 165.527 451.47 168.082 452.916 169.981C455.446 173.304 459.903 174.433 463.571 172.751L464.612 184.142L474.238 177.024Z" fill="#FFC0B1"/>
<path d="M453.591 162.235C453.326 162.235 453.072 162.136 452.874 161.952C452.63 161.725 452.508 161.405 452.54 161.073L453.206 154.254C453.219 154.122 453.337 154.025 453.468 154.038C453.6 154.051 453.697 154.169 453.684 154.301L453.019 161.119C453.001 161.301 453.067 161.476 453.201 161.599C453.334 161.723 453.514 161.776 453.694 161.745L455.77 161.382C455.903 161.36 456.026 161.447 456.049 161.577C456.071 161.708 455.984 161.833 455.853 161.856L453.776 162.218C453.714 162.229 453.652 162.235 453.591 162.235Z" fill="#102A54"/>
<path d="M458.662 162.22C458.662 162.22 456.125 164.531 452.879 165.351C452.879 165.351 457.593 168.229 458.662 162.22Z" fill="white"/>
<path d="M454.686 164.968C454.591 164.968 454.502 164.912 454.463 164.819C454.413 164.696 454.471 164.556 454.594 164.505C457.126 163.462 458.653 161.736 458.668 161.719C458.756 161.619 458.908 161.609 459.007 161.696C459.107 161.783 459.118 161.935 459.03 162.035C458.966 162.109 457.418 163.861 454.777 164.95C454.747 164.962 454.716 164.968 454.686 164.968Z" fill="#102A54"/>
<path d="M451.851 155.562C451.851 156.134 451.478 156.597 451.017 156.597C450.557 156.597 450.184 156.134 450.184 155.562C450.184 154.99 450.557 154.527 451.017 154.527C451.478 154.527 451.851 154.99 451.851 155.562Z" fill="#102A54"/>
<path d="M456.603 154.899C457.064 154.899 457.437 154.436 457.437 153.864C457.437 153.292 457.064 152.829 456.603 152.829C456.143 152.829 455.77 153.292 455.77 153.864C455.77 154.436 456.143 154.899 456.603 154.899Z" fill="#102A54"/>
<path d="M448.668 151.809C448.668 151.809 457.9 152.583 461.939 149.488C461.939 149.488 462.025 155.627 463.486 156.597C464.947 157.567 469.428 156.581 470.825 162.783C470.825 162.783 473.284 156.02 472.167 148.113C471.049 140.206 466.064 136.425 461.251 136.854C456.439 137.284 438.688 143.879 448.668 151.809Z" fill="#102A54"/>
<path d="M468.609 155.093C469.16 152.789 468.511 150.658 467.16 150.334C465.808 150.011 464.265 151.617 463.713 153.922C463.162 156.227 463.811 158.358 465.163 158.681C466.514 159.005 468.057 157.398 468.609 155.093Z" fill="#FFC0B1"/>
<path d="M465.015 156.296C464.888 156.296 464.781 156.196 464.775 156.067C464.645 153.348 466.82 151.123 466.912 151.029C467.006 150.935 467.158 150.934 467.252 151.028C467.346 151.121 467.347 151.273 467.254 151.368C467.232 151.389 465.135 153.539 465.255 156.044C465.261 156.177 465.159 156.289 465.027 156.296C465.023 156.296 465.019 156.296 465.015 156.296Z" fill="#102A54"/>
<path d="M474.246 174.419C474.246 174.419 500.984 185.7 505.87 243.952C505.87 243.952 494.343 250.942 466.14 246.883C466.14 246.883 466.895 240.591 466.631 238.006C466.367 235.42 457.987 195.919 463.237 183.819L474.246 174.419Z" fill="#3C94F8"/>
<path d="M463.573 172.992C463.479 172.992 463.39 172.937 463.351 172.845C463.299 172.723 463.357 172.582 463.479 172.53C463.517 172.514 466.179 171.331 467.706 167.171C467.752 167.047 467.89 166.983 468.015 167.029C468.139 167.074 468.203 167.213 468.158 167.337C466.549 171.715 463.783 172.924 463.666 172.973C463.635 172.986 463.603 172.992 463.573 172.992Z" fill="#102A54"/>
<path d="M473.557 188.002C473.557 188.002 465.156 209.498 462.667 212.775C460.177 216.053 422.215 222.224 422.215 222.224L424.459 228.396C424.459 228.396 463.394 230.64 468.144 228.396C472.894 226.151 483.554 218.484 486.546 207.638C489.538 196.791 483.009 183.14 473.557 188.002Z" fill="#3C94F8"/>
<path d="M454.608 229.637C442.042 229.637 425.492 228.696 424.445 228.636C424.313 228.628 424.212 228.514 424.219 228.382C424.227 228.249 424.335 228.149 424.473 228.156C424.861 228.178 463.4 230.371 468.041 228.178C472.067 226.276 483.198 218.867 486.314 207.574C486.349 207.446 486.483 207.371 486.61 207.406C486.738 207.441 486.813 207.574 486.777 207.702C483.614 219.169 472.328 226.685 468.247 228.613C466.619 229.382 461.154 229.637 454.608 229.637Z" fill="#102A54"/>
<path d="M422.217 222.465C422.101 222.465 421.999 222.381 421.98 222.263C421.958 222.132 422.047 222.008 422.178 221.987C435.276 219.858 460.554 215.162 462.478 212.63C464.918 209.416 473.251 188.129 473.335 187.914C473.384 187.791 473.523 187.729 473.646 187.778C473.77 187.826 473.831 187.965 473.783 188.089C473.439 188.968 465.341 209.654 462.86 212.92C460.342 216.237 423.809 222.209 422.255 222.461C422.242 222.464 422.229 222.465 422.217 222.465Z" fill="#102A54"/>
<path d="M463.57 211.536C463.443 211.536 463.337 211.436 463.331 211.308C463.323 211.139 462.537 194.395 463.332 187.972C463.349 187.841 463.468 187.748 463.6 187.763C463.732 187.78 463.826 187.9 463.809 188.031C463.019 194.414 463.803 211.117 463.811 211.285C463.817 211.417 463.715 211.53 463.582 211.536C463.578 211.536 463.574 211.536 463.57 211.536Z" fill="#102A54"/>
<path d="M422.918 223.26C422.918 223.26 418.333 222.198 416.338 222.982C415.618 223.264 407.531 229.791 407.531 229.791H409.395H419.479L424.101 227.412L422.918 223.26Z" fill="#FFC0B1"/>
<path d="M414.849 222.693C414.849 222.693 411.032 222.405 409.792 222.693C408.552 222.981 402.203 225.882 402.203 226.242C402.203 226.602 402.848 227.098 403.691 226.899C404.534 226.701 411.677 224.755 411.677 224.755C411.677 224.755 407.609 226.75 407.014 227.593C406.419 228.437 405.873 229.791 405.873 229.791H413.363L415.817 226.242L414.849 222.693Z" fill="#FFC0B1"/>
<path d="M407.846 229.997C407.826 229.997 407.805 229.994 407.785 229.987C407.676 229.953 407.616 229.838 407.65 229.729C407.66 229.699 407.893 228.973 408.614 228.252C409.313 227.553 414.801 223.786 415.034 223.626C415.128 223.561 415.256 223.585 415.32 223.679C415.384 223.773 415.36 223.901 415.267 223.965C415.21 224.004 409.577 227.871 408.905 228.543C408.254 229.193 408.045 229.846 408.043 229.852C408.015 229.94 407.934 229.997 407.846 229.997Z" fill="#102A54"/>
<path d="M483.858 285.815L468.148 351.054H469.453L489.464 285.465L483.858 285.815Z" fill="#102A54"/>
<path d="M505.923 285.815L521.633 351.054H520.328L500.316 285.465L505.923 285.815Z" fill="#102A54"/>
<path d="M470.121 283.168C470.121 283.168 493.187 271.556 504.175 254.188C509.939 245.077 510.613 221.251 515.37 220.885C520.128 220.519 524.519 228.204 525.983 236.622C527.447 245.039 527.447 277.381 516.834 283.168C506.221 288.954 469.522 291.516 467.012 290.418C464.502 289.32 463.664 286.896 470.121 283.168Z" fill="#7FC0FF"/>
<path d="M480.234 236.306H317.042C316.013 236.306 315.18 235.472 315.18 234.444C315.18 233.415 316.013 232.581 317.042 232.581H480.234C481.262 232.581 482.096 233.415 482.096 234.444C482.096 235.472 481.263 236.306 480.234 236.306Z" fill="#7FC0FF"/>
<path d="M326.597 351.054H323.715L345.906 236.306H348.789L326.597 351.054Z" fill="#7FC0FF"/>
<path d="M470.68 351.054H473.562L451.371 236.306H448.488L470.68 351.054Z" fill="#7FC0FF"/>
<path d="M376.392 229.791L357.534 185.783C357.339 185.329 356.893 185.035 356.4 185.035C355.514 185.035 354.916 185.941 355.265 186.755L374.903 232.581H376.393H377.588H421.525C422.295 232.581 422.92 231.957 422.92 231.186C422.92 230.416 422.295 229.791 421.525 229.791H376.392Z" fill="#102A54"/>
<path d="M613.939 351.391H0.823184C0.368375 351.391 0 351.023 0 350.568C0 350.114 0.368375 349.745 0.823184 349.745H613.939C614.393 349.745 614.762 350.114 614.762 350.568C614.762 351.023 614.394 351.391 613.939 351.391Z" fill="#102A54"/>
<path d="M257.116 191.77C257.116 180.183 247.723 170.79 236.136 170.79C224.549 170.79 215.156 180.183 215.156 191.77C215.156 198.061 217.926 203.704 222.311 207.55C222.694 201.508 226.946 196.518 232.62 195.033C230.006 193.737 228.208 191.043 228.208 187.928C228.208 183.55 231.758 180 236.136 180C240.514 180 244.064 183.55 244.064 187.928C244.064 191.043 242.267 193.737 239.653 195.033C245.326 196.518 249.579 201.508 249.962 207.55C254.347 203.704 257.116 198.061 257.116 191.77Z" fill="#80C0FF"/>
<path d="M239.654 195.033C242.268 193.737 244.065 191.043 244.065 187.928C244.065 183.55 240.516 180 236.137 180C231.759 180 228.21 183.55 228.21 187.928C228.21 191.044 230.007 193.737 232.621 195.033C226.948 196.518 222.695 201.508 222.312 207.55C226.004 210.787 230.842 212.75 236.138 212.75C241.434 212.75 246.271 210.787 249.963 207.55C249.58 201.508 245.327 196.518 239.654 195.033Z" fill="#3C94F8"/>
<path d="M462.379 52.1741C458.385 51.7011 454.764 54.5557 454.291 58.5496C454.764 54.5555 451.909 50.9345 447.915 50.4616C443.921 49.9887 440.3 52.8433 439.827 56.8372C439.773 57.2986 439.764 57.7546 439.795 58.2016C439.949 70.2759 452.321 75.1934 452.321 75.1934C452.321 75.1934 465.498 73.3005 468.467 61.596C468.602 61.1684 468.7 60.723 468.755 60.2616C469.227 56.268 466.373 52.6468 462.379 52.1741Z" fill="#80C0FF"/>
</svg>
