<svg width="20" height="20" viewBox="0 0 20 20" fill="none" xmlns="http://www.w3.org/2000/svg">
<g id="email 1">
<g id="g453">
<g id="g455">
<g id="Clip path group">
<mask id="mask0_251_809" style="mask-type:luminance" maskUnits="userSpaceOnUse" x="0" y="0" width="20" height="20">
<g id="clipPath461">
<path id="path459" d="M0 1.90735e-06H20V20H0V1.90735e-06Z" fill="white"/>
</g>
</mask>
<g mask="url(#mask0_251_809)">
<g id="g457">
<g id="g463">
<path id="path465" d="M1.10813 5.32717C0.781758 5.10971 0.585938 4.74381 0.585938 4.3519V4.35092C0.585938 3.65807 1.14766 3.09639 1.84055 3.09639H18.1594C18.8523 3.09639 19.414 3.65807 19.414 4.35092V4.35154V4.3519C19.414 4.74381 19.2182 5.10971 18.8918 5.32717C17.2993 6.38908 12.5006 9.58795 10.6963 10.7911C10.2746 11.0722 9.72539 11.0722 9.30367 10.7911C7.4993 9.58795 2.70066 6.38908 1.10813 5.32717Z" stroke="#00A0E2" stroke-width="1.5" stroke-miterlimit="10" stroke-linecap="round" stroke-linejoin="round"/>
</g>
<g id="g467">
<path id="path469" d="M0.585938 4.35153V15.6484C0.585938 15.9813 0.718047 16.3004 0.953711 16.5358C1.18906 16.7715 1.5082 16.9036 1.84113 16.9036H18.1588C18.4917 16.9036 18.8109 16.7715 19.0462 16.5358C19.2819 16.3004 19.414 15.9813 19.414 15.6484V4.35153" stroke="#00A0E2" stroke-width="1.5" stroke-miterlimit="10" stroke-linecap="round" stroke-linejoin="round"/>
</g>
</g>
</g>
</g>
</g>
</g>
</g>
</svg>
