<svg width="251" height="72" viewBox="0 0 251 72" fill="none" xmlns="http://www.w3.org/2000/svg">
<g id="Group 14162">
<g id="Group 14161">
<g id="Group 14160">
<path id="Vector" d="M32.0298 31.6061C30.4892 31.6061 29.3004 31.1541 28.4635 30.25C27.6266 29.346 27.2073 28.141 27.2058 26.6348H34.141C35.6487 26.6348 36.9221 26.8694 37.9612 27.3386C38.9153 27.705 39.7352 28.3521 40.3121 29.1943C40.891 30.059 41.2906 31.0306 41.4876 32.0518C41.7113 33.1916 41.8208 34.3508 41.8143 35.5122V37.5674C41.8313 38.9195 41.5655 40.2603 41.0338 41.5041C40.5089 42.6954 39.7022 43.742 38.6829 44.5539C37.518 45.4633 36.1858 46.1361 34.7616 46.534C33.0033 47.0305 31.1816 47.2676 29.3545 47.2378C27.1722 47.248 25.0059 46.8649 22.96 46.107C20.8583 45.3348 18.9413 44.1332 17.3317 42.5791C15.7221 41.0249 14.4555 39.1526 13.6128 37.0818C12.6583 34.8421 12.1811 32.2505 12.1811 29.3069C12.1811 26.3634 12.6583 23.7726 13.6128 21.5345C14.4854 19.4142 15.795 17.5006 17.4565 15.918C19.0419 14.4286 20.9144 13.2768 22.96 12.5327C25.0109 11.7762 27.1797 11.3878 29.3663 11.3855C31.6465 11.3466 33.8977 11.8996 35.8994 12.9902C36.5757 13.3596 37.2068 13.806 37.7802 14.3204C38.1478 14.64 38.4768 15.0014 38.7605 15.3972C38.6241 15.599 38.4901 15.782 38.3585 15.9485C38.2268 16.1151 38.0975 16.2746 37.98 16.4177C37.8697 16.5622 37.7228 16.6748 37.5545 16.7438C37.1614 16.9832 36.7077 17.1045 36.2474 17.0934C35.801 17.0946 35.3582 17.0151 34.9403 16.8588C34.539 16.7024 34.0955 16.546 33.6096 16.3896C33.0402 16.2021 32.461 16.0455 31.8747 15.9204C31.0479 15.7521 30.2053 15.6735 29.3615 15.6858C27.992 15.6923 26.6393 15.9882 25.3925 16.5539C24.1457 17.1196 23.0331 17.9423 22.1278 18.9679C21.0468 20.2042 20.2265 21.6452 19.7158 23.2049C19.1139 24.9253 18.813 26.9585 18.813 29.3046C18.813 31.6788 19.1139 33.7183 19.7158 35.4231C20.235 36.9769 21.0544 38.4139 22.1278 39.653C23.0608 40.7211 24.2193 41.5696 25.5202 42.1375C26.7335 42.6624 28.0415 42.9346 29.3639 42.9375C30.7384 42.9375 31.8527 42.7811 32.7069 42.4683C33.4746 42.209 34.1594 41.7508 34.6911 41.1404C35.1775 40.5366 35.5055 39.8215 35.6455 39.0595C35.8205 38.1591 35.9047 37.2435 35.8971 36.3263V33.863C35.9049 33.4234 35.8543 32.9848 35.7466 32.5586C35.6411 32.2572 35.4264 32.0062 35.1448 31.8547C34.8803 31.7123 34.5888 31.6267 34.2891 31.6037H32.0275L32.0298 31.6061Z" fill="#00A0E2"/>
<path id="Vector_2" d="M64.2914 41.884C64.7657 42.1897 65.1618 42.6018 65.4481 43.0875L65.5985 43.2377L65.4481 43.3878C64.3192 44.6177 62.944 45.597 61.4114 46.2622C59.8789 46.9275 58.2234 47.2638 56.5522 47.2494C55.0522 47.2548 53.569 46.9346 52.2054 46.311C50.8496 45.6948 49.6289 44.8178 48.6132 43.7303C47.5874 42.6291 46.778 41.3455 46.227 39.9461C45.6326 38.4536 45.334 36.8601 45.3478 35.254C45.3345 33.657 45.5978 32.0696 46.1259 30.5619C46.6201 29.1532 47.3789 27.8513 48.3616 26.7262C49.355 25.641 50.5608 24.7707 51.9045 24.169C53.3665 23.5198 54.9522 23.1949 56.5522 23.2165C57.5964 23.2312 58.6347 23.3746 59.6437 23.6434C60.7568 23.923 61.8174 24.3802 62.7845 24.9971C63.7593 25.6196 64.5832 26.4506 65.1965 27.43C65.8561 28.5159 66.1876 29.7688 66.151 31.0382C66.151 32.4099 65.7991 33.5219 65.0954 34.3743C64.4103 35.2129 63.5545 35.8966 62.5846 36.3801C61.61 36.866 60.568 37.2036 59.4932 37.3819C58.5559 37.5526 57.606 37.6452 56.6533 37.6587C55.5689 37.6669 54.4856 37.5884 53.4137 37.4241C52.489 37.2677 51.8621 37.159 51.533 37.098C51.6148 38.1172 51.8875 39.1119 52.337 40.0306C52.6758 40.7022 53.1357 41.3058 53.6935 41.8113C54.1277 42.2071 54.6414 42.5062 55.2004 42.6887C55.6389 42.8317 56.0958 42.9108 56.5569 42.9233C57.232 42.9267 57.9057 42.8599 58.5669 42.7239C59.1446 42.6058 59.7152 42.4554 60.276 42.2734C60.7791 42.1045 61.2564 41.9372 61.7078 41.7714C62.1337 41.6096 62.585 41.5246 63.0407 41.5204C63.4841 41.518 63.9186 41.6444 64.2914 41.884ZM56.5522 27.491C56.1092 27.539 55.6722 27.631 55.2475 27.7655C54.7027 27.9404 54.1984 28.2219 53.764 28.5936C53.2166 29.0733 52.7652 29.652 52.4334 30.2992C51.9853 31.1804 51.6957 32.1333 51.5777 33.1145C52.328 33.3248 53.0924 33.4816 53.8651 33.5837C54.8461 33.734 55.8423 33.7593 56.8296 33.6587C57.7549 33.5784 58.6493 33.2871 59.4438 32.8071C60.1961 32.3379 60.606 31.552 60.6734 30.4493C60.7407 29.6141 60.414 28.8955 59.693 28.2933C58.9721 27.6912 57.9251 27.4245 56.5522 27.4933V27.491Z" fill="#363435"/>
<path id="Vector_3" d="M83.7899 42.3372C83.7923 42.4561 83.8089 42.5742 83.8393 42.6892C83.9029 42.9345 83.9368 43.1865 83.9404 43.4399C83.9509 44.0128 83.8124 44.5786 83.5384 45.0821C83.2674 45.5703 82.8887 45.9907 82.4311 46.3115C81.4277 46.9934 80.2333 47.34 79.0199 47.3015C77.8889 47.2958 76.7733 47.0386 75.7545 46.5484C74.6335 46.0118 73.6398 45.2433 72.8394 44.2939C71.9118 43.1922 71.204 41.9237 70.7541 40.5566C70.2011 38.8656 69.9357 37.094 69.9689 35.3155L70.0206 20.824C70.0206 18.8173 70.5566 17.38 71.6286 16.5119C72.7007 15.6439 74.2585 15.2091 76.3023 15.2075C76.267 15.4421 76.2341 15.7588 76.2012 16.16C76.1683 16.5612 76.1424 17.021 76.1259 17.6404C76.1095 18.2597 76.1001 19.0691 76.1001 20.0709L76.1518 23.231H82.8848C82.8848 24.7356 82.4656 25.9391 81.6271 26.8416C80.7886 27.744 79.5998 28.1953 78.0607 28.1953H76.1518L76.1001 35.3155C76.0762 36.5052 76.2034 37.6932 76.4786 38.851C76.6738 39.6854 77.023 40.4762 77.5083 41.183C77.9174 41.727 78.4509 42.1657 79.0643 42.4623C79.6777 42.759 80.3532 42.9052 81.0346 42.8886C81.6459 42.8882 82.2543 42.8037 82.8425 42.6375C83.1693 42.539 83.4866 42.4381 83.7899 42.3372Z" fill="#363435"/>
<path id="Vector_4" d="M92.6833 16.359C91.9796 17.532 91.0079 18.1178 89.7682 18.1162C89.2451 18.1193 88.7287 17.9987 88.2613 17.7643C87.7775 17.4836 87.378 17.0785 87.1046 16.5913C86.8326 16.0847 86.6944 15.5173 86.703 14.9426C86.7117 14.368 86.8669 13.805 87.154 13.3068C87.4431 12.7517 87.8831 12.2891 88.4235 11.9719C88.9228 11.6679 89.4959 11.5056 90.0809 11.5027C90.5937 11.5055 91.0966 11.6439 91.5384 11.9039C92.0531 12.1509 92.4756 12.5552 92.7444 13.0581C93.0102 13.5513 93.1484 14.1029 93.1465 14.6628C93.1428 15.2588 92.9831 15.8435 92.6833 16.359ZM96.6023 42.2359C96.3814 42.5084 96.0844 42.7093 95.7489 42.8131C95.3653 42.9617 94.9488 43.0046 94.5429 42.9374C94.1264 42.8636 93.7512 42.6409 93.4873 42.311C93.1864 41.9615 93.0336 41.3726 93.0336 40.582V28.596C93.0336 27.595 93.0422 26.7841 93.0595 26.1632C93.0767 25.5422 93.1018 25.0496 93.1347 24.6851C93.1676 24.284 93.2029 23.9673 93.2358 23.7326C91.1576 23.7326 89.5833 24.1667 88.5128 25.0347C87.4424 25.9027 86.9064 27.3409 86.9048 29.3491L86.8531 41.1802C86.8503 41.9975 86.978 42.8101 87.2316 43.5873C87.4665 44.3313 87.8603 45.0156 88.3859 45.5931C88.9228 46.1756 89.584 46.6302 90.3207 46.9233C91.1845 47.2522 92.1162 47.3642 93.0336 47.2495C94.1056 47.1822 94.8932 46.8694 95.3963 46.311C95.8629 45.8214 96.2075 45.2291 96.4025 44.582C96.6064 43.8177 96.6741 43.0236 96.6023 42.2359Z" fill="#363435"/>
<path id="Vector_5" d="M105.597 41.8845C105.597 42.8862 105.597 43.705 105.623 44.3408C105.649 44.9765 105.663 45.4786 105.698 45.8446C105.731 46.2458 105.764 46.5484 105.799 46.7478C103.721 46.7478 102.138 46.313 101.05 45.4434C99.9628 44.5738 99.4181 43.1529 99.4166 41.1806L99.4659 23.3788C99.4518 21.7949 99.698 20.2193 100.195 18.7149C100.662 17.3122 101.405 16.0169 102.381 14.9049C103.316 13.8038 104.483 12.9226 105.799 12.3242C107.236 11.681 108.797 11.3606 110.372 11.3858C111.253 11.3615 112.128 11.533 112.934 11.8879C113.688 12.1744 114.324 12.7036 114.742 13.3917C115 13.8878 115.138 14.4374 115.144 14.9964C115.146 15.353 115.096 15.708 114.994 16.0498L114.895 16.35L114.643 16.2515C114.11 16.0681 113.564 15.9254 113.01 15.8245C112.321 15.7014 111.623 15.6425 110.924 15.6486C110.587 15.656 110.25 15.6897 109.918 15.7495C109.463 15.8354 109.024 15.9871 108.613 16.1999C108.119 16.4521 107.669 16.7825 107.28 17.1782C106.818 17.6652 106.452 18.2351 106.201 18.858C105.983 19.3907 105.825 19.9463 105.731 20.5143C105.606 21.226 105.547 21.9477 105.555 22.6703V23.2216H112.337C112.337 24.7262 111.919 25.9298 111.082 26.8322C110.245 27.7347 109.055 28.1859 107.513 28.1859H105.555L105.597 41.8845Z" fill="#363435"/>
<path id="Vector_6" d="M130.472 26.4001C130.906 25.3303 131.526 24.603 132.332 24.2183C133.068 23.8532 133.864 23.6235 134.683 23.5403C135.648 23.4759 136.617 23.5573 137.558 23.7819C135.412 28.9307 133.485 33.5446 131.777 37.6236C131.04 39.3613 130.312 41.0817 129.593 42.7849C128.873 44.4882 128.228 46.0264 127.658 47.3996C127.088 48.7697 126.609 49.906 126.224 50.8084C125.838 51.7109 125.613 52.2293 125.547 52.3638C125.077 53.4336 124.457 54.1695 123.687 54.5715C122.971 54.9561 122.186 55.1953 121.376 55.2753C120.412 55.3691 119.439 55.2669 118.515 54.975C118.917 54.0366 119.352 53.02 119.822 51.9251L121.205 48.5891C121.724 47.3378 122.285 46.0084 122.888 44.6008L122.26 43.1462C121.947 42.4111 121.578 41.5251 121.153 40.4881C120.728 39.4512 120.258 38.3227 119.742 37.1028C119.222 35.8828 118.711 34.6543 118.21 33.4171C117.004 30.508 115.648 27.3018 114.14 23.7983C115.077 23.5715 116.042 23.4868 117.004 23.5473C117.818 23.6274 118.61 23.8573 119.34 24.2253C120.124 24.6101 120.751 25.3374 121.221 26.4072C121.287 26.5729 121.463 26.9991 121.748 27.6857C122.033 28.3724 122.385 29.2326 122.803 30.2664C123.222 31.3034 123.699 32.449 124.235 33.7034C124.771 34.9577 125.307 36.2199 125.843 37.4899C126.446 36.0823 127.016 34.745 127.552 33.4781C128.088 32.2113 128.565 31.0742 128.984 30.067C129.402 29.066 129.738 28.2386 129.99 27.5849C130.242 26.9311 130.403 26.5362 130.472 26.4001Z" fill="#363435"/>
<path id="Vector_7" d="M165.545 35.2663C165.558 36.8594 165.312 38.444 164.816 39.9584C164.363 41.3596 163.618 42.6492 162.63 43.7426C161.686 44.8493 160.51 45.7365 159.186 46.342C157.744 46.9955 156.174 47.3208 154.59 47.2945C153.705 47.2993 152.83 47.1111 152.025 46.7432C151.272 46.4567 150.635 45.9274 150.217 45.2394C149.968 44.7421 149.846 44.1905 149.865 43.6347V43.1068C149.864 42.9267 149.898 42.7482 149.966 42.5813L150.067 42.281L150.368 42.3795C150.964 42.578 151.578 42.721 152.201 42.8065C152.958 42.924 153.723 42.9828 154.489 42.9825C154.809 42.9741 155.128 42.9404 155.443 42.8816C155.899 42.7975 156.34 42.6457 156.75 42.4311C157.244 42.1783 157.693 41.848 158.081 41.4528C158.544 40.9658 158.911 40.3959 159.162 39.7731C159.377 39.2437 159.513 38.6856 159.564 38.1167C159.634 37.4002 159.667 36.6806 159.663 35.9607L159.764 17.5067C159.764 15.5016 160.242 14.0643 161.196 13.1947C162.15 12.3251 163.667 11.8903 165.745 11.8903C165.71 12.1249 165.677 12.4416 165.644 12.8428C165.611 13.2439 165.585 13.7038 165.569 14.3231C165.552 14.9425 165.543 15.7519 165.543 16.756L165.545 35.2663Z" fill="#363435"/>
<path id="Vector_8" d="M187.707 26.7922C188.758 27.8838 189.586 29.1691 190.145 30.5764C190.738 32.0693 191.037 33.6625 191.024 35.2685C191.036 36.8676 190.764 38.4562 190.22 39.9606C189.718 41.3559 188.95 42.641 187.959 43.7447C186.976 44.852 185.768 45.7374 184.416 46.3418C182.953 46.9918 181.367 47.3168 179.766 47.2943C178.264 47.303 176.779 46.9776 175.419 46.3418C174.065 45.7097 172.846 44.8241 171.827 43.733C170.801 42.6318 169.992 41.3482 169.441 39.9488C168.846 38.4563 168.548 36.8628 168.561 35.2567C168.548 33.6597 168.811 32.0723 169.339 30.5646C169.826 29.1678 170.586 27.8815 171.575 26.7805C172.557 25.6691 173.764 24.7797 175.118 24.1716C176.58 23.5225 178.166 23.1976 179.766 23.2191C181.285 23.2076 182.787 23.5329 184.164 24.1716C185.509 24.8006 186.713 25.6916 187.707 26.7922ZM179.766 42.9799C180.29 42.963 180.807 42.8616 181.299 42.6796C181.945 42.4369 182.523 42.0407 182.982 41.5254C183.587 40.8417 184.049 40.044 184.341 39.1793C184.707 38.1783 184.892 36.8747 184.893 35.2685C184.895 33.6622 184.711 32.3484 184.341 31.3271C184.056 30.4593 183.593 29.6603 182.982 28.981C182.518 28.4778 181.941 28.0918 181.299 27.8549C180.32 27.4534 179.221 27.4534 178.242 27.8549C177.599 28.0911 177.021 28.4772 176.557 28.981C175.946 29.6605 175.484 30.4595 175.2 31.3271C174.83 32.3484 174.646 33.6606 174.648 35.2638C174.649 36.8669 174.834 38.1705 175.2 39.1746C175.491 40.0391 175.952 40.8368 176.557 41.5207C177.016 42.0366 177.595 42.4328 178.242 42.6749C178.73 42.8609 179.244 42.9671 179.766 42.9893V42.9799Z" fill="#00A0E2"/>
<path id="Vector_9" d="M200.924 24.3848C202.495 23.5922 204.237 23.1959 205.997 23.2305C207.516 23.2189 209.018 23.5443 210.396 24.183C211.73 24.8019 212.932 25.6699 213.939 26.7402C216.108 29.0468 217.296 32.1029 217.253 35.2657C217.263 36.8471 216.991 38.4177 216.449 39.9039C215.945 41.3112 215.181 42.6121 214.197 43.7397C213.206 44.8261 212 45.6974 210.657 46.2992C209.194 46.9484 207.608 47.2733 206.007 47.2517C204.489 47.2632 202.987 46.9379 201.611 46.2992C200.276 45.6801 199.074 44.8112 198.068 43.7397C197.042 42.6385 196.233 41.3548 195.682 39.9555C195.087 38.4629 194.789 36.8695 194.802 35.2634V17.4639C194.802 15.4588 195.346 14.0293 196.434 13.1753C197.521 12.3214 199.104 11.8952 201.183 11.8967C201.15 12.0985 201.117 12.3988 201.084 12.8C201.051 13.2011 201.025 13.6703 201.009 14.3038C200.992 14.9372 200.983 15.7583 200.983 16.7624V18.3413C200.983 19.0952 200.974 19.8889 200.957 20.7226C200.941 21.5601 200.933 22.3273 200.933 23.0287L200.924 24.3848ZM205.997 42.9373C206.521 42.9215 207.039 42.8201 207.53 42.637C208.173 42.3993 208.75 42.0125 209.213 41.5086C209.825 40.8297 210.288 40.0306 210.572 39.1625C210.939 38.1428 211.123 36.8306 211.125 35.2259C211.126 33.6212 210.942 32.3089 210.572 31.2892C210.288 30.4211 209.825 29.6219 209.213 28.9431C208.749 28.44 208.172 28.0533 207.53 27.8147C206.55 27.417 205.454 27.417 204.474 27.8147C203.832 28.0533 203.255 28.44 202.791 28.9431C202.179 29.6221 201.717 30.4212 201.434 31.2892C201.066 32.3105 200.882 33.6227 200.882 35.2259C200.882 36.829 201.066 38.1412 201.434 39.1625C201.718 40.0304 202.18 40.8295 202.791 41.5086C203.254 42.0125 203.831 42.3993 204.474 42.637C204.962 42.8189 205.477 42.9203 205.997 42.9373Z" fill="#363435"/>
<path id="Vector_10" d="M232.732 40.8825C232.773 40.6241 232.752 40.3597 232.67 40.1112C232.588 39.8627 232.448 39.6373 232.262 39.4537C231.772 38.9982 231.212 38.6257 230.602 38.3511C229.883 37.9992 229.037 37.623 228.065 37.2226C227.004 36.773 225.982 36.2362 225.009 35.6179C224.249 35.1862 223.576 34.6165 223.025 33.9381C222.519 33.3112 222.135 32.595 221.894 31.8267C221.66 31.0813 221.557 30.301 221.591 29.5205C221.63 28.7157 221.818 27.925 222.146 27.1886C222.453 26.4896 222.896 25.8587 223.45 25.3328C223.98 24.836 224.582 24.4216 225.235 24.1035C225.866 23.7947 226.533 23.5668 227.221 23.4255C227.832 23.2994 228.454 23.2326 229.079 23.2261H229.683C231.35 23.3053 232.981 23.7349 234.471 24.4869C235.96 25.2389 237.273 26.2962 238.325 27.5897L238.477 27.7399L238.325 27.9393C238.036 28.3655 237.66 28.7248 237.22 28.9927C236.844 29.229 236.408 29.3513 235.964 29.3446C235.498 29.3457 235.036 29.2515 234.608 29.0677C234.171 28.8848 233.703 28.6924 233.197 28.4906C232.56 28.2232 231.968 27.998 231.413 27.815C230.871 27.6327 230.302 27.5392 229.73 27.5381C228.995 27.5381 228.446 27.6945 228.084 28.0073C227.735 28.2907 227.502 28.6923 227.431 29.1358C227.389 29.4288 227.423 29.7274 227.529 30.0039C227.635 30.2803 227.809 30.5257 228.035 30.717C228.651 31.2193 229.347 31.6157 230.094 31.89C231.133 32.3249 232.239 32.8011 233.411 33.3188C234.533 33.8072 235.581 34.4483 236.526 35.2238C237.415 35.9548 238.12 36.8827 238.586 37.9335C239.056 38.9845 239.107 40.2631 238.738 41.7693C238.542 42.4314 238.254 43.0631 237.883 43.6461C237.441 44.3416 236.869 44.9461 236.199 45.4267C235.402 46.0007 234.521 46.4494 233.588 46.757C232.426 47.1278 231.212 47.3054 229.993 47.2825C229.774 47.2863 229.555 47.2698 229.339 47.2332C227.686 47.1533 226.067 46.7256 224.591 45.9781C223.087 45.255 221.758 44.2143 220.698 42.9282L220.547 42.7781L220.698 42.5787C220.845 42.3329 221.032 42.1127 221.25 41.9264C221.45 41.7599 221.636 41.6097 221.802 41.476C222.175 41.2816 222.588 41.1779 223.008 41.1734C223.475 41.1734 223.936 41.2676 224.365 41.4502C224.799 41.6332 225.269 41.8256 225.775 42.0273C226.283 42.2764 226.813 42.4774 227.358 42.6279C227.99 42.8042 228.638 42.922 229.292 42.9798C230.499 42.9798 231.361 42.7452 231.878 42.276C232.37 41.8185 232.664 41.3517 232.732 40.8825Z" fill="#363435"/>
</g>
</g>
<path id="Vector 12 (Stroke)" fill-rule="evenodd" clip-rule="evenodd" d="M0.567871 0H250.568V71.3514H179.216V55.6119C179.216 55.2127 179.54 54.8891 179.939 54.8891C180.338 54.8891 180.662 55.2127 180.662 55.6119V69.906H249.122V1.44549H2.01337V69.906H28.5303V55.6119C28.5303 55.2127 28.8538 54.8891 29.253 54.8891C29.6522 54.8891 29.9757 55.2127 29.9757 55.6119V71.3514H0.567871V0Z" fill="#363435"/>
<g id="Layer 2">
<g id="Layer 1">
<path id="Vector_11" d="M51.0115 65.1715C50.7695 65.1865 50.5271 65.1496 50.3005 65.0632C50.0739 64.9768 49.8684 64.8428 49.6977 64.6703C49.3753 64.3027 49.2086 63.8238 49.2329 63.3351H51.7733C52.2554 63.3218 52.7348 63.4099 53.1808 63.5937C53.5324 63.7296 53.835 63.9685 54.0491 64.2792C54.2628 64.5992 54.4109 64.9585 54.4849 65.3364C54.5685 65.7622 54.6085 66.1955 54.6043 66.6296V67.3893C54.6118 67.8881 54.5139 68.3828 54.317 68.841C54.1242 69.2835 53.8261 69.6721 53.4487 69.9725C53.0201 70.3084 52.5299 70.5566 52.0058 70.7032C51.3632 70.8842 50.6976 70.9702 50.0302 70.9586C49.2244 70.9601 48.4249 70.8155 47.6705 70.5318C46.8967 70.2443 46.1911 69.7986 45.5987 69.2231C45.0062 68.6475 44.5399 67.9548 44.2294 67.1889C43.8622 66.2773 43.6832 65.3007 43.7032 64.3179C43.6832 63.3352 43.8622 62.3586 44.2294 61.447C44.5489 60.6636 45.0295 59.9564 45.6401 59.3714C46.2225 58.8205 46.9113 58.3947 47.664 58.1202C48.4219 57.842 49.223 57.7008 50.0302 57.7032C50.4955 57.6964 50.9595 57.7551 51.4086 57.8777C51.7647 57.9793 52.1089 58.1191 52.4351 58.2948C52.6837 58.4326 52.9165 58.5974 53.1291 58.7862C53.2629 58.906 53.3841 59.0392 53.4907 59.1839L53.3422 59.3908C53.2905 59.4522 53.2453 59.5104 53.2034 59.5654C53.1623 59.6188 53.1077 59.6601 53.0452 59.685C52.9008 59.7741 52.7337 59.819 52.5642 59.8143C52.4047 59.8147 52.2463 59.7873 52.0961 59.7335C51.9476 59.6753 51.7733 59.6171 51.6055 59.5557C51.3938 59.4852 51.1782 59.4269 50.9599 59.3811C50.6563 59.3183 50.3466 59.2901 50.0366 59.297C49.549 59.299 49.0669 59.4002 48.6195 59.5945C48.1431 59.8014 47.7178 60.1104 47.3735 60.4997C46.9722 60.9562 46.668 61.4897 46.4793 62.0678C46.2448 62.7984 46.1356 63.5637 46.1565 64.3309C46.1356 65.0981 46.2448 65.8633 46.4793 66.594C46.6682 67.1696 46.9701 67.7016 47.3671 68.1588C47.7092 68.5537 48.1348 68.8674 48.6131 69.077C49.0605 69.2712 49.5426 69.3724 50.0302 69.3744C50.4474 69.3887 50.8639 69.3285 51.2601 69.1966C51.5439 69.0985 51.796 68.9253 51.9896 68.6955C52.1695 68.4739 52.2905 68.2103 52.3415 67.9292C52.4062 67.5959 52.4375 67.2569 52.4351 66.9173V66.0024C52.437 65.8401 52.4185 65.6783 52.3802 65.5206C52.34 65.4101 52.2608 65.3181 52.1575 65.262C52.0576 65.2091 51.9475 65.1782 51.8347 65.1715H51.0115Z" fill="#363435"/>
<path id="Vector_12" d="M62.9619 63.3901C63.3481 63.7946 63.6528 64.27 63.8593 64.79C64.0777 65.3414 64.1873 65.9298 64.1821 66.523C64.1862 67.1136 64.0857 67.7004 63.8851 68.2559C63.7025 68.7759 63.4195 69.2548 63.0523 69.6655C62.6964 70.0779 62.256 70.4087 61.761 70.6354C61.2166 70.8669 60.6285 70.9772 60.0373 70.9587C59.48 70.9642 58.9285 70.8449 58.4232 70.6095C57.9237 70.3748 57.4743 70.0454 57.0997 69.6396C56.721 69.2342 56.423 68.7602 56.2217 68.2429C56.0034 67.6916 55.8937 67.1031 55.8989 66.51C55.8948 65.9202 55.9919 65.334 56.1862 64.7771C56.3652 64.2604 56.645 63.7845 57.0094 63.3772C57.367 62.9667 57.807 62.6362 58.3006 62.4073C58.8392 62.169 59.4227 62.0499 60.0114 62.0581C60.5685 62.0545 61.1196 62.1737 61.6255 62.4073C62.1328 62.641 62.5874 62.9753 62.9619 63.3901ZM60.0373 69.3777C60.2305 69.3709 60.4212 69.3327 60.6022 69.2646C60.8405 69.1752 61.0533 69.0287 61.222 68.8378C61.4454 68.5845 61.6156 68.2887 61.7223 67.9681C61.8721 67.5016 61.9409 67.0128 61.9257 66.523C61.9403 66.03 61.8715 65.5381 61.7223 65.0681C61.6178 64.7465 61.4474 64.4502 61.222 64.1984C61.0513 64.0121 60.8389 63.8692 60.6022 63.7813C60.4237 63.7067 60.2323 63.6683 60.0389 63.6683C59.8455 63.6683 59.654 63.7067 59.4756 63.7813C59.2389 63.8692 59.0265 64.0121 58.8558 64.1984C58.6293 64.4494 58.4587 64.7459 58.3555 65.0681C58.2063 65.5381 58.1375 66.03 58.1521 66.523C58.1369 67.0128 58.2057 67.5016 58.3555 67.9681C58.461 68.2893 58.6313 68.5853 58.8558 68.8378C59.0244 69.0287 59.2373 69.1752 59.4756 69.2646C59.6554 69.3327 59.8451 69.3709 60.0373 69.3777Z" fill="#363435"/>
<path id="Vector_13" d="M75.6901 64.78C75.7127 65.2665 75.5461 65.7428 75.2253 66.1088C75.0546 66.2813 74.8491 66.4152 74.6225 66.5016C74.3959 66.5881 74.1535 66.625 73.9115 66.6099H69.9184C69.8932 66.1217 70.0588 65.6428 70.38 65.2747C70.5507 65.1022 70.7562 64.9682 70.9828 64.8818C71.2094 64.7954 71.4518 64.7585 71.6938 64.7735L75.6901 64.78Z" fill="#363435"/>
<path id="Vector_14" d="M89.4351 65.1715C89.1931 65.1865 88.9507 65.1496 88.7241 65.0632C88.4975 64.9768 88.292 64.8428 88.1213 64.6703C87.7989 64.3027 87.6321 63.8238 87.6564 63.3351H90.2098C90.6918 63.3218 91.1713 63.4099 91.6172 63.5937C91.9689 63.7296 92.2715 63.9685 92.4856 64.2792C92.6992 64.5992 92.8474 64.9585 92.9214 65.3364C93.005 65.7622 93.045 66.1955 93.0408 66.6296V67.3893C93.0467 67.8879 92.9488 68.3823 92.7535 68.841C92.5607 69.2835 92.2626 69.6721 91.8852 69.9725C91.4566 70.3084 90.9663 70.5566 90.4422 70.7032C89.7958 70.8876 89.1258 70.9759 88.4538 70.9651C87.6479 70.9665 86.8485 70.822 86.0941 70.5383C85.3209 70.2515 84.6157 69.8068 84.0233 69.2324C83.4309 68.658 82.9642 67.9665 82.653 67.2018C82.2808 66.2869 82.0984 65.3057 82.1171 64.3179C82.0971 63.3352 82.2761 62.3586 82.6433 61.447C82.9647 60.663 83.4476 59.9558 84.0604 59.3714C84.6428 58.8205 85.3316 58.3947 86.0844 58.1202C86.8432 57.8416 87.6455 57.7004 88.4538 57.7032C88.9191 57.6964 89.3831 57.7551 89.8321 57.8777C90.1883 57.9793 90.5325 58.1191 90.8586 58.2948C91.1073 58.4326 91.34 58.5974 91.5527 58.7862C91.6865 58.906 91.8077 59.0392 91.9142 59.1839L91.7657 59.3908C91.7141 59.4522 91.6689 59.5104 91.6269 59.5654C91.5859 59.6188 91.5312 59.6601 91.4687 59.685C91.3244 59.7741 91.1572 59.819 90.9878 59.8143C90.825 59.8161 90.6632 59.7887 90.51 59.7335C90.3615 59.6753 90.1872 59.6171 90.0194 59.5557C89.8077 59.4852 89.5921 59.4269 89.3737 59.3811C89.0701 59.3185 88.7604 59.2903 88.4505 59.297C87.9629 59.299 87.4808 59.4002 87.0334 59.5945C86.557 59.8014 86.1316 60.1104 85.7874 60.4997C85.3884 60.9572 85.0854 61.4905 84.8965 62.0678C84.6638 62.7989 84.5547 63.5638 84.5736 64.3309C84.5545 65.098 84.6636 65.8629 84.8965 66.594C85.0877 67.1692 85.3905 67.701 85.7874 68.1588C86.1295 68.5537 86.5552 68.8674 87.0334 69.077C87.4808 69.2712 87.9629 69.3724 88.4505 69.3744C88.8678 69.3885 89.2842 69.3283 89.6804 69.1966C89.9654 69.099 90.2186 68.9258 90.4132 68.6955C90.5931 68.4739 90.7141 68.2103 90.765 67.9292C90.8297 67.5959 90.8611 67.2569 90.8586 66.9173V66.0024C90.8605 65.8401 90.8421 65.6783 90.8038 65.5206C90.7625 65.4107 90.6836 65.319 90.581 65.262C90.4811 65.2091 90.3711 65.1782 90.2582 65.1715H89.4254H89.4351Z" fill="#363435"/>
<path id="Vector_15" d="M101.311 68.9673C101.485 69.0811 101.631 69.2338 101.737 69.4134L101.792 69.4684L101.737 69.5233C101.33 69.9694 100.836 70.3261 100.284 70.5708C99.7111 70.829 99.0893 70.9613 98.4606 70.9588C97.9096 70.9611 97.3646 70.8442 96.8628 70.6161C96.3615 70.3843 95.9115 70.0545 95.5393 69.6462C95.1606 69.2408 94.8626 68.7668 94.6612 68.2495C94.4429 67.6982 94.3333 67.1097 94.3384 66.5166C94.3343 65.9268 94.4315 65.3406 94.6257 64.7837C94.8068 64.2631 95.0863 63.7824 95.4489 63.3676C95.8107 62.9675 96.25 62.6452 96.7401 62.4204C97.2787 62.1821 97.8622 62.063 98.451 62.0712C98.8357 62.0763 99.2183 62.1285 99.5905 62.2264C99.9999 62.3306 100.39 62.4998 100.746 62.7275C101.105 62.9575 101.408 63.2645 101.634 63.6263C101.877 64.028 102 64.4918 101.986 64.9615C102.005 65.405 101.868 65.8412 101.598 66.1933C101.345 66.5025 101.029 66.7547 100.672 66.9337C100.318 67.1142 99.9396 67.2406 99.5485 67.3087C99.2035 67.3733 98.8536 67.4079 98.5026 67.4122C98.1029 67.4159 97.7035 67.3878 97.3082 67.3281C96.9693 67.2731 96.7369 67.2343 96.6142 67.2085C96.6438 67.5851 96.7446 67.9526 96.9112 68.2915C97.0374 68.5357 97.2069 68.7548 97.4115 68.9382C97.5716 69.0842 97.7608 69.1944 97.9668 69.2615C98.1276 69.3132 98.295 69.3415 98.4639 69.3455C98.7132 69.3461 98.962 69.3212 99.2063 69.2712C99.4181 69.2273 99.6272 69.1712 99.8326 69.103C100.02 69.0416 100.194 68.9802 100.362 68.9188C100.519 68.8584 100.685 68.8266 100.853 68.825C101.016 68.8282 101.175 68.8775 101.311 68.9673ZM98.4606 63.6521C98.2975 63.6704 98.1365 63.7039 97.9797 63.7524C97.7792 63.8173 97.5937 63.9218 97.4341 64.0595C97.233 64.2374 97.0666 64.4512 96.9435 64.69C96.7771 65.0147 96.6679 65.3658 96.6207 65.7278C96.897 65.8061 97.1785 65.8644 97.4632 65.9023C97.8243 65.9573 98.1908 65.9671 98.5543 65.9314C98.8978 65.9006 99.2294 65.7899 99.5227 65.6081C99.6652 65.5132 99.7814 65.3836 99.8604 65.2316C99.9394 65.0795 99.9787 64.9098 99.9746 64.7384C99.9874 64.5855 99.9609 64.4318 99.8976 64.292C99.8344 64.1522 99.7364 64.031 99.6131 63.9399C99.2787 63.7023 98.8672 63.5995 98.4606 63.6521Z" fill="#363435"/>
<path id="Vector_16" d="M108.487 69.1355C108.488 69.1792 108.495 69.2227 108.506 69.2648C108.531 69.3555 108.544 69.4489 108.545 69.5429C108.547 69.7527 108.496 69.9596 108.397 70.1442C108.297 70.3248 108.158 70.4806 107.99 70.6001C107.62 70.8533 107.179 70.9823 106.731 70.9686C106.314 70.9673 105.902 70.8723 105.527 70.6906C105.114 70.4923 104.749 70.2079 104.455 69.8565C104.114 69.4507 103.853 68.9832 103.687 68.4792C103.484 67.8531 103.387 67.1975 103.4 66.5394L103.422 61.1855C103.422 60.4462 103.62 59.916 104.016 59.5948C104.517 59.2399 105.125 59.0697 105.737 59.1131C105.737 59.1972 105.711 59.3168 105.698 59.4623C105.685 59.6078 105.675 59.7856 105.669 60.0119C105.663 60.2382 105.669 60.5389 105.669 60.9107V62.0778H108.148C108.172 62.5649 108.007 63.0423 107.687 63.4098C107.516 63.5821 107.31 63.7159 107.084 63.8023C106.857 63.8888 106.615 63.9258 106.373 63.9109H105.682V66.5426C105.674 66.9778 105.72 67.4123 105.821 67.8358C105.885 68.1421 106.005 68.4337 106.176 68.6958C106.324 68.8989 106.518 69.0635 106.743 69.176C106.968 69.2884 107.216 69.3455 107.467 69.3424C107.693 69.343 107.918 69.3115 108.135 69.2486L108.487 69.1355Z" fill="#363435"/>
<path id="Vector_17" d="M119.588 64.78C119.61 65.2659 119.445 65.7416 119.127 66.1088C118.956 66.2808 118.75 66.4144 118.524 66.5007C118.297 66.5871 118.055 66.6243 117.813 66.6099H113.817C113.793 66.1219 113.958 65.6435 114.278 65.2747C114.449 65.1022 114.654 64.9682 114.881 64.8818C115.108 64.7954 115.35 64.7585 115.592 64.7735L119.588 64.78Z" fill="#363435"/>
<g id="Group 14163">
<path id="Vector_18" d="M132.141 65.1715C131.899 65.1865 131.657 65.1496 131.43 65.0632C131.204 64.9768 130.998 64.8428 130.827 64.6703C130.508 64.3012 130.345 63.8225 130.372 63.3351H132.922C133.404 63.3215 133.884 63.4096 134.33 63.5937C134.682 63.7287 134.985 63.9678 135.198 64.2792C135.412 64.5992 135.56 64.9585 135.634 65.3364C135.718 65.7622 135.758 66.1955 135.753 66.6296V67.3893C135.761 67.8881 135.663 68.3828 135.466 68.841C135.273 69.2835 134.975 69.6721 134.598 69.9725C134.169 70.3084 133.679 70.5566 133.155 70.7032C132.508 70.8876 131.838 70.9759 131.166 70.9651C130.36 70.9665 129.561 70.822 128.807 70.5383C128.033 70.2515 127.328 69.8068 126.736 69.2324C126.143 68.658 125.677 67.9665 125.366 67.2018C124.998 66.2902 124.819 65.3136 124.839 64.3309C124.819 63.3481 124.998 62.3715 125.366 61.4599C125.687 60.676 126.17 59.9687 126.783 59.3843C127.365 58.8334 128.054 58.4076 128.807 58.1332C129.56 57.852 130.356 57.7065 131.16 57.7032C131.625 57.6964 132.089 57.7551 132.538 57.8777C132.894 57.9793 133.239 58.1191 133.565 58.2948C133.809 58.4325 134.038 58.5974 134.246 58.7862C134.38 58.906 134.501 59.0392 134.607 59.1839L134.459 59.3908C134.407 59.4522 134.362 59.5104 134.32 59.5654C134.279 59.6188 134.224 59.6601 134.162 59.685C134.018 59.7741 133.85 59.819 133.681 59.8143C133.517 59.8162 133.354 59.7888 133.2 59.7335C133.051 59.6753 132.877 59.6171 132.709 59.5557C132.498 59.4855 132.282 59.4272 132.064 59.3811C131.759 59.3185 131.448 59.2903 131.137 59.297C130.651 59.2987 130.17 59.4 129.723 59.5945C129.246 59.8009 128.819 60.11 128.474 60.4997C128.075 60.9567 127.773 61.4902 127.586 62.0678C127.352 62.7984 127.243 63.5637 127.264 64.3309C127.243 65.0981 127.352 65.8633 127.586 66.594C127.775 67.1696 128.077 67.7016 128.474 68.1588C128.817 68.5546 129.244 68.8684 129.723 69.077C130.17 69.2715 130.651 69.3727 131.137 69.3744C131.554 69.3887 131.971 69.3285 132.367 69.1966C132.66 69.1031 132.92 68.9295 133.119 68.6955C133.299 68.4739 133.42 68.2103 133.471 67.9292C133.536 67.5959 133.567 67.2569 133.565 66.9173V66.0024C133.567 65.8401 133.548 65.6783 133.51 65.5206C133.471 65.4094 133.391 65.3171 133.287 65.262C133.187 65.2091 133.077 65.1782 132.964 65.1715H132.131H132.141Z" fill="#363435"/>
<path id="Vector_19" d="M137.151 66.2998C137.125 65.606 137.249 64.9147 137.513 64.2727C137.717 63.7918 138.036 63.3687 138.442 63.0409C138.822 62.7455 139.264 62.539 139.734 62.4363C140.198 62.334 140.672 62.2819 141.147 62.2811H142.055C142.115 62.5165 142.127 62.7619 142.09 63.0021C142.059 63.2008 141.973 63.3868 141.841 63.5388C141.661 63.7335 141.412 63.8496 141.147 63.8621C140.936 63.886 140.729 63.9327 140.528 64.0011C140.319 64.071 140.132 64.1922 139.982 64.3535C139.799 64.5581 139.663 64.8011 139.585 65.0648C139.466 65.4675 139.413 65.8866 139.427 66.3063V68.9864C139.427 69.3582 139.427 69.6557 139.427 69.8852C139.427 70.1148 139.443 70.2958 139.453 70.4316C139.462 70.5674 139.479 70.6902 139.491 70.7549C138.875 70.7953 138.263 70.6292 137.752 70.2829C137.338 69.9887 137.151 69.4488 137.151 68.6955V66.2998Z" fill="#363435"/>
<path id="Vector_20" d="M149.473 63.3901C149.867 63.7915 150.177 64.2673 150.386 64.79C150.605 65.3413 150.714 65.9298 150.709 66.5229C150.713 67.1136 150.613 67.7003 150.412 68.2558C150.226 68.7768 149.938 69.2559 149.566 69.6654C149.21 70.0771 148.769 70.4077 148.275 70.6353C147.736 70.8736 147.153 70.9927 146.564 70.9845C146.007 70.9896 145.456 70.8703 144.95 70.6353C144.452 70.3989 144.002 70.0698 143.627 69.6654C143.25 69.2583 142.952 68.7847 142.749 68.2687C142.53 67.7174 142.421 67.1289 142.426 66.5358C142.422 65.9459 142.519 65.3598 142.713 64.8029C142.892 64.2862 143.172 63.8103 143.536 63.403C143.894 62.992 144.334 62.6615 144.828 62.4331C145.366 62.1945 145.95 62.0754 146.538 62.0839C147.096 62.0794 147.647 62.1987 148.152 62.4331C148.652 62.6601 149.101 62.9856 149.473 63.3901ZM146.551 69.3776C146.744 69.3709 146.935 69.3326 147.116 69.2645C147.355 69.1751 147.567 69.0286 147.736 68.8377C147.958 68.5842 148.127 68.2884 148.233 67.968C148.383 67.5015 148.452 67.0127 148.436 66.5229C148.451 66.0299 148.382 65.538 148.233 65.068C148.13 64.7466 147.96 64.4504 147.736 64.1983C147.565 64.012 147.353 63.8691 147.116 63.7813C146.937 63.7066 146.745 63.6681 146.551 63.6681C146.357 63.6681 146.165 63.7066 145.986 63.7813C145.75 63.8691 145.537 64.012 145.367 64.1983C145.141 64.4502 144.971 64.7464 144.866 65.068C144.717 65.538 144.648 66.0299 144.663 66.5229C144.648 67.0127 144.716 67.5015 144.866 67.968C144.973 68.2887 145.143 68.5844 145.367 68.8377C145.535 69.0286 145.748 69.1751 145.986 69.2645C146.167 69.3326 146.358 69.3709 146.551 69.3776Z" fill="#363435"/>
<path id="Vector_21" d="M162.924 63.2446C163.038 62.8992 163.279 62.6103 163.598 62.4363C163.868 62.3011 164.16 62.2167 164.46 62.1874C164.814 62.1638 165.169 62.1954 165.513 62.2811C165.031 63.5032 164.587 64.6326 164.183 65.6693C164.008 66.1155 163.831 66.5617 163.644 67.0143C163.456 67.4669 163.285 67.8904 163.118 68.2913C162.95 68.6922 162.795 69.0479 162.656 69.3582C162.517 69.6686 162.398 69.9014 162.314 70.063C162.153 70.4055 161.887 70.6876 161.555 70.868C161.284 71.0105 160.987 71.0962 160.682 71.1201C160.376 71.144 160.07 71.1056 159.78 71.0071C159.543 70.2678 159.317 69.5576 159.102 68.8765C158.915 68.2816 158.73 67.676 158.547 67.0595C158.364 66.4431 158.226 65.9247 158.133 65.5044C158.033 65.9474 157.933 66.3935 157.836 66.8365C157.74 67.2794 157.633 67.7029 157.514 68.0973C157.394 68.4918 157.291 68.8571 157.171 69.1901C157.075 69.4775 156.955 69.7565 156.813 70.0242C156.653 70.344 156.401 70.6086 156.09 70.784C155.833 70.9251 155.549 71.0131 155.257 71.0426C154.933 71.0794 154.604 71.0542 154.289 70.9683C154.202 70.7484 154.073 70.4348 153.898 70.0339C153.724 69.633 153.537 69.1836 153.333 68.689C153.13 68.1943 152.917 67.677 152.688 67.1339L152.042 65.5691C151.839 65.068 151.655 64.6154 151.487 64.208C151.319 63.8006 151.193 63.4838 151.109 63.2607C151.025 63.0376 150.886 62.7984 150.812 62.6141C150.764 62.501 150.719 62.391 150.683 62.2908C151.027 62.2051 151.382 62.1735 151.735 62.1971C152.036 62.2264 152.328 62.3108 152.597 62.446C152.918 62.6231 153.165 62.91 153.291 63.2543C153.34 63.39 153.411 63.5776 153.504 63.8006C153.598 64.0237 153.695 64.2791 153.798 64.5507C153.901 64.8223 154.014 65.1068 154.121 65.401C154.227 65.6952 154.35 65.9959 154.463 66.2901C154.734 66.9722 155.022 67.7061 155.331 68.495C155.515 67.7061 155.696 66.9722 155.867 66.2901C156.016 65.6974 156.17 65.1143 156.329 64.541C156.49 63.9655 156.626 63.5388 156.736 63.2478C156.848 62.9099 157.077 62.6233 157.381 62.4395C157.634 62.3041 157.91 62.2195 158.195 62.1906C158.521 62.1675 158.848 62.1992 159.163 62.2844L160.829 68.4885C161.122 67.6997 161.405 66.9647 161.678 66.2836C161.912 65.6909 162.14 65.1079 162.362 64.5345C162.627 63.9558 162.801 63.5226 162.924 63.2446Z" fill="#363435"/>
</g>
</g>
</g>
</g>
</svg>
