<svg width="45" height="59" viewBox="0 0 45 59" fill="none" xmlns="http://www.w3.org/2000/svg">
<g id="pdf 1" clip-path="url(#clip0_344_6049)">
<g id="Group">
<g id="Vrstva_x0020_1_15_">
<path id="Vector" fill-rule="evenodd" clip-rule="evenodd" d="M8.06718 0H27.8632L44.641 17.4258V51.3191C44.641 55.565 41.1937 59 36.9474 59H8.06718C3.80616 59 0.358887 55.565 0.358887 51.3191V7.68088C0.358812 3.43502 3.80609 0 8.06718 0Z" fill="#E5252A"/>
<g id="Group_2">
<path id="Vector_2" opacity="0.302" fill-rule="evenodd" clip-rule="evenodd" d="M27.8486 0V17.2931H44.6412L27.8486 0Z" fill="white"/>
<path id="Vector_3" d="M8.92529 44.0215V33.2446H13.5266C14.6659 33.2446 15.5684 33.5542 16.249 34.1882C16.9295 34.8073 17.2699 35.6477 17.2699 36.6944C17.2699 37.7411 16.9295 38.5815 16.249 39.2007C15.5684 39.8346 14.6659 40.1442 13.5266 40.1442H11.692V44.0215H8.92529ZM11.692 37.8002H13.2159C13.6302 37.8002 13.9557 37.7117 14.1776 37.5053C14.3995 37.3137 14.518 37.0483 14.518 36.6945C14.518 36.3407 14.3996 36.0753 14.1776 35.8836C13.9557 35.6772 13.6302 35.5888 13.2159 35.5888H11.692V37.8002ZM18.409 44.0215V33.2446H22.241C22.9955 33.2446 23.7057 33.3478 24.3715 33.569C25.0373 33.7901 25.6439 34.0997 26.1765 34.5273C26.7092 34.94 27.1382 35.5003 27.4489 36.2079C27.7448 36.9156 27.9076 37.7264 27.9076 38.6404C27.9076 39.5398 27.7449 40.3506 27.4489 41.0582C27.1382 41.7659 26.7092 42.3261 26.1765 42.7388C25.6438 43.1664 25.0373 43.476 24.3715 43.6971C23.7057 43.9182 22.9955 44.0215 22.241 44.0215H18.409ZM21.1166 41.6775H21.9155C22.3445 41.6775 22.744 41.6333 23.1139 41.53C23.469 41.4268 23.8093 41.2646 24.1348 41.0435C24.4455 40.8224 24.697 40.5127 24.8745 40.1C25.0521 39.6872 25.1409 39.2007 25.1409 38.6404C25.1409 38.0655 25.0521 37.579 24.8745 37.1662C24.697 36.7534 24.4455 36.4439 24.1348 36.2227C23.8093 36.0016 23.469 35.8394 23.1139 35.7362C22.744 35.633 22.3445 35.5887 21.9155 35.5887H21.1166V41.6775ZM29.2983 44.0215V33.2446H36.9919V35.5887H32.065V37.3136H36.0006V39.6429H32.065V44.0215H29.2983Z" fill="white"/>
</g>
</g>
</g>
</g>
<defs>
<clipPath id="clip0_344_6049">
<rect width="45" height="59" fill="white"/>
</clipPath>
</defs>
</svg>
