<svg width="20" height="21" viewBox="0 0 20 21" fill="none" xmlns="http://www.w3.org/2000/svg">
<g id="Pin">
<path id="Subtract" d="M10.0046 17.1941L9.75531 16.7607L10.0046 17.1941ZM9.16195 17.1941L9.41128 16.7607L9.16195 17.1941ZM14.5 9.92171C14.5 11.785 13.6459 13.3064 12.6069 14.4696C11.5666 15.6345 10.3678 16.4083 9.75531 16.7607L10.254 17.6275C10.9149 17.2473 12.2138 16.411 13.3528 15.1358C14.4931 13.859 15.5 12.1104 15.5 9.92171H14.5ZM9.58329 4.58838C12.2644 4.58838 14.5 6.94065 14.5 9.92171H15.5C15.5 6.45945 12.8852 3.58838 9.58329 3.58838V4.58838ZM4.66663 9.92171C4.66663 6.94065 6.90214 4.58838 9.58329 4.58838V3.58838C6.28136 3.58838 3.66663 6.45945 3.66663 9.92171H4.66663ZM9.41128 16.7607C8.79877 16.4083 7.60002 15.6345 6.55966 14.4696C5.52073 13.3064 4.66663 11.785 4.66663 9.92171H3.66663C3.66663 12.1104 4.67346 13.859 5.81383 15.1358C6.95278 16.411 8.25169 17.2473 8.91262 17.6275L9.41128 16.7607ZM9.75531 16.7607C9.64559 16.8238 9.52099 16.8238 9.41128 16.7607L8.91262 17.6275C9.33106 17.8682 9.83553 17.8682 10.254 17.6275L9.75531 16.7607ZM11.4047 9.92171C11.4047 11.0618 10.555 11.9217 9.58329 11.9217V12.9217C11.1758 12.9217 12.4047 11.543 12.4047 9.92171H11.4047ZM9.58329 7.92171C10.555 7.92171 11.4047 8.7816 11.4047 9.92171H12.4047C12.4047 8.3004 11.1758 6.92171 9.58329 6.92171V7.92171ZM7.76186 9.92171C7.76186 8.7816 8.61159 7.92171 9.58329 7.92171V6.92171C7.99081 6.92171 6.76186 8.3004 6.76186 9.92171H7.76186ZM9.58329 11.9217C8.61159 11.9217 7.76186 11.0618 7.76186 9.92171H6.76186C6.76186 11.543 7.99081 12.9217 9.58329 12.9217V11.9217Z" fill="#A4A4A4"/>
</g>
</svg>
