<svg width="150" height="150" viewBox="0 0 150 150" fill="none" xmlns="http://www.w3.org/2000/svg">
<g id="17719852_5889296 1" clip-path="url(#clip0_1259_7)">
<g id="Background_Complete">
<g id="Group">
<path id="Vector" d="M141.41 124.332H130.406V124.415H141.41V124.332Z" fill="#EBEBEB"/>
<path id="Vector_2" d="M101.982 125.234H99.0942V125.317H101.982V125.234Z" fill="#EBEBEB"/>
<path id="Vector_3" d="M130.074 121.247H123.698V121.33H130.074V121.247Z" fill="#EBEBEB"/>
<path id="Vector_4" d="M23.7234 121.805H9.37402V121.888H23.7234V121.805Z" fill="#EBEBEB"/>
<path id="Vector_5" d="M28.7856 121.805H26.6816V121.888H28.7856V121.805Z" fill="#EBEBEB"/>
<path id="Vector_6" d="M66.7436 123.208H35.623V123.291H66.7436V123.208Z" fill="#EBEBEB"/>
<g id="Group_2">
<path id="Vector_7" d="M71.1472 104.169H6.99687C5.95139 104.169 5.10059 103.318 5.10059 102.272V12.0987C5.10059 11.0532 5.95139 10.2024 6.99687 10.2024H71.1472C72.1924 10.2024 73.0432 11.0532 73.0432 12.0987V102.272C73.0432 103.318 72.1924 104.169 71.1472 104.169ZM6.99687 10.2858C5.9969 10.2858 5.18364 11.099 5.18364 12.099V102.273C5.18364 103.273 5.9969 104.086 6.99687 104.086H71.1472C72.1468 104.086 72.9601 103.273 72.9601 102.273V12.0987C72.9601 11.099 72.1468 10.2854 71.1472 10.2854L6.99687 10.2858Z" fill="#EBEBEB"/>
<path id="Vector_8" d="M143.004 104.169H78.8535C77.8083 104.169 76.9575 103.318 76.9575 102.272V12.0987C76.9575 11.0532 77.8083 10.2024 78.8535 10.2024H143.004C144.05 10.2024 144.9 11.0532 144.9 12.0987V102.272C144.9 103.318 144.049 104.169 143.004 104.169ZM78.8535 10.2858C77.8538 10.2858 77.0406 11.099 77.0406 12.099V102.273C77.0406 103.273 77.8538 104.086 78.8535 104.086H143.004C144.004 104.086 144.817 103.273 144.817 102.273V12.0987C144.817 11.099 144.004 10.2854 143.004 10.2854L78.8535 10.2858Z" fill="#EBEBEB"/>
</g>
<path id="Vector_9" d="M158.054 118.985H-8.05371V119.068H158.054V118.985Z" fill="#EBEBEB"/>
</g>
<g id="Group_3">
<path id="Vector_10" d="M127.083 46.6982H113.95C112.701 46.6982 111.688 47.7112 111.688 48.9603V57.4191C111.688 58.6686 112.701 59.6812 113.95 59.6812H117.726L119.413 61.8868C119.969 62.614 121.064 62.614 121.62 61.8868L123.307 59.6812H127.083C128.332 59.6812 129.345 58.6683 129.345 57.4191V48.9603C129.345 47.7112 128.332 46.6982 127.083 46.6982Z" fill="#E0E0E0"/>
<g id="Group_4">
<path id="Vector_11" d="M117.694 54.0941C117.038 53.4499 116.753 52.7443 116.753 52.1134C116.753 51.0357 117.471 50.3181 118.56 50.3181C119.575 50.3181 119.922 50.7889 120.516 51.4692C121.111 50.7889 121.457 50.3181 122.472 50.3181C123.562 50.3181 124.28 51.0357 124.28 52.1134C124.28 52.7446 123.995 53.4499 123.339 54.0941L120.516 56.9046L117.694 54.0941Z" fill="white"/>
</g>
</g>
<g id="Group_5">
<path id="Vector_12" d="M25.4533 113.21C24.6803 112.451 24.3447 111.62 24.3447 110.876C24.3447 109.607 25.1909 108.761 26.4742 108.761C27.6702 108.761 28.0788 109.316 28.7791 110.118C29.4791 109.316 29.8877 108.761 31.084 108.761C32.3674 108.761 33.2135 109.607 33.2135 110.876C33.2135 111.62 32.878 112.451 32.1046 113.21L28.7791 116.522L25.4533 113.21Z" fill="#E0E0E0"/>
</g>
<g id="Group_6">
<path id="Vector_13" d="M32.9653 116.947C32.4926 116.483 32.2876 115.975 32.2876 115.52C32.2876 114.744 32.8049 114.227 33.5895 114.227C34.3208 114.227 34.5706 114.566 34.9985 115.056C35.4264 114.566 35.6762 114.227 36.4074 114.227C37.1921 114.227 37.7093 114.744 37.7093 115.52C37.7093 115.975 37.5044 116.483 37.0316 116.947L34.9985 118.972L32.9653 116.947Z" fill="#EBEBEB"/>
</g>
<g id="Group_7">
<path id="Vector_14" d="M118.261 22.603H103.193C101.759 22.603 100.598 23.7651 100.598 25.1983V34.9033C100.598 36.3368 101.76 37.4985 103.193 37.4985H107.526L109.461 40.029C110.099 40.8635 111.355 40.8635 111.994 40.029L113.928 37.4985H118.261C119.695 37.4985 120.856 36.3365 120.856 34.9033V25.1983C120.856 23.7648 119.694 22.603 118.261 22.603Z" fill="#F5F5F5"/>
<g id="Group_8">
<path id="Vector_15" d="M105.996 33.9532H107.702V27.8843H105.711L105.996 33.9532Z" fill="#E0E0E0"/>
<path id="Vector_16" d="M115.621 28.8323C115.534 28.5632 115.262 27.9998 115.005 27.8842C114.256 27.5483 112.618 27.6556 111.168 27.8463C111.229 27.7307 111.28 27.6271 111.309 27.5516C111.434 27.2244 111.634 26.5331 111.611 26.1836C111.589 25.863 111.44 25.1481 111.168 24.9763C111.024 24.885 110.602 24.8527 110.484 24.9763C110.197 25.277 110.397 26.2268 110.283 26.6264C110.178 26.9935 109.7 27.6397 109.291 28.1466C108.785 28.2407 108.462 28.3108 108.462 28.3108V33.6684C108.462 33.6684 112.838 34.8594 114.246 34.4743C114.788 34.3262 115.043 33.3877 115.242 32.8624C115.599 31.9193 115.93 29.7924 115.621 28.8323Z" fill="#E0E0E0"/>
</g>
</g>
<g id="Group_9">
<path id="Vector_17" d="M80.1501 31.0334C79.9903 29.0614 78.3432 27.5425 76.3649 27.5425H75.0005H73.6361C71.6577 27.5425 70.0106 29.0614 69.8508 31.0334L69.6216 33.3486H80.3797L80.1501 31.0334Z" fill="#EBEBEB"/>
<path id="Vector_18" d="M75.0003 27.5429C76.415 27.5429 77.5617 26.3962 77.5617 24.9815C77.5617 23.5669 76.415 22.4202 75.0003 22.4202C73.5857 22.4202 72.439 23.5669 72.439 24.9815C72.439 26.3962 73.5857 27.5429 75.0003 27.5429Z" fill="#EBEBEB"/>
</g>
<path id="Vector_19" d="M24.1765 66.7408C23.7669 66.7408 23.3908 66.885 23.0962 67.1249L21.0398 65.4671C21.1577 65.2345 21.2255 64.9724 21.2255 64.694C21.2255 63.7479 20.4584 62.9805 19.5119 62.9805C18.5654 62.9805 17.7983 63.7476 17.7983 64.694C17.7983 65.6405 18.5654 66.4076 19.5119 66.4076C19.9215 66.4076 20.2973 66.2634 20.5923 66.0236L22.6487 67.6813C22.5307 67.9139 22.463 68.176 22.463 68.4544C22.463 68.7328 22.5307 68.9949 22.6487 69.2274L20.5923 70.8852C20.2976 70.6453 19.9215 70.5011 19.5119 70.5011C18.5654 70.5011 17.7983 71.2682 17.7983 72.2147C17.7983 73.1612 18.5654 73.9283 19.5119 73.9283C20.4584 73.9283 21.2255 73.1612 21.2255 72.2147C21.2255 71.9363 21.1577 71.6742 21.0398 71.4416L23.0962 69.7839C23.3912 70.0238 23.7669 70.1679 24.1765 70.1679C25.123 70.1679 25.8901 69.4009 25.8901 68.4544C25.8898 67.5079 25.1227 66.7408 24.1765 66.7408Z" fill="#E0E0E0"/>
</g>
<g id="Shadow">
<path id="_x3C_Path_x3E__1_" d="M75.0002 132.71C110.574 132.71 139.413 131.026 139.413 128.949C139.413 126.871 110.574 125.187 75.0002 125.187C39.426 125.187 10.5874 126.871 10.5874 128.949C10.5874 131.026 39.426 132.71 75.0002 132.71Z" fill="#F5F5F5"/>
</g>
<g id="Character_4">
<g id="Group_10">
<path id="Vector_20" d="M107.179 82.3376H132.322C134.253 82.3376 135.818 83.9027 135.818 85.8332V104.945C135.818 106.875 134.253 108.44 132.322 108.44H113.337C112.965 111.497 110.365 113.866 107.208 113.866C107.069 113.866 106.932 113.854 106.794 113.845C107.776 112.551 108.578 110.675 109.103 108.44H107.179C105.249 108.44 103.684 106.875 103.684 104.945V85.8332C103.684 83.9027 105.249 82.3376 107.179 82.3376Z" fill="#00A0E2"/>
<path id="Vector_21" opacity="0.4" d="M107.179 82.3376H132.322C134.253 82.3376 135.818 83.9027 135.818 85.8332V104.945C135.818 106.875 134.253 108.44 132.322 108.44H113.337C112.965 111.497 110.365 113.866 107.208 113.866C107.069 113.866 106.932 113.854 106.794 113.845C107.776 112.551 108.578 110.675 109.103 108.44H107.179C105.249 108.44 103.684 106.875 103.684 104.945V85.8332C103.684 83.9027 105.249 82.3376 107.179 82.3376Z" fill="white"/>
<g id="Group_11">
<g id="Group_12">
<path id="Vector_22" d="M105.99 89.7688L104.748 87.6679L105.524 86.3264C105.626 86.1513 105.643 85.9397 105.57 85.7503L105.513 85.5992C105.416 85.345 105.175 85.1746 104.903 85.1676L103.684 85.1357C103.432 85.1291 103.198 85.264 103.077 85.4849L102.83 85.937C102.709 86.1576 102.701 86.4224 102.806 86.6503L103.332 87.7838L104.304 90.39L105.99 89.7688Z" fill="#7F3E3B"/>
<path id="Vector_23" d="M115.884 89.4001L108.787 94.5667L105.452 88.3293L103.559 89.1489C103.559 89.1489 106.478 98.6044 108.174 98.2227C109.871 97.841 114.663 95.4726 116.223 93.8461C117.009 93.0265 117.607 91.5223 116.83 89.6612C116.675 89.2894 116.21 89.1632 115.884 89.4001Z" fill="#00A0E2"/>
</g>
<g id="Group_13">
<path id="Vector_24" d="M118.539 77.1008C118.539 77.1008 116.031 77.7583 117.193 80.7828C117.193 80.7828 118.44 80.4545 118.644 79.6456C118.848 78.837 119.039 77.7055 119.039 77.7055L118.539 77.1008Z" fill="#263238"/>
<path id="Vector_25" opacity="0.3" d="M118.539 77.1008C118.539 77.1008 116.031 77.7583 117.193 80.7828C117.193 80.7828 118.44 80.4545 118.644 79.6456C118.848 78.837 119.039 77.7055 119.039 77.7055L118.539 77.1008Z" fill="black"/>
</g>
<path id="Vector_26" d="M124.46 89.1017L119.882 88.9512L117.987 89.2253L117.731 92.6773L121.42 93.9045L125.356 93.1198L125.562 89.7937L125.282 89.1289L124.46 89.1017Z" fill="#7F3E3B"/>
<g id="Group_14">
<path id="Vector_27" d="M118.228 108.441H124.705C124.771 106.159 125.107 94.3092 125.036 94.3803C124.957 94.459 125.72 91.8554 125.72 91.8554V90.8033L125.036 89.6724C125.036 89.6724 123.566 91.9136 121.148 91.8029C118.856 91.6976 118.461 89.4097 118.461 89.4097L118.172 92.9076L117.883 101.376L118.251 104.966L118.228 108.441Z" fill="#00A0E2"/>
<path id="Vector_28" opacity="0.6" d="M118.228 108.441H124.705C124.771 106.159 125.107 94.3092 125.036 94.3803C124.957 94.459 125.72 91.8554 125.72 91.8554V90.8033L125.036 89.6724C125.036 89.6724 123.566 91.9136 121.148 91.8029C118.856 91.6976 118.461 89.4097 118.461 89.4097L118.172 92.9076L117.883 101.376L118.251 104.966L118.228 108.441Z" fill="white"/>
</g>
<path id="Vector_29" d="M115.649 108.44H119.159C119.849 103.869 119.942 95.511 119.942 95.511C119.942 95.511 119.171 92.5652 118.961 90.65C118.75 88.7348 121.485 88.9883 123.879 89.3039C126.273 89.6195 122.018 95.6684 122.018 95.6684C122.018 95.6684 121.717 103.845 122.417 108.44H131.072C130.639 107.222 129.365 103.476 129.06 100.823C128.692 97.6146 130.901 92.933 130.585 90.6497C130.269 88.3664 122.701 88.8311 122.701 88.8311C122.701 88.8311 117.854 88.7992 116.774 88.8481C115.509 88.9049 115.007 92.2307 114.409 94.8578C113.811 97.485 114.91 100.087 115.509 103.393C115.902 105.561 115.78 107.416 115.649 108.44Z" fill="#263238"/>
<g id="Group_15">
<path id="Vector_30" d="M119.503 88.8216C121.08 88.8212 122.701 88.8319 122.701 88.8319C122.701 88.8319 123.67 88.7731 124.927 88.801C125.428 89.1441 126.089 89.9361 125.562 91.6188L124.466 92.0397L124.666 93.1181C124.666 93.1181 123.405 95.119 122.011 95.8778C122.015 95.7436 122.018 95.6692 122.018 95.6692C122.018 95.6692 126.274 89.6202 123.88 89.3046C121.486 88.989 118.751 88.7355 118.961 90.6507C119.171 92.566 119.942 95.5117 119.942 95.5117C119.942 95.5117 119.941 95.5436 119.941 95.6011C119.266 94.9991 118.692 93.935 118.275 92.6713L118.722 91.4285L117.731 90.883C117.731 90.8823 117.888 89.4206 119.503 88.8216Z" fill="#00A0E2"/>
</g>
<path id="Vector_31" d="M119.452 90.6348C119.201 89.9707 119.551 89.5385 119.551 89.5385C121.351 88.9282 121.186 87.5771 120.771 86.3233L123.672 83.3643C123.5 84.9406 123.436 88.5631 124.466 89.8255V90.1142C123.102 91.7314 121.483 91.7218 120.598 91.555C120.086 91.4587 119.637 91.1218 119.452 90.6348Z" fill="#7F3E3B"/>
<path id="Vector_32" opacity="0.1" d="M120.77 86.3231L123.074 83.9734L123.607 84.1644C123.591 84.4481 123.58 84.7574 123.575 85.0827C123.283 85.6806 122.583 86.5208 120.945 86.9427C120.898 86.7361 120.838 86.5285 120.77 86.3231Z" fill="black"/>
<path id="Vector_33" d="M125.147 80.7538C124.446 83.4351 124.208 84.5852 122.564 85.7077C120.09 87.3977 116.951 85.9519 116.835 83.1148C116.731 80.5617 117.893 76.608 120.761 76.0499C122.808 75.6406 124.799 76.9682 125.208 79.0149C125.323 79.5913 125.302 80.1867 125.147 80.7538Z" fill="#7F3E3B"/>
<path id="Vector_34" d="M118.777 81.4453C118.481 81.9111 118.123 82.334 117.712 82.7021C117.907 82.9107 118.184 83.0223 118.468 83.0071L118.777 81.4453Z" fill="#630F0F"/>
<path id="Vector_35" d="M121.635 80.457C121.655 80.4564 121.673 80.451 121.69 80.4417C121.742 80.4105 121.759 80.3431 121.728 80.2913C121.728 80.2906 121.727 80.2899 121.727 80.2893C121.52 79.9255 121.149 79.6853 120.733 79.6458C120.672 79.6458 120.623 79.6926 120.62 79.7524C120.618 79.8119 120.664 79.862 120.723 79.8653C121.067 79.9039 121.371 80.1045 121.541 80.4052C121.561 80.4381 121.597 80.4577 121.635 80.457Z" fill="#263238"/>
<path id="Vector_36" d="M117.194 79.6457C117.213 79.645 117.232 79.6397 117.248 79.6304C117.544 79.4543 117.905 79.4307 118.221 79.5663C118.275 79.5952 118.341 79.5753 118.37 79.5218L118.371 79.5204C118.398 79.4656 118.376 79.3995 118.322 79.3709C117.94 79.2012 117.499 79.2261 117.138 79.4381C117.084 79.4656 117.063 79.5321 117.091 79.5859C117.111 79.6241 117.151 79.6473 117.194 79.6457Z" fill="#263238"/>
<path id="Vector_37" d="M119.591 83.7434C119.462 83.7437 119.334 83.7324 119.207 83.7098C119.17 83.7038 119.146 83.6693 119.152 83.6327C119.152 83.6321 119.152 83.6314 119.152 83.6304C119.159 83.5945 119.192 83.5699 119.229 83.5756C119.797 83.6869 120.384 83.5228 120.812 83.1334C120.837 83.1055 120.88 83.1035 120.908 83.1288C120.936 83.154 120.938 83.1972 120.913 83.2248C120.555 83.562 120.082 83.7477 119.591 83.7434Z" fill="#263238"/>
<path id="Vector_38" d="M124.246 82.8497C124.246 82.8497 123.246 81.8859 123.43 80.1245C123.43 80.1245 122.352 79.0206 122.405 77.8372C122.405 77.8372 122.086 78.7797 122.403 79.4525C122.403 79.4525 119.604 79.2488 119.669 77.8372C119.669 77.8372 119.485 78.5475 119.906 78.9156C119.906 78.9156 117.419 79.0209 117.755 77.7319C118.091 76.4433 120.041 75.8121 120.041 75.8121C120.041 75.8121 121.898 74.234 124.466 77.022C124.466 77.022 127.49 78.91 125.346 82.058L124.246 82.8497Z" fill="#263238"/>
<path id="Vector_39" d="M125.367 83.0257C125.118 83.5001 124.69 83.8556 124.178 84.014C123.497 84.2183 123.144 83.6144 123.321 82.9646C123.479 82.3819 124.025 81.5706 124.715 81.6497C125.215 81.7227 125.561 82.1872 125.488 82.6875C125.47 82.8074 125.43 82.9224 125.367 83.0257Z" fill="#7F3E3B"/>
<g id="Group_16">
<path id="Vector_40" d="M120.791 81.0631C120.768 81.2933 120.625 81.4677 120.472 81.4531C120.318 81.4385 120.218 81.2382 120.244 81.0046C120.271 80.7707 120.411 80.6 120.561 80.6149C120.711 80.6299 120.815 80.8295 120.791 81.0631Z" fill="#2E353A"/>
<path id="Vector_41" d="M118.172 80.7892C118.148 81.0194 118.005 81.1938 117.855 81.1788C117.705 81.1639 117.601 80.9642 117.624 80.7307C117.648 80.4971 117.791 80.326 117.941 80.341C118.091 80.3556 118.198 80.5553 118.172 80.7892Z" fill="#2E353A"/>
<path id="Vector_42" d="M118.006 80.3602L117.467 80.1426C117.467 80.1426 117.708 80.6057 118.006 80.3602Z" fill="#2E353A"/>
<path id="Vector_43" d="M120.626 80.6343L120.086 80.4167C120.086 80.4167 120.328 80.8799 120.626 80.6343Z" fill="#2E353A"/>
</g>
<g id="Group_17">
<g id="Group_18">
<path id="Vector_44" d="M124.012 85.2701C124.506 85.2701 124.909 84.8675 124.909 84.3728C124.909 84.1472 124.825 83.9316 124.672 83.7655L124.556 83.8725C124.682 84.009 124.751 84.1868 124.751 84.3728C124.751 84.7804 124.42 85.1123 124.012 85.1123C123.604 85.1123 123.273 84.7808 123.273 84.3728C123.273 83.9652 123.604 83.6336 124.012 83.6336C124.117 83.6336 124.219 83.6552 124.314 83.6977L124.378 83.5539C124.263 83.5021 124.14 83.4758 124.012 83.4758C123.517 83.4758 123.115 83.8781 123.115 84.3728C123.115 84.8675 123.517 85.2701 124.012 85.2701Z" fill="#00A0E2"/>
</g>
<g id="Group_19" opacity="0.6">
<path id="Vector_45" d="M124.012 85.2701C124.506 85.2701 124.909 84.8675 124.909 84.3728C124.909 84.1472 124.825 83.9316 124.672 83.7655L124.556 83.8725C124.682 84.009 124.751 84.1868 124.751 84.3728C124.751 84.7804 124.42 85.1123 124.012 85.1123C123.604 85.1123 123.273 84.7808 123.273 84.3728C123.273 83.9652 123.604 83.6336 124.012 83.6336C124.117 83.6336 124.219 83.6552 124.314 83.6977L124.378 83.5539C124.263 83.5021 124.14 83.4758 124.012 83.4758C123.517 83.4758 123.115 83.8781 123.115 84.3728C123.115 84.8675 123.517 85.2701 124.012 85.2701Z" fill="white"/>
</g>
</g>
<g id="Group_20">
<path id="Vector_46" d="M123.393 98.836L120.954 98.942L120.137 97.6248C120.03 97.4527 119.852 97.3381 119.651 97.3125L119.49 97.2922C119.22 97.258 118.956 97.3902 118.822 97.6264L118.219 98.6865C118.095 98.9055 118.103 99.1755 118.241 99.3862L118.523 99.817C118.661 100.027 118.89 100.16 119.141 100.174L120.388 100.245L123.145 100.616L123.393 98.836Z" fill="#7F3E3B"/>
<path id="Vector_47" d="M127.731 89.9356L128.943 98.6303L121.87 98.632L121.7 100.688C121.7 100.688 131.416 102.57 131.879 100.894C132.341 99.2176 132.511 93.875 131.811 91.7325C131.459 90.6532 130.414 89.416 128.406 89.2243C128.006 89.1861 127.675 89.5369 127.731 89.9356Z" fill="#00A0E2"/>
</g>
</g>
</g>
</g>
<g id="Device">
<g id="Group_21">
<g id="Group_22">
<path id="Vector_48" d="M96.8244 39.7913H89.0606L81.231 129.283H88.9948C92.5937 129.283 95.766 126.366 96.0809 122.767L102.77 46.3076C103.085 42.7088 100.423 39.7913 96.8244 39.7913Z" fill="#263238"/>
<g id="Group_23">
<path id="Vector_49" d="M101.632 48.7669C101.662 48.4221 101.966 48.1423 102.311 48.1423C102.656 48.1423 102.911 48.4221 102.881 48.7669L102.357 54.7627C102.326 55.1075 102.022 55.3873 101.678 55.3873C101.333 55.3873 101.078 55.1075 101.108 54.7627L101.632 48.7669Z" fill="#00A0E2"/>
<path id="Vector_50" opacity="0.3" d="M101.632 48.7669C101.662 48.4221 101.966 48.1423 102.311 48.1423C102.656 48.1423 102.911 48.4221 102.881 48.7669L102.357 54.7627C102.326 55.1075 102.022 55.3873 101.678 55.3873C101.333 55.3873 101.078 55.1075 101.108 54.7627L101.632 48.7669Z" fill="white"/>
</g>
</g>
<path id="Vector_51" d="M87.4057 129.283H55.4161C51.8172 129.283 49.1552 126.365 49.4701 122.767L56.1596 46.3073C56.4745 42.7084 59.6472 39.7913 63.2457 39.7913H95.2354C98.8339 39.7913 101.496 42.7088 101.181 46.3073L94.4919 122.767C94.1769 126.366 91.0043 129.283 87.4057 129.283Z" fill="#00A0E2"/>
<g id="Group_24">
<path id="Vector_52" d="M95.104 41.2861H86.7893C86.2448 41.2861 85.7495 41.6908 85.6335 42.2309L85.5774 42.4914C85.2937 43.8106 84.0844 44.7993 82.7546 44.7993H74.8499C73.52 44.7993 72.4838 43.8106 72.4307 42.4914L72.4204 42.2309C72.3988 41.6908 71.9742 41.2861 71.4297 41.2861H63.1147C60.3417 41.2861 57.8969 43.5342 57.6544 46.3072L50.9653 122.766C50.7228 125.539 52.7739 127.788 55.5472 127.788H87.5368C90.3098 127.788 92.7546 125.539 92.9974 122.766L99.6866 46.3072C99.9287 43.5342 97.8773 41.2861 95.104 41.2861Z" fill="#00A0E2"/>
<path id="Vector_53" opacity="0.7" d="M95.104 41.2861H86.7893C86.2448 41.2861 85.7495 41.6908 85.6335 42.2309L85.5774 42.4914C85.2937 43.8106 84.0844 44.7993 82.7546 44.7993H74.8499C73.52 44.7993 72.4838 43.8106 72.4307 42.4914L72.4204 42.2309C72.3988 41.6908 71.9742 41.2861 71.4297 41.2861H63.1147C60.3417 41.2861 57.8969 43.5342 57.6544 46.3072L50.9653 122.766C50.7228 125.539 52.7739 127.788 55.5472 127.788H87.5368C90.3098 127.788 92.7546 125.539 92.9974 122.766L99.6866 46.3072C99.9287 43.5342 97.8773 41.2861 95.104 41.2861Z" fill="white"/>
</g>
<g id="Group_25" opacity="0.2">
<path id="Vector_54" d="M76.8872 42.5717C77.152 42.3182 77.1783 41.916 76.946 41.6733C76.7137 41.4306 76.3107 41.4394 76.0459 41.6929C75.7811 41.9464 75.7547 42.3486 75.987 42.5913C76.2193 42.834 76.6223 42.8252 76.8872 42.5717Z" fill="black"/>
<path id="Vector_55" d="M81.6608 41.498C81.4097 41.498 79.7333 41.498 79.4825 41.498C79.1317 41.498 78.8224 41.7824 78.7915 42.1336C78.7609 42.4844 79.0204 42.7688 79.3712 42.7688C79.5892 42.7688 81.3316 42.7688 81.5496 42.7688C81.9004 42.7688 82.2097 42.4844 82.2406 42.1336C82.2715 41.7824 82.0117 41.498 81.6608 41.498Z" fill="black"/>
</g>
<g id="Group_26">
<path id="Vector_56" d="M61.2686 44.7872H61.9413L62.0001 44.1145H61.3274L61.2686 44.7872Z" fill="#00A0E2"/>
<path id="Vector_57" d="M62.6731 44.1146L62.6143 44.7874H63.287L63.3458 44.1146L63.4049 43.4419H62.7319L62.6731 44.1146Z" fill="#00A0E2"/>
<path id="Vector_58" d="M64.1359 42.769L64.0771 43.4418L64.0183 44.1145L63.9595 44.7872H64.6322L64.691 44.1145L64.7501 43.4418L64.8086 42.769H64.1359Z" fill="#00A0E2"/>
</g>
<path id="Vector_59" d="M93.062 42.814L93.0188 43.3073H92.6899L92.6035 44.294H92.9324L92.8892 44.7873H95.8493L96.022 42.814H93.062ZM94.2483 44.294H93.2616L93.348 43.3073H94.3347L94.2483 44.294Z" fill="#00A0E2"/>
<g id="Group_27" opacity="0.4">
<path id="Vector_60" d="M74.8727 44.7993L52.79 126.911C53.5482 127.464 54.495 127.788 55.5464 127.788H57.2729L79.5915 44.7993H74.8727Z" fill="white"/>
<path id="Vector_61" d="M95.1037 41.2861H86.7887C86.2442 41.2861 85.7489 41.6908 85.6326 42.2313L85.5765 42.4917C85.3001 43.7771 84.1446 44.7455 82.8556 44.7946L60.5361 127.788H77.5601L99.686 45.5139C99.5149 43.119 97.6063 41.2861 95.1037 41.2861Z" fill="white"/>
</g>
</g>
</g>
<g id="Character_3">
<g id="Group_28">
<g id="Group_29">
<g id="Group_30">
<path id="Vector_62" d="M61.682 63.5735L60.6853 63.3569C60.4156 63.2985 60.2614 63.0134 60.3601 62.7556L61.7501 59.1199L63.3427 59.4664L62.2095 63.2626C62.1424 63.4875 61.9125 63.6234 61.682 63.5735Z" fill="#00A0E2"/>
<path id="Vector_63" d="M65.5431 58.9211C65.2667 58.861 65.0913 58.5883 65.1515 58.3119L65.2867 57.6896C65.3468 57.4132 65.6195 57.2378 65.896 57.2979C66.1724 57.3581 66.3478 57.6308 66.2876 57.9072L66.1524 58.5295C66.0923 58.8059 65.8195 58.9813 65.5431 58.9211Z" fill="#00A0E2"/>
<path id="Vector_64" d="M64.5594 55.8258C64.5594 55.8258 60.7722 55.3942 59.447 54.7142C56.3285 53.1132 53.3515 49.2934 52.7193 49.1559C51.6901 48.932 50.2861 51.3698 49.5835 54.6005C48.8809 57.8313 49.1456 60.6319 50.1748 60.8558C50.8074 60.9933 55.1016 58.7549 58.6031 58.5938C60.0911 58.5253 63.7156 59.7054 63.7156 59.7054L64.5594 55.8258Z" fill="#00A0E2"/>
<path id="Vector_65" opacity="0.3" d="M64.5594 55.8258C64.5594 55.8258 60.7722 55.3942 59.447 54.7142C56.3285 53.1132 53.3515 49.2934 52.7193 49.1559C51.6901 48.932 50.2861 51.3698 49.5835 54.6005C48.8809 57.8313 49.1456 60.6319 50.1748 60.8558C50.8074 60.9933 55.1016 58.7549 58.6031 58.5938C60.0911 58.5253 63.7156 59.7054 63.7156 59.7054L64.5594 55.8258Z" fill="white"/>
<path id="Vector_66" d="M53.3106 55.4111C52.608 58.6419 51.204 61.0797 50.1748 60.8558C49.1456 60.6319 48.8809 57.8313 49.5835 54.6005C50.2861 51.3698 51.6901 48.932 52.7193 49.1559C53.7485 49.3798 54.0133 52.1804 53.3106 55.4111Z" fill="#00A0E2"/>
<path id="Vector_67" opacity="0.4" d="M53.3106 55.4111C52.608 58.6419 51.204 61.0797 50.1748 60.8558C49.1456 60.6319 48.8809 57.8313 49.5835 54.6005C50.2861 51.3698 51.6901 48.932 52.7193 49.1559C53.7485 49.3798 54.0133 52.1804 53.3106 55.4111Z" fill="black"/>
<path id="Vector_68" d="M63.9435 55.3865L62.1874 55.0045C61.7094 54.9005 61.2373 55.2208 61.1698 55.7055C61.1084 56.1463 61.0276 56.6021 60.9263 57.0675C60.825 57.5326 60.7094 57.9811 60.5822 58.4077C60.4423 58.8768 60.7383 59.3641 61.2167 59.4681L63.3007 59.9213C64.5491 60.1927 65.4481 59.3146 65.7032 58.0562C65.9501 56.8386 65.1574 55.6503 63.9435 55.3865Z" fill="#263238"/>
<path id="Vector_69" d="M51.5021 54.7531L51.3922 55.2587C51.3284 55.5527 51.4839 55.8504 51.7616 55.9656L53.0393 56.4965C53.138 56.1467 53.2293 55.7849 53.3107 55.4108C53.3921 55.0368 53.4589 54.6697 53.5147 54.3106L52.1317 54.263C51.831 54.2531 51.5659 54.4591 51.5021 54.7531Z" fill="#263238"/>
<path id="Vector_70" opacity="0.8" d="M51.5021 54.7531L51.3922 55.2587C51.3284 55.5527 51.4839 55.8504 51.7616 55.9656L53.0393 56.4965C53.138 56.1467 53.2293 55.7849 53.3107 55.4108C53.3921 55.0368 53.4589 54.6697 53.5147 54.3106L52.1317 54.263C51.831 54.2531 51.5659 54.4591 51.5021 54.7531Z" fill="white"/>
<path id="Vector_71" opacity="0.2" d="M52.4667 55.2278C52.397 55.5491 52.3186 55.8594 52.2358 56.163L53.0391 56.4969C53.1378 56.1471 53.2292 55.7853 53.3106 55.4112C53.3919 55.0371 53.4587 54.67 53.5145 54.3109L52.6451 54.281C52.5943 54.5916 52.5368 54.9066 52.4667 55.2278Z" fill="black"/>
</g>
<path id="Vector_72" d="M83.1604 55.4273C83.1604 55.4273 84.1259 55.8572 85.1009 55.218C86.1208 54.5499 88.037 55.3907 87.458 58.1099C86.4613 62.7885 84.3807 66.1452 85.7295 67.5618C85.7295 67.5618 81.2386 67.7671 81.903 63.8008C82.4013 60.8261 85.7803 57.4491 84.9654 56.7771C84.6936 56.5532 84.2989 56.6691 83.0229 56.6691L83.1604 55.4273Z" fill="#263238"/>
<path id="Vector_73" d="M83.0234 56.6688C83.8134 56.6688 84.4078 56.7449 84.847 56.8877C85.1317 56.0675 85.1164 55.3492 85.0848 55.0117C84.0463 55.125 83.1606 55.427 83.1606 55.427L83.0234 56.6688Z" fill="#00A0E2"/>
<path id="Vector_74" d="M78.7944 52.0183C78.7944 52.0183 76.927 51.4845 78.1585 50.2802C79.7664 48.7078 82.055 51.6506 82.055 51.6506C82.055 51.6506 87.412 53.993 82.9896 59.4244C82.9896 59.4244 81.3936 62.2821 81.0601 61.1709C80.7265 60.0596 82.948 56.9036 82.948 56.9036L82.8155 54.0807L82.2006 52.9794L80.2704 51.8788L78.7944 52.0183Z" fill="#263238"/>
<path id="Vector_75" d="M71.3882 67.9264C70.8554 67.056 69.7182 66.7826 68.8478 67.3152L68.8196 67.3324C68.2405 67.6869 67.6213 68.0849 67.0096 68.448L65.1652 69.5553C64.3024 70.0642 63.4334 70.5543 62.5603 71.0327C62.5085 70.4171 62.5038 69.7287 62.5301 69.04C62.5537 68.2626 62.6078 67.4703 62.6689 66.6737C62.7218 65.878 62.8061 65.0687 62.8742 64.2794L62.8762 64.2585C62.9108 63.8548 62.6742 63.4618 62.2756 63.315C61.7979 63.1392 61.268 63.3841 61.0922 63.8621C60.7979 64.6624 60.5653 65.4531 60.3341 66.2627C60.1135 67.072 59.9228 67.8922 59.7667 68.7354C59.6219 69.5835 59.489 70.438 59.4873 71.4007C59.4956 71.8904 59.5026 72.3888 59.7046 73.0675C59.8265 73.407 59.9713 73.8409 60.5026 74.3109C60.7653 74.5372 61.1368 74.7269 61.5115 74.8C61.8842 74.8724 62.2078 74.8451 62.4812 74.7933C62.555 74.7787 62.635 74.7558 62.7075 74.7262L62.8168 74.6814C63.5237 74.3903 64.2297 74.0953 64.9144 73.7658C65.604 73.4449 66.2831 73.1067 66.9508 72.7495C67.6216 72.3977 68.28 72.0256 68.9302 71.6389C69.581 71.2416 70.2135 70.8622 70.8667 70.4084C71.662 69.8533 71.9015 68.7646 71.3882 67.9264Z" fill="#CE7A63"/>
<path id="Vector_76" d="M73.0161 65.5026C74.1347 67.7573 72.5245 69.7154 69.5714 72.8502C66.9409 70.6512 66.5127 67.9321 66.5127 67.9321C66.5127 67.9321 69.9162 65.1142 73.0161 65.5026Z" fill="#00A0E2"/>
<path id="Vector_77" opacity="0.2" d="M73.1247 68.1798C72.0301 67.5137 70.8058 67.2151 69.9434 68.3031C68.982 69.5157 68.196 70.2346 67.6465 70.6528C68.0973 71.3664 68.7165 72.1355 69.572 72.8508C71.3357 70.9784 72.6144 69.5266 73.1247 68.1798Z" fill="black"/>
<path id="Vector_78" d="M62.0301 60.0396L62.7896 60.5406C63.0753 60.729 63.252 61.0439 63.2646 61.3858L63.3228 62.9837C63.346 63.6226 63.0583 64.2332 62.551 64.6219L62.2371 64.8627C60.9205 64.1179 60.0468 62.3432 60.0468 62.3432L59.7415 61.8648C59.4697 61.4389 59.5747 60.9037 59.983 60.6356L60.9228 60.0184C61.2474 59.8058 61.6879 59.8141 62.0301 60.0396Z" fill="#CE7A63"/>
<path id="Vector_79" d="M70.4119 127.788C72.1344 122.461 73.3075 116.57 72.1394 112.261C79.2501 91.3789 76.0433 85.2994 76.0433 85.2994L67.5814 82.2131C67.5814 82.2131 66.3718 101.02 66.0077 110.114C65.8041 115.203 64.9357 121.814 63.936 127.788H70.4119Z" fill="#263238"/>
<path id="Vector_80" opacity="0.5" d="M74.8008 93.0254L73.0842 90.2571L72.0321 92.4165C72.0321 92.4165 71.0418 100.708 72.8048 110.256C74.4526 105.166 75.4549 101.025 76.0393 97.6857L74.8008 93.0254Z" fill="black"/>
<g id="Group_31">
<path id="Vector_81" d="M75.6135 127.788H82.0266C82.6814 122.266 82.6887 116.322 80.7323 112.348C83.7119 90.4907 79.3998 85.1381 79.3998 85.1381L70.5034 83.7295C70.5034 83.7295 72.9186 102.42 74.303 111.415C75.0195 116.072 75.4272 122.116 75.6135 127.788Z" fill="#263238"/>
</g>
<path id="Vector_82" d="M69.0482 69.7027C68.8243 70.8811 68.5333 71.7588 68.2499 74.6115C67.9645 77.0188 67.7559 79.3994 67.4805 83.3767L79.5246 85.2836C79.8196 81.8525 80.8272 78.0486 84.1985 70.7568C84.9802 69.0662 84.1311 67.1895 82.3743 66.7254C81.9049 66.6015 81.4053 66.4809 80.8897 66.3736C78.8857 65.9563 77.2403 65.6294 75.4204 65.5078C74.8174 65.4676 74.1895 65.4451 73.5876 65.4334C71.4149 65.3922 69.4495 67.5908 69.0482 69.7027Z" fill="#00A0E2"/>
<path id="Vector_83" d="M81.48 60.1548C80.7252 61.8391 79.6302 64.9709 80.588 66.326C80.588 66.326 78.9608 65.8117 75.0755 67.4403C74.2835 65.8084 75.1187 65.4606 75.1187 65.4606C77.1901 65.3081 77.4784 63.8613 77.4548 62.456L81.48 60.1548Z" fill="#CE7A63"/>
<path id="Vector_84" d="M75.8892 67.1173C76.3416 67.2565 76.628 67.6269 76.8087 68.0232C77.0964 68.6538 77.8539 68.9093 78.4562 68.5658C79.4399 68.0046 80.7089 67.2037 81.3362 66.4931C80.9551 66.2094 80.4166 65.6821 80.4166 65.6821C80.4166 65.6821 76.6762 66.5522 75.8892 67.1173Z" fill="white"/>
<path id="Vector_85" d="M74.8114 66.7544C74.8114 66.7544 74.4466 66.7933 74.0267 67.1036C73.7336 67.3198 73.328 67.0281 73.4493 66.685C73.8645 65.5089 74.5801 65.3697 74.5801 65.3697C74.5801 65.3697 74.9871 65.1667 75.6582 65.3843C74.6565 65.7255 74.8114 66.7544 74.8114 66.7544Z" fill="white"/>
<path id="Vector_86" opacity="0.2" d="M79.8394 61.0938L77.4574 62.4545C77.464 62.7874 77.4514 63.1216 77.3999 63.4405C78.1746 63.4521 79.3962 62.802 79.6583 62.0389C79.7895 61.6582 79.8606 61.2838 79.8394 61.0938Z" fill="black"/>
<path id="Vector_87" d="M83.5419 56.8607C82.5583 59.6174 82.2008 60.8021 80.3637 61.908C77.6003 63.5717 74.4213 61.9568 74.5595 59.0094C74.6841 56.3564 76.2718 52.2937 79.3484 51.819C82.3792 51.3519 84.5256 54.1039 83.5419 56.8607Z" fill="#CE7A63"/>
<path id="Vector_88" d="M79.8382 56.7596C79.7658 56.9944 79.5834 57.1559 79.4312 57.1204C79.2791 57.0848 79.2146 56.8652 79.287 56.6303C79.3595 56.3955 79.5418 56.234 79.694 56.2696C79.8462 56.3051 79.9106 56.5247 79.8382 56.7596Z" fill="#263238"/>
<path id="Vector_89" d="M76.8963 55.9732C76.8239 56.2081 76.6415 56.3695 76.4893 56.334C76.3372 56.2981 76.2727 56.0788 76.3452 55.844C76.4176 55.6091 76.6 55.4476 76.7521 55.4832C76.9043 55.5187 76.9691 55.7383 76.8963 55.9732Z" fill="#263238"/>
<path id="Vector_90" d="M76.8156 55.5118L76.3066 55.2178C76.3066 55.2178 76.4578 55.7261 76.8156 55.5118Z" fill="#263238"/>
<path id="Vector_91" d="M77.7497 56.458C77.7497 56.458 77.0424 57.3769 76.457 57.7626C76.675 58.1244 77.2381 58.1144 77.2381 58.1144L77.7497 56.458Z" fill="#BA4D3C"/>
<path id="Vector_92" d="M80.7301 55.39C80.6932 55.3847 80.6594 55.3647 80.6381 55.3319C80.3065 54.8176 79.7806 54.8332 79.7743 54.8332C79.6963 54.8359 79.6335 54.7757 79.6358 54.6973C79.6385 54.6193 79.7046 54.5531 79.7836 54.5498C79.8112 54.5488 80.4717 54.5286 80.8829 55.1671C80.9238 55.2309 80.9022 55.3192 80.8348 55.3647C80.8022 55.387 80.765 55.395 80.7301 55.39Z" fill="#263238"/>
<path id="Vector_93" d="M76.2651 54.0019C76.2326 53.988 76.206 53.9624 76.1927 53.9282C76.1655 53.8574 76.205 53.7767 76.2811 53.7478C77.0442 53.4578 77.5883 53.8132 77.6113 53.8288C77.6757 53.872 77.6887 53.9581 77.6395 54.0209C77.5907 54.0836 77.499 54.0993 77.4345 54.0564C77.4132 54.0421 76.987 53.7724 76.3801 54.0032C76.3412 54.0182 76.2997 54.0165 76.2651 54.0019Z" fill="#263238"/>
<path id="Vector_94" d="M79.7567 56.2984L79.248 56.0044C79.248 56.0044 79.3989 56.5123 79.7567 56.2984Z" fill="#263238"/>
<g id="Group_32">
<path id="Vector_95" d="M68.8021 78.7581H65.9292C65.6581 78.7581 65.3913 78.5382 65.3332 78.2671L64.002 72.0484C63.9438 71.7773 64.1166 71.5574 64.388 71.5574H67.261C67.5321 71.5574 67.7989 71.7773 67.857 72.0484L69.1882 78.2671C69.2463 78.5382 69.0736 78.7581 68.8021 78.7581Z" fill="#263238"/>
<path id="Vector_96" d="M68.4701 78.7581H65.5971C65.326 78.7581 65.0593 78.5382 65.0011 78.2671L63.6699 72.0484C63.6118 71.7773 63.7846 71.5574 64.056 71.5574H66.929C67.2001 71.5574 67.4668 71.7773 67.525 72.0484L68.8562 78.2671C68.9143 78.5382 68.7415 78.7581 68.4701 78.7581Z" fill="#263238"/>
<path id="Vector_97" opacity="0.2" d="M68.4701 78.7581H65.5971C65.326 78.7581 65.0593 78.5382 65.0011 78.2671L63.6699 72.0484C63.6118 71.7773 63.7846 71.5574 64.056 71.5574H66.929C67.2001 71.5574 67.4668 71.7773 67.525 72.0484L68.8562 78.2671C68.9143 78.5382 68.7415 78.7581 68.4701 78.7581Z" fill="white"/>
</g>
<path id="Vector_98" d="M67.4406 75.0942L68.3286 74.8969C68.6624 74.8225 69.0119 74.9145 69.2661 75.1434L70.4547 76.2128C70.9298 76.6403 71.1687 77.2715 71.0953 77.9064L71.0497 78.2998C69.599 78.728 67.716 78.122 67.716 78.122L67.1598 78.0087C66.6648 77.9077 66.3532 77.4602 66.4446 76.9802L66.6545 75.8756C66.728 75.4939 67.0406 75.1832 67.4406 75.0942Z" fill="#CE7A63"/>
<path id="Vector_99" d="M82.751 68.6235C81.7354 68.5278 80.8344 69.2736 80.7391 70.2892L80.7338 70.346C80.7025 70.6766 80.6584 71.0836 80.6158 71.4586C80.5717 71.841 80.5188 72.2244 80.461 72.6064C80.3491 73.3712 80.2119 74.1306 80.0614 74.8821C79.9066 75.6332 79.7182 76.3681 79.5122 77.0907C79.3371 77.6694 79.1352 78.2268 78.9166 78.771C78.7013 78.785 78.4156 78.7677 78.1169 78.7215C77.4073 78.6129 76.3555 78.4069 75.5798 78.1581C74.7981 77.9139 74.0111 77.6285 73.2237 77.3299C72.435 77.0398 71.6411 76.7093 70.869 76.3973L70.8464 76.388C70.4663 76.2342 70.0162 76.3498 69.7614 76.695C69.4591 77.1039 69.5458 77.6807 69.9547 77.9827C70.6843 78.5218 71.4211 78.9899 72.1822 79.4597C72.9453 79.9185 73.731 80.347 74.5529 80.7414C75.3811 81.1257 76.4957 81.4935 77.4751 81.7483C77.9681 81.8729 78.4897 81.9809 79.1338 81.9865C79.4564 81.9865 79.8199 81.9579 80.2434 81.8251C80.657 81.7011 81.1656 81.4227 81.544 80.9693C81.6018 80.8992 81.6587 80.8168 81.7035 80.7341L81.7367 80.6726C82.1706 79.868 82.5487 79.0484 82.853 78.2165C83.1566 77.3863 83.4191 76.5485 83.6267 75.7057C83.8396 74.8638 84.0087 74.0163 84.143 73.1655C84.2064 72.7393 84.2642 72.3131 84.3127 71.8832C84.3659 71.447 84.3984 71.0397 84.4227 70.555C84.4699 69.5746 83.738 68.7165 82.751 68.6235Z" fill="#CE7A63"/>
<path id="Vector_100" d="M83.3036 67.1548C85.359 68.6079 85.4564 70.7802 84.3464 74.9412C82.8621 75.6851 79.2539 74.7436 79.2539 74.7436C79.2539 74.7436 80.3911 68.2853 83.3036 67.1548Z" fill="#00A0E2"/>
<g id="Group_33">
<path id="Vector_101" d="M75.916 58.9112C75.916 58.9112 76.8963 58.7159 79.6202 58.7993C79.2796 59.6099 78.6644 60.253 77.2674 60.2109C76.5681 60.2564 75.9641 59.7265 75.9183 59.0272C75.9156 58.9886 75.915 58.9498 75.916 58.9112Z" fill="#263238"/>
<path id="Vector_102" d="M77.9301 59.5753C77.3943 59.5298 76.8581 59.6544 76.397 59.9308C76.6511 60.1076 76.9534 60.2019 77.2627 60.2012C77.7973 60.2484 78.3335 60.1238 78.7926 59.8461C78.5411 59.6667 78.2391 59.5717 77.9301 59.5753Z" fill="#BA4D3C"/>
<path id="Vector_103" d="M76.0415 58.8929C76.091 59.0988 76.2511 59.26 76.4568 59.3111C77.2657 59.3317 78.075 59.2855 78.8763 59.1732C79.1351 59.156 79.3683 59.0111 79.4989 58.7869C78.3454 58.7334 77.1896 58.7686 76.0415 58.8929Z" fill="white"/>
</g>
<path id="Vector_104" d="M79.3732 51.6349C79.1961 51.6621 79.0244 51.702 78.8569 51.7521V51.9099C79.2423 51.9053 79.6702 51.9548 80.1466 52.1003C82.4445 52.8023 82.8149 54.081 82.0342 56.0048C81.6648 56.9151 81.4658 58.8453 81.8914 59.207C82.0013 59.3004 82.3336 59.2871 82.7644 59.2163C83.0491 58.5609 83.3216 57.7792 83.6704 56.8011C84.6787 53.976 82.4791 51.1555 79.3732 51.6349Z" fill="#263238"/>
<path id="Vector_105" d="M83.8051 59.3812C83.3228 59.8746 82.6876 60.0991 82.1587 60.0962C81.363 60.0915 81.2358 59.2723 81.6833 58.5889C82.0859 57.974 82.9852 57.2351 83.6746 57.569C84.354 57.8976 84.3566 58.8171 83.8051 59.3812Z" fill="#CE7A63"/>
<g id="Group_34" opacity="0.9">
<path id="Vector_106" d="M78.9029 73.4971C73.3104 73.1513 70.7846 72.1191 69.7766 71.5354C69.7451 71.5171 69.7162 71.4962 69.6899 71.4733C69.3999 71.2191 69.765 70.7574 70.0989 70.9497C70.9796 71.4577 73.4061 72.4912 78.9438 72.834C79.1262 72.8453 79.268 73.0008 79.2577 73.1835C79.2474 73.3672 79.0866 73.5084 78.9029 73.4971Z" fill="white"/>
</g>
<g id="Group_35" opacity="0.9">
<path id="Vector_107" d="M78.6132 76.6583C78.6069 76.843 78.4488 76.9889 78.2641 76.9802C73.3881 76.7523 70.0255 75.3135 69.0185 74.8285C68.8471 74.7461 68.7823 74.5371 68.873 74.37C68.9577 74.2142 69.1494 74.1531 69.3095 74.2291C70.2673 74.6836 73.5885 76.0949 78.2946 76.3168C78.4763 76.3251 78.6195 76.4766 78.6132 76.6583Z" fill="white"/>
</g>
<g id="Group_36" opacity="0.9">
<path id="Vector_108" d="M72.9827 82.2C70.3934 81.693 69.0606 81.3485 68.4998 81.1897C68.3171 81.1379 68.2167 80.9442 68.2775 80.7642C68.334 80.5964 68.5104 80.5017 68.6808 80.5499C69.2217 80.7027 70.5489 81.0466 73.1099 81.5482C73.2897 81.5834 73.4086 81.7575 73.374 81.9372C73.3388 82.1173 73.1628 82.2352 72.9827 82.2Z" fill="white"/>
</g>
</g>
<path id="Vector_109" d="M78.897 52.7557C78.6834 52.8693 78.3947 52.739 78.292 52.5198C78.1894 52.3005 78.2469 52.0308 78.3864 51.8331C78.5262 51.6354 78.7362 51.4989 78.9518 51.3889C78.8183 51.5882 78.5638 51.9251 78.5694 52.165C78.5754 52.4048 78.6674 52.8257 78.897 52.7557Z" fill="#263238"/>
<path id="Vector_110" d="M81.6726 59.5229C81.6855 59.6465 81.5483 59.7495 81.4257 59.7305C81.3031 59.7116 81.2091 59.603 81.1726 59.4844C81.1357 59.3658 81.1457 59.2382 81.1593 59.1149C81.1902 58.8332 81.2407 58.5492 81.3623 58.293C81.4842 58.0369 81.6852 57.809 81.9486 57.7043C82.05 57.796 82.0543 57.9841 81.9988 58.109C81.943 58.2339 81.845 58.3339 81.7676 58.4465C81.5652 58.7409 81.5104 59.1312 81.6234 59.4701C81.6656 59.4727 81.6304 59.5202 81.6726 59.5229Z" fill="#263238"/>
</g>
</g>
<g id="Character_2">
<g id="Group_37">
<path id="Vector_111" d="M44.2398 80.5938H20.5855C18.7693 80.5938 17.2969 82.0661 17.2969 83.8823V101.862C17.2969 103.679 18.7693 105.151 20.5855 105.151H38.4467C38.7972 108.026 41.2423 110.255 44.2122 110.255C44.3438 110.255 44.4727 110.244 44.6019 110.236C43.6777 109.018 42.9236 107.254 42.4296 105.151H44.2398C46.056 105.151 47.5284 103.679 47.5284 101.862V83.8823C47.5284 82.0661 46.056 80.5938 44.2398 80.5938Z" fill="#00A0E2"/>
<path id="Vector_112" opacity="0.4" d="M44.2398 80.5938H20.5855C18.7693 80.5938 17.2969 82.0661 17.2969 83.8823V101.862C17.2969 103.679 18.7693 105.151 20.5855 105.151H38.4467C38.7972 108.026 41.2423 110.255 44.2122 110.255C44.3438 110.255 44.4727 110.244 44.6019 110.236C43.6777 109.018 42.9236 107.254 42.4296 105.151H44.2398C46.056 105.151 47.5284 103.679 47.5284 101.862V83.8823C47.5284 82.0661 46.056 80.5938 44.2398 80.5938Z" fill="white"/>
</g>
<g id="Group_38">
<g id="Group_39">
<path id="Vector_113" d="M48.9775 88.2338L50.8193 86.5315L52.3907 89.443C52.3907 89.443 50.5688 90.8377 49.4878 89.9805L48.9775 88.2338Z" fill="#FF8B7B"/>
<path id="Vector_114" d="M48.9775 88.2336L47.7251 90.897L49.444 92.3179L50.9449 89.8851L48.9775 88.2336Z" fill="#FF8B7B"/>
<path id="Vector_115" d="M52.5675 86.9253L52.8708 88.0266C53.0206 88.5651 52.8176 89.1645 52.3904 89.4435L51.7143 89.8857L49.833 86.5861L51.4452 86.1792C51.9329 86.0466 52.416 86.3679 52.5675 86.9253Z" fill="#FF8B7B"/>
<path id="Vector_116" d="M48.9775 88.2337C48.9775 88.2337 49.6333 86.1813 49.537 85.5531C49.4795 85.178 49.8626 85.2398 50.1808 85.3504C50.4277 85.4365 50.5951 85.6627 50.6057 85.9238C50.6326 86.5959 50.6154 87.8836 50.0968 87.9676C49.3935 88.0816 48.9775 88.2337 48.9775 88.2337Z" fill="#FF8B7B"/>
</g>
<g id="Group_40">
<path id="Vector_117" d="M51.1262 90.3688C50.6272 89.8117 49.9518 89.4031 49.1635 89.2389L48.6034 89.1223C48.2848 89.0562 48.209 89.132 48.1685 89.2183L48.009 89.4672L47.6821 89.9645C47.4602 90.2941 47.2423 90.6259 47.0147 90.9488C46.5732 91.6033 46.1108 92.2362 45.6443 92.8388C45.1812 93.4398 44.6945 94.0092 44.2132 94.4677C44.1673 94.5119 44.1211 94.5537 44.0753 94.5956C43.9052 94.4069 43.7364 94.2132 43.5726 94.0099C43.0959 93.4125 42.6431 92.7657 42.2126 92.0913C41.784 91.4146 40.3957 89.414 40.0169 88.6921C39.8266 88.332 39.6425 87.9672 39.4668 87.6011L39.211 87.052C39.1323 86.8776 39.0412 86.6706 38.9871 86.537C38.9771 86.5125 38.9618 86.4769 38.9509 86.4523C38.3888 85.1959 36.9147 84.6331 35.6586 85.1952C34.4022 85.7573 33.8394 87.2314 34.4015 88.4875C34.5221 88.7579 34.6161 88.9502 34.7251 89.1738L35.0473 89.8117C35.2659 90.2323 35.4918 90.6469 35.7261 91.0575C36.1958 91.8781 37.6988 93.9697 38.2496 94.7557C38.802 95.5414 39.4043 96.3075 40.0794 97.0417C40.7558 97.7752 41.5029 98.4825 42.3753 99.12L42.4807 99.1967C42.9803 99.5575 43.6348 99.6934 44.2733 99.5107C45.1108 99.2708 45.6623 98.8954 46.129 98.5406C46.5925 98.1788 46.9622 97.8101 47.2968 97.4407C47.9662 96.7018 48.4981 95.9543 48.9941 95.2019C49.4837 94.4474 49.912 93.6783 50.3173 92.9053C50.5133 92.5149 50.706 92.1252 50.885 91.7282L51.1498 91.1302L51.2794 90.8276C51.3332 90.7296 51.3524 90.621 51.1262 90.3688Z" fill="#263238"/>
<path id="Vector_118" opacity="0.4" d="M38.8145 89.3132L36.9873 90.6029L36.4448 91.854C36.5355 92.0191 36.6219 92.1866 36.7152 92.3503C37.185 93.1709 37.6989 93.9696 38.2497 94.7556C38.8022 95.5413 39.4045 96.3073 40.0796 97.0415C40.3949 97.3834 40.7271 97.7183 41.0786 98.0442C40.1965 95.9399 38.8145 89.3132 38.8145 89.3132Z" fill="black"/>
<path id="Vector_119" d="M22.4818 99.4126C22.626 102.724 22.0997 102.582 22.0871 105.151H38.2773C39.1566 97.308 38.745 96.1021 38.761 90.8973C38.7699 87.9655 38.3118 84.9762 35.396 84.6712C32.1545 84.332 28.1025 84.3673 25.0963 84.738C22.9396 85.0041 21.4117 86.9891 21.7287 89.1388C22.3818 93.5683 22.026 96.0768 22.4818 99.4126Z" fill="#263238"/>
<path id="Vector_120" opacity="0.9" d="M33.9196 84.5465C31.8187 84.4059 29.5194 84.4023 27.4404 84.5282C27.4866 85.1886 27.9922 86.8667 31.6692 88.2909C31.6692 88.2909 32.4881 86.5102 33.1804 87.3132C33.1804 87.3132 33.7342 86.2889 34.9246 88.1713C34.9246 88.1713 36.6996 86.2727 33.9196 84.5465Z" fill="white"/>
<path id="Vector_121" opacity="0.4" d="M25.1712 89.2573C25.5263 92.3376 23.5583 97.4873 22.5015 99.9766C22.4989 99.8018 22.4929 99.6128 22.4839 99.4118C22.1985 97.3301 22.2308 95.5717 22.1348 93.4698L25.1712 89.2573Z" fill="black"/>
<path id="Vector_122" d="M29.0296 78.6421C29.0329 81.4204 28.5083 83.0194 27.8868 84.5216C27.827 84.6658 27.8595 84.8342 27.9755 84.9385C29.0362 85.895 30.6574 86.676 32.859 86.7059C35.0347 86.7352 34.9098 86.0551 34.3949 85.29C34.3218 85.1814 34.2221 85.0924 34.1092 85.0253C32.6208 84.1422 32.5677 82.9605 32.9833 82.2473L29.0296 78.6421Z" fill="#FF8B7B"/>
<path id="Vector_123" opacity="0.2" d="M29.0303 78.6431L32.9843 82.2479C32.7497 82.6469 32.6637 83.1967 32.9009 83.7588C32.1215 83.7841 31.3232 83.5353 30.6259 82.9429C29.607 82.0768 29.2598 81.0533 29.0063 79.6091C29.0236 79.3038 29.0296 78.9839 29.0303 78.6431Z" fill="black"/>
<path id="Vector_124" d="M27.8502 76.7812C28.0256 79.4363 27.6482 79.8618 28.998 81.2076C31.0285 83.2318 34.3327 83.6189 34.8001 80.9263C35.2211 78.5027 35.4539 74.1132 32.8447 73.091C30.2747 72.084 27.6748 74.1262 27.8502 76.7812Z" fill="#FF8B7B"/>
<g id="Group_41">
<path id="Vector_125" d="M34.3031 79.6395C34.3031 79.6395 33.3689 79.3435 30.7231 79.2312C31.0045 80.1833 31.5597 80.974 32.9151 81.0165C34.2705 81.0594 34.3031 79.6395 34.3031 79.6395Z" fill="#263238"/>
<path id="Vector_126" d="M32.3087 80.2522C32.9628 80.2725 33.4299 80.4685 33.7708 80.7688C33.5731 80.9256 33.2944 81.0276 32.9156 81.0156C32.2615 80.9951 31.7971 80.8037 31.4565 80.4994C31.6542 80.3422 31.9299 80.2399 32.3087 80.2522Z" fill="#FF5652"/>
<path id="Vector_127" d="M34.1838 79.6075C34.1027 79.8045 34.022 80.0018 33.7552 80.0557C33.2028 80.0766 31.7975 79.8317 31.4211 79.7221C31.1799 79.665 30.9759 79.5583 30.8374 79.2361C32.8745 79.3284 33.8649 79.5294 34.1838 79.6075Z" fill="white"/>
</g>
<path id="Vector_128" d="M33.2632 77.1687C33.2632 77.1687 33.7964 78.1039 34.2957 78.5185C34.0313 78.849 33.4941 78.7975 33.4941 78.7975L33.2632 77.1687Z" fill="#FF5652"/>
<path id="Vector_129" d="M30.6411 76.0232C30.6195 76.0185 30.5985 76.0082 30.5809 75.9926C30.5264 75.9438 30.5221 75.8597 30.5716 75.8046C31.067 75.2544 31.6766 75.3391 31.7021 75.3431C31.7749 75.3541 31.8244 75.4219 31.8128 75.4946C31.8011 75.567 31.733 75.6169 31.6606 75.6066C31.6407 75.6039 31.1646 75.5428 30.7693 75.982C30.7357 76.0185 30.6862 76.0328 30.6411 76.0232Z" fill="#263238"/>
<path id="Vector_130" d="M35.0529 76.495C35.0104 76.5023 34.9652 76.4887 34.934 76.4548C34.5354 76.0259 34.0613 76.1 34.041 76.1033C33.9686 76.1156 33.9002 76.0671 33.8885 75.9947C33.8766 75.9223 33.9251 75.8535 33.9972 75.8405C34.0234 75.8366 34.6297 75.7346 35.1294 76.2721C35.1792 76.3256 35.1759 76.4103 35.1217 76.4605C35.1021 76.4794 35.0779 76.4907 35.0529 76.495Z" fill="#263238"/>
<path id="Vector_131" d="M17.5543 99.9513C17.5583 100.075 17.5762 100.2 17.6094 100.325C17.9304 101.528 18.3473 102.466 18.7755 103.419C19.0174 103.947 19.2672 104.462 19.5217 104.972C19.8559 105.086 20.2127 105.151 20.5854 105.151H24.166C24.0474 104.886 23.9285 104.621 23.8109 104.357C23.4182 103.49 23.0511 102.619 22.7202 101.76C22.4375 101.025 22.1777 100.267 22.0219 99.6207C22.0482 99.4144 22.1053 99.1068 22.1894 98.7982C22.2953 98.3969 22.4332 97.9657 22.5927 97.5281C22.9109 96.6534 23.2907 95.7544 23.6906 94.8575C24.0929 93.9598 24.5295 93.0652 24.9743 92.1718C25.4148 91.2838 25.8852 90.3739 26.346 89.5314L26.362 89.5025C26.3709 89.4862 26.3796 89.4696 26.3882 89.4527C27.0158 88.2278 26.5314 86.7262 25.3065 86.0986C24.0817 85.4711 22.58 85.9554 21.9525 87.1803C21.4522 88.157 21.0034 89.0889 20.5545 90.057C20.1117 91.0204 19.6938 91.9984 19.2931 92.9957C18.8928 93.9944 18.5181 95.0123 18.1955 96.0933C18.033 96.6331 17.8842 97.1916 17.7613 97.7932C17.644 98.4028 17.5314 99.0301 17.553 99.8796L17.5543 99.9513Z" fill="#263238"/>
<path id="Vector_132" d="M26.6442 78.56C26.9073 79.1968 27.3983 79.6486 27.8711 79.8519C28.5823 80.1579 28.9733 79.4616 28.8052 78.6653C28.6541 77.9487 28.1016 76.9261 27.3737 76.9613C26.6565 76.9959 26.3432 77.8317 26.6442 78.56Z" fill="#FF8B7B"/>
</g>
<g id="Group_42">
<path id="Vector_133" d="M31.2698 76.9263C31.2555 77.1572 31.3681 77.3526 31.5219 77.3632C31.6757 77.3735 31.8073 77.1924 31.8193 76.9576C31.8309 76.7227 31.7209 76.531 31.5701 76.5214C31.4193 76.5117 31.2847 76.6921 31.2698 76.9263Z" fill="#2E353A"/>
<path id="Vector_134" d="M33.8997 77.0814C33.8854 77.3126 33.998 77.5079 34.1488 77.5176C34.2996 77.5272 34.4342 77.3468 34.4491 77.1126C34.4641 76.8784 34.3508 76.686 34.2 76.6764C34.0492 76.6668 33.9116 76.8462 33.8997 77.0814Z" fill="#2E353A"/>
</g>
</g>
</g>
<g id="Character_1">
<g id="Group_43">
<path id="Vector_135" d="M41.4981 33.9961H17.8438C16.0276 33.9961 14.5552 35.4685 14.5552 37.2847V55.2648C14.5552 57.081 16.0276 58.5534 17.8438 58.5534H35.705C36.0555 61.4287 38.5006 63.6576 41.4706 63.6576C41.6021 63.6576 41.731 63.6466 41.8602 63.638C40.936 62.4204 40.1819 60.656 39.6879 58.5534H41.4981C43.3143 58.5534 44.7867 57.081 44.7867 55.2648V37.2847C44.7867 35.4681 43.3143 33.9961 41.4981 33.9961Z" fill="#00A0E2"/>
<path id="Vector_136" opacity="0.4" d="M41.4981 33.9961H17.8438C16.0276 33.9961 14.5552 35.4685 14.5552 37.2847V55.2648C14.5552 57.081 16.0276 58.5534 17.8438 58.5534H35.705C36.0555 61.4287 38.5006 63.6576 41.4706 63.6576C41.6021 63.6576 41.731 63.6466 41.8602 63.638C40.936 62.4204 40.1819 60.656 39.6879 58.5534H41.4981C43.3143 58.5534 44.7867 57.081 44.7867 55.2648V37.2847C44.7867 35.4681 43.3143 33.9961 41.4981 33.9961Z" fill="white"/>
<g id="Group_44">
<g id="Group_45">
<path id="Vector_137" d="M35.7046 58.553C35.469 56.004 35.7189 52.7516 35.7189 52.7516C35.9235 49.3497 34.9089 45.6728 34.1402 45.0429C33.0346 44.1319 32.0054 43.2718 31.6383 44.4193C31.4276 45.0788 31.3629 46.1794 31.3768 47.4059C31.4104 50.3746 32.025 54.0801 32.3392 55.7907C32.4505 56.3976 32.7256 58.553 32.7256 58.553H35.7046Z" fill="#00A0E2"/>
</g>
<g id="Group_46">
<path id="Vector_138" d="M33.6381 45.1895C33.5614 44.6925 33.1996 44.2869 32.7135 44.1517C31.8804 43.9288 30.4478 43.567 29.1396 43.3331C27.6047 43.0846 26.0553 42.9421 24.5022 42.9092C23.5192 42.869 22.5508 42.8983 21.7833 42.9421C21.692 42.9494 21.6006 42.964 21.5129 42.9896C20.8332 43.1833 20.4349 43.8922 20.6286 44.572C22.5983 51.6046 23.0066 54.9723 23.1119 58.5535H32.7265C33.174 55.3035 34.055 52.6371 34.1354 50.7259C34.2484 47.9303 33.777 46.0118 33.6381 45.1895Z" fill="#00A0E2"/>
<path id="Vector_139" opacity="0.8" d="M33.6381 45.1895C33.5614 44.6925 33.1996 44.2869 32.7135 44.1517C31.8804 43.9288 30.4478 43.567 29.1396 43.3331C27.6047 43.0846 26.0553 42.9421 24.5022 42.9092C23.5192 42.869 22.5508 42.8983 21.7833 42.9421C21.692 42.9494 21.6006 42.964 21.5129 42.9896C20.8332 43.1833 20.4349 43.8922 20.6286 44.572C22.5983 51.6046 23.0066 54.9723 23.1119 58.5535H32.7265C33.174 55.3035 34.055 52.6371 34.1354 50.7259C34.2484 47.9303 33.777 46.0118 33.6381 45.1895Z" fill="white"/>
</g>
<g id="Group_47">
<g id="Group_48">
<g id="Group_49">
<path id="Vector_140" d="M29.6891 41.7093C29.0579 42.5634 28.5941 43.5747 29.5858 44.7026C29.7951 44.9408 29.9349 45.2404 29.9422 45.5574C29.9535 46.065 29.6585 46.559 28.0041 45.5839C25.6065 44.1727 25.8068 42.5777 25.8068 42.5777C27.0679 42.1957 27.8217 39.5486 28.1134 38.0337L29.6891 41.7093Z" fill="#FFB573"/>
<path id="Vector_141" opacity="0.2" d="M28.2473 40.3072C28.0622 40.952 28.7453 41.9799 29.2632 42.3882C29.3828 42.149 29.5246 41.9211 29.6864 41.7081L28.7542 39.5344C28.5343 39.7547 28.3619 40.0175 28.2473 40.3072Z" fill="black"/>
</g>
<path id="Vector_142" d="M34.5599 33.7436C35.4021 34.813 33.5021 38.0341 33.2972 37.3617C32.9646 36.2628 32.4796 34.0429 32.4869 33.123C32.4979 31.6819 33.7181 32.6745 34.5599 33.7436Z" fill="#263238"/>
<path id="Vector_143" d="M27.5629 34.0786C28.5044 32.4753 30.5671 31.9392 32.1704 32.8806C34.4315 34.1902 34.26 37.8579 33.4302 39.9764C32.5209 42.3345 29.4463 42.6341 27.8526 40.4924C26.7836 39.0635 26.9178 38.025 27.1068 35.5633C27.1407 35.0394 27.2972 34.5311 27.5629 34.0786Z" fill="#FFB573"/>
<g id="Group_50">
<path id="Vector_144" d="M30.5691 36.8093C30.5515 37.0096 30.6418 37.183 30.7707 37.197C30.8996 37.2113 31.0249 37.0561 31.0458 36.8568C31.0667 36.6574 30.9731 36.483 30.8442 36.4691C30.7153 36.4551 30.5983 36.6202 30.5691 36.8093Z" fill="#263238"/>
<path id="Vector_145" d="M30.7788 36.4944L31.2731 36.4023C31.2731 36.4023 30.9944 36.7419 30.7788 36.4944Z" fill="#263238"/>
</g>
<g id="Group_51">
<path id="Vector_146" d="M33.0872 37.3708C33.0695 37.5711 33.1599 37.7445 33.2888 37.7585C33.4177 37.7724 33.543 37.6176 33.5639 37.4183C33.5848 37.219 33.4911 37.0446 33.3622 37.0306C33.2333 37.0167 33.1164 37.1818 33.0872 37.3708Z" fill="#263238"/>
<path id="Vector_147" d="M33.2969 37.0558L33.7912 36.9641C33.7912 36.9641 33.5125 37.3033 33.2969 37.0558Z" fill="#263238"/>
</g>
<path id="Vector_148" d="M32.1328 38.888C32.3687 38.9834 32.6345 38.9708 32.86 38.8535C32.6205 38.4239 32.4418 37.9635 32.3288 37.4851L32.1328 38.888Z" fill="#ED893E"/>
<path id="Vector_149" d="M30.2464 38.804C30.2325 38.7744 30.2451 38.7389 30.2746 38.7249C30.3042 38.711 30.3398 38.7236 30.3537 38.7532C30.6019 39.195 31.0474 39.4907 31.5507 39.5472C31.5816 39.5535 31.6025 39.582 31.5995 39.6133C31.5995 39.6143 31.5992 39.6153 31.5992 39.6163C31.5945 39.6468 31.5663 39.6677 31.5357 39.6631C31.4407 39.6521 31.3467 39.6335 31.2547 39.6069C30.8245 39.485 30.4613 39.1957 30.2464 38.804Z" fill="#263238"/>
<path id="Vector_150" d="M30.4919 35.5146L30.4915 35.5142C30.4533 35.4624 30.4643 35.3893 30.5161 35.3508C31.052 34.9455 31.8134 35.179 31.846 35.1913C31.9078 35.2112 31.9416 35.2774 31.9217 35.3392C31.9018 35.4009 31.8357 35.4348 31.7739 35.4146C31.7682 35.4122 31.1058 35.196 30.662 35.5332C30.6224 35.5644 30.5669 35.5657 30.5254 35.5365L30.4919 35.5146Z" fill="#263238"/>
<path id="Vector_151" d="M34.1082 36.2822C33.9454 36.0294 33.67 35.8716 33.3696 35.859C33.3045 35.8603 33.2504 35.8088 33.249 35.7434C33.2477 35.678 33.2992 35.6241 33.3647 35.6228C33.7444 35.6354 34.0945 35.8308 34.3045 36.1474C34.3048 36.148 34.3052 36.1484 34.3058 36.149C34.3417 36.2028 34.3271 36.2753 34.2733 36.3112C34.2394 36.3351 34.1952 36.3391 34.1577 36.3211C34.1391 36.3115 34.1221 36.2982 34.1082 36.2822Z" fill="#263238"/>
</g>
<path id="Vector_152" d="M31.084 33.5869C30.3431 33.7198 29.6737 34.2051 29.3169 34.8679C29.1478 35.1818 28.0571 35.8699 27.8728 36.1748C27.2857 37.1459 27.9246 39.9186 27.6489 40.1275C27.3731 40.3365 27.4711 39.5146 27.2077 39.3581C26.9442 39.2016 26.6402 39.1086 26.4087 38.9073C26.0908 38.6306 24.926 35.6227 26.3459 33.8015C27.0745 32.8673 28.0897 32.1341 29.2564 31.9288C30.4232 31.7235 31.668 32.0065 32.6314 32.6959C32.9424 32.9181 33.4812 33.5281 32.6175 33.8002C32.3872 33.8726 32.3766 33.6869 32.1334 33.6261C31.7916 33.5404 31.4311 33.5248 31.084 33.5869Z" fill="#263238"/>
<g id="Group_52">
<path id="Vector_153" d="M25.431 36.1751C26.2502 35.3775 27.2735 35.3771 28.1774 35.3781C28.6837 35.3785 29.1202 35.3785 29.4488 35.2349C30.3591 34.8376 30.9188 33.5407 31.0198 33.1131C31.1182 32.6952 31.6015 32.4068 31.7793 32.3968C31.9088 32.3855 32.3347 32.435 32.5397 32.733C32.7022 32.9692 32.6856 33.3091 32.4906 33.743L32.6175 33.8001C32.8341 33.3187 32.8464 32.933 32.6547 32.654C32.4125 32.3022 31.9371 32.2523 31.772 32.258C31.5308 32.2716 30.9976 32.6025 30.885 33.0812C30.7919 33.4742 30.2451 34.736 29.3936 35.1077C29.0917 35.2396 28.6671 35.2393 28.1777 35.2389C27.2921 35.2389 26.1938 35.2383 25.334 36.0758L25.431 36.1751Z" fill="#263238"/>
<path id="Vector_154" opacity="0.1" d="M25.431 36.1751C26.2502 35.3775 27.2735 35.3771 28.1774 35.3781C28.6837 35.3785 29.1202 35.3785 29.4488 35.2349C30.3591 34.8376 30.9188 33.5407 31.0198 33.1131C31.1182 32.6952 31.6015 32.4068 31.7793 32.3968C31.9088 32.3855 32.3347 32.435 32.5397 32.733C32.7022 32.9692 32.6856 33.3091 32.4906 33.743L32.6175 33.8001C32.8341 33.3187 32.8464 32.933 32.6547 32.654C32.4125 32.3022 31.9371 32.2523 31.772 32.258C31.5308 32.2716 30.9976 32.6025 30.885 33.0812C30.7919 33.4742 30.2451 34.736 29.3936 35.1077C29.0917 35.2396 28.6671 35.2393 28.1777 35.2389C27.2921 35.2389 26.1938 35.2383 25.334 36.0758L25.431 36.1751Z" fill="white"/>
</g>
<path id="Vector_155" d="M26.1324 37.1063C26.1909 36.6631 26.5978 36.3511 27.041 36.41C27.6526 36.5023 27.9307 37.3265 27.9313 37.8654C27.9234 38.4617 27.4872 38.9016 26.95 38.5673C26.5477 38.3099 26.263 37.9043 26.1576 37.4385C26.1264 37.3308 26.1178 37.2176 26.1324 37.1063Z" fill="#FFB573"/>
</g>
<path id="Vector_156" d="M27.221 45.8764C27.0895 47.5757 25.5181 54 22.1159 54.1791C21.586 54.2047 21.0451 54.0037 20.6322 53.6529C20.6285 53.6529 20.6212 53.6456 20.6176 53.6419C17.8732 51.9901 20.0292 43.9761 20.581 43.5084C21.5019 42.7409 23.1135 42.9054 23.6178 44.4146C23.6909 44.1625 23.7457 43.903 23.7896 43.6436C23.9321 42.7738 24.4035 40.7566 25.2732 40.6104C25.7995 40.5191 26.8775 40.4716 27.1918 40.9028C27.5061 41.3304 27.4366 43.0662 27.221 45.8764Z" fill="#00A0E2"/>
<g id="Group_53" opacity="0.2">
<path id="Vector_157" d="M27.0415 36.4097L27.0575 36.5612L27.2133 38.0339V39.9348L27.4717 38.8056C27.5392 38.5109 27.5538 38.2066 27.5152 37.907L27.3335 36.4937L27.0415 36.4097Z" fill="black"/>
</g>
<g id="Group_54">
<path id="Vector_158" d="M25.3334 40.961L24.9258 38L27.3921 37.9807C27.3921 37.9807 27.1888 40.2039 26.5712 40.961H25.3334Z" fill="#FFB573"/>
<path id="Vector_159" d="M25.3587 35.9775L27.1858 36.2995L27.3832 37.9741L24.9258 37.9997L25.3587 35.9775Z" fill="#FFB573"/>
</g>
</g>
<path id="Vector_160" opacity="0.2" d="M22.8772 47.1157C22.8772 47.1157 21.3995 50.5326 21.3546 49.1794C21.3058 47.7097 22.8772 47.1157 22.8772 47.1157Z" fill="black"/>
</g>
</g>
<g id="Graphic">
<g id="Group_55">
<path id="Vector_161" d="M113.997 67.0886H104.855C103.985 67.0886 103.28 67.7936 103.28 68.6633V74.5522C103.28 75.4219 103.985 76.1272 104.855 76.1272H107.484L108.658 77.6627C109.045 78.169 109.807 78.169 110.195 77.6627L111.369 76.1272H113.998C114.867 76.1272 115.572 75.4222 115.572 74.5525V68.6637C115.572 67.7936 114.867 67.0886 113.997 67.0886Z" fill="#00A0E2"/>
<path id="Vector_162" opacity="0.7" d="M113.997 67.0886H104.855C103.985 67.0886 103.28 67.7936 103.28 68.6633V74.5522C103.28 75.4219 103.985 76.1272 104.855 76.1272H107.484L108.658 77.6627C109.045 78.169 109.807 78.169 110.195 77.6627L111.369 76.1272H113.998C114.867 76.1272 115.572 75.4222 115.572 74.5525V68.6637C115.572 67.7936 114.867 67.0886 113.997 67.0886Z" fill="white"/>
<path id="Vector_163" d="M113.468 71.134L110.541 69.3484V70.4191H109.201C107.41 70.4191 105.959 71.8706 105.959 73.6609C105.959 73.907 105.989 74.1456 106.041 74.3761C106.367 72.9303 107.656 71.8493 109.201 71.8493H110.541V72.92L113.468 71.134Z" fill="#00A0E2"/>
</g>
<g id="Group_56">
<path id="Vector_164" d="M49.6689 31.0552H56.6793C57.3464 31.0552 57.8869 31.5957 57.8869 32.2628V36.7782C57.8869 37.4453 57.3464 37.9858 56.6793 37.9858H54.6634L53.7631 39.1632C53.4661 39.5516 52.8814 39.5516 52.5847 39.1632L51.6844 37.9858H49.6685C49.0018 37.9858 48.4609 37.4453 48.4609 36.7782V32.2628C48.4609 31.596 49.0018 31.0552 49.6689 31.0552Z" fill="#00A0E2"/>
<path id="Vector_165" opacity="0.7" d="M49.6689 31.0552H56.6793C57.3464 31.0552 57.8869 31.5957 57.8869 32.2628V36.7782C57.8869 37.4453 57.3464 37.9858 56.6793 37.9858H54.6634L53.7631 39.1632C53.4661 39.5516 52.8814 39.5516 52.5847 39.1632L51.6844 37.9858H49.6685C49.0018 37.9858 48.4609 37.4453 48.4609 36.7782V32.2628C48.4609 31.596 49.0018 31.0552 49.6689 31.0552Z" fill="white"/>
<path id="Vector_166" d="M50.0752 34.1575L52.319 32.7881V33.609H53.3468C54.7199 33.609 55.8328 34.7219 55.8328 36.095C55.8328 36.2837 55.8099 36.4667 55.77 36.6434C55.5202 35.5348 54.5312 34.706 53.3468 34.706H52.319V35.5269L50.0752 34.1575Z" fill="#00A0E2"/>
</g>
</g>
</g>
<defs>
<clipPath id="clip0_1259_7">
<rect width="150" height="150" fill="white"/>
</clipPath>
</defs>
</svg>
