<svg width="26" height="26" viewBox="0 0 26 26" fill="none" xmlns="http://www.w3.org/2000/svg">
<path d="M6.90917 4.03977C6.5834 4.03977 6.27006 4.17112 6.0396 4.40543C5.80911 4.63943 5.68005 4.95673 5.68005 5.28775V21.9068C5.68005 22.3779 6.05494 22.7598 6.51891 22.7598H6.52201C6.7709 22.7598 7.00747 22.6593 7.18262 22.4808C7.99688 21.6547 10.3998 19.2148 11.3923 18.2089C11.6688 17.9266 12.0467 17.7678 12.4401 17.7678C12.8334 17.7678 13.2113 17.9266 13.4878 18.2089C14.4834 19.218 16.8986 21.6697 17.7037 22.4883C17.8757 22.6621 18.1061 22.7598 18.3489 22.7598C18.819 22.7598 19.2001 22.3732 19.2001 21.8962V5.28775C19.2001 4.95673 19.071 4.63943 18.8405 4.40543C18.6101 4.17112 18.2967 4.03977 17.9709 4.03977H6.90917Z" stroke="black" stroke-width="1.56" stroke-miterlimit="10" stroke-linecap="round" stroke-linejoin="round"/>
</svg>
