<svg width="15" height="20" viewBox="0 0 15 20" fill="none" xmlns="http://www.w3.org/2000/svg">
<path d="M2.18184 0.999999C1.8686 0.999999 1.56731 1.1263 1.34572 1.3516C1.12409 1.5766 1 1.8817 1 2.19999V18.1798C1 18.6328 1.36047 19 1.80659 19H1.80957C2.04889 19 2.27636 18.9034 2.44477 18.7318C3.22771 17.9374 5.53818 15.5914 6.49251 14.6242C6.75842 14.3527 7.12179 14.2 7.50002 14.2C7.87821 14.2 8.24162 14.3527 8.50749 14.6242C9.46476 15.5944 11.787 17.9518 12.5612 18.739C12.7266 18.9061 12.9481 19 13.1816 19C13.6336 19 14 18.6283 14 18.1696V2.19999C14 1.8817 13.8759 1.5766 13.6543 1.3516C13.4327 1.1263 13.1314 0.999999 12.8182 0.999999H2.18184Z" stroke="black" stroke-width="1.5" stroke-miterlimit="10" stroke-linecap="round" stroke-linejoin="round"/>
</svg>
